G04 #@! TF.FileFunction,Legend,Bot*
%FSLAX46Y46*%
G04 Gerber Fmt 4.6, Leading zero omitted, Abs format (unit mm)*
G04 Created by KiCad (PCBNEW 4.0.4+e1-6308~48~ubuntu14.04.1-stable) date Sun Nov 27 15:18:37 2016*
%MOMM*%
%LPD*%
G01*
G04 APERTURE LIST*
%ADD10C,0.350000*%
%ADD11C,0.254000*%
%ADD12C,0.508000*%
%ADD13C,0.300000*%
%ADD14C,1.016000*%
%ADD15C,0.304800*%
%ADD16C,0.203200*%
%ADD17C,0.250000*%
G04 APERTURE END LIST*
D10*
D11*
X44413714Y-37113028D02*
X43736381Y-36871123D01*
X44413714Y-36629219D01*
X44752381Y-36048647D02*
X44752381Y-35951886D01*
X44704000Y-35855124D01*
X44655619Y-35806743D01*
X44558857Y-35758362D01*
X44365333Y-35709981D01*
X44123429Y-35709981D01*
X43929905Y-35758362D01*
X43833143Y-35806743D01*
X43784762Y-35855124D01*
X43736381Y-35951886D01*
X43736381Y-36048647D01*
X43784762Y-36145409D01*
X43833143Y-36193790D01*
X43929905Y-36242171D01*
X44123429Y-36290552D01*
X44365333Y-36290552D01*
X44558857Y-36242171D01*
X44655619Y-36193790D01*
X44704000Y-36145409D01*
X44752381Y-36048647D01*
X43833143Y-35274552D02*
X43784762Y-35226171D01*
X43736381Y-35274552D01*
X43784762Y-35322933D01*
X43833143Y-35274552D01*
X43736381Y-35274552D01*
X43736381Y-34258552D02*
X43736381Y-34839123D01*
X43736381Y-34548837D02*
X44752381Y-34548837D01*
X44607238Y-34645599D01*
X44510476Y-34742361D01*
X44462095Y-34839123D01*
D12*
X43686790Y-83799438D02*
X43686790Y-81767438D01*
X42525648Y-83799438D01*
X42525648Y-81767438D01*
X41654790Y-81960962D02*
X41558028Y-81864200D01*
X41364505Y-81767438D01*
X40880695Y-81767438D01*
X40687171Y-81864200D01*
X40590409Y-81960962D01*
X40493648Y-82154486D01*
X40493648Y-82348010D01*
X40590409Y-82638295D01*
X41751552Y-83799438D01*
X40493648Y-83799438D01*
X39622790Y-83799438D02*
X39622790Y-81767438D01*
X39138981Y-81767438D01*
X38848695Y-81864200D01*
X38655171Y-82057724D01*
X38558410Y-82251248D01*
X38461648Y-82638295D01*
X38461648Y-82928581D01*
X38558410Y-83315629D01*
X38655171Y-83509152D01*
X38848695Y-83702676D01*
X39138981Y-83799438D01*
X39622790Y-83799438D01*
D13*
X52968256Y-44001571D02*
X52611113Y-45001571D01*
X52253971Y-44001571D01*
X51396828Y-43501571D02*
X51253971Y-43501571D01*
X51111114Y-43573000D01*
X51039685Y-43644429D01*
X50968256Y-43787286D01*
X50896828Y-44073000D01*
X50896828Y-44430143D01*
X50968256Y-44715857D01*
X51039685Y-44858714D01*
X51111114Y-44930143D01*
X51253971Y-45001571D01*
X51396828Y-45001571D01*
X51539685Y-44930143D01*
X51611114Y-44858714D01*
X51682542Y-44715857D01*
X51753971Y-44430143D01*
X51753971Y-44073000D01*
X51682542Y-43787286D01*
X51611114Y-43644429D01*
X51539685Y-43573000D01*
X51396828Y-43501571D01*
X50253971Y-44858714D02*
X50182543Y-44930143D01*
X50253971Y-45001571D01*
X50325400Y-44930143D01*
X50253971Y-44858714D01*
X50253971Y-45001571D01*
X48753971Y-45001571D02*
X49611114Y-45001571D01*
X49182542Y-45001571D02*
X49182542Y-43501571D01*
X49325399Y-43715857D01*
X49468257Y-43858714D01*
X49611114Y-43930143D01*
X52409456Y-66099571D02*
X52052313Y-67099571D01*
X51695171Y-66099571D01*
X50838028Y-65599571D02*
X50695171Y-65599571D01*
X50552314Y-65671000D01*
X50480885Y-65742429D01*
X50409456Y-65885286D01*
X50338028Y-66171000D01*
X50338028Y-66528143D01*
X50409456Y-66813857D01*
X50480885Y-66956714D01*
X50552314Y-67028143D01*
X50695171Y-67099571D01*
X50838028Y-67099571D01*
X50980885Y-67028143D01*
X51052314Y-66956714D01*
X51123742Y-66813857D01*
X51195171Y-66528143D01*
X51195171Y-66171000D01*
X51123742Y-65885286D01*
X51052314Y-65742429D01*
X50980885Y-65671000D01*
X50838028Y-65599571D01*
X49695171Y-66956714D02*
X49623743Y-67028143D01*
X49695171Y-67099571D01*
X49766600Y-67028143D01*
X49695171Y-66956714D01*
X49695171Y-67099571D01*
X48195171Y-67099571D02*
X49052314Y-67099571D01*
X48623742Y-67099571D02*
X48623742Y-65599571D01*
X48766599Y-65813857D01*
X48909457Y-65956714D01*
X49052314Y-66028143D01*
D14*
X40364229Y-104321429D02*
X39711086Y-104539143D01*
X39493371Y-104756857D01*
X39275657Y-105192286D01*
X39275657Y-105845429D01*
X39493371Y-106280857D01*
X39711086Y-106498571D01*
X40146514Y-106716286D01*
X41888229Y-106716286D01*
X41888229Y-102144286D01*
X40364229Y-102144286D01*
X39928800Y-102362000D01*
X39711086Y-102579714D01*
X39493371Y-103015143D01*
X39493371Y-103450571D01*
X39711086Y-103886000D01*
X39928800Y-104103714D01*
X40364229Y-104321429D01*
X41888229Y-104321429D01*
X50498829Y-87278029D02*
X49845686Y-87495743D01*
X49627971Y-87713457D01*
X49410257Y-88148886D01*
X49410257Y-88802029D01*
X49627971Y-89237457D01*
X49845686Y-89455171D01*
X50281114Y-89672886D01*
X52022829Y-89672886D01*
X52022829Y-85100886D01*
X50498829Y-85100886D01*
X50063400Y-85318600D01*
X49845686Y-85536314D01*
X49627971Y-85971743D01*
X49627971Y-86407171D01*
X49845686Y-86842600D01*
X50063400Y-87060314D01*
X50498829Y-87278029D01*
X52022829Y-87278029D01*
D13*
X36673971Y-58898971D02*
X36311114Y-59019924D01*
X36190162Y-59140876D01*
X36069210Y-59382781D01*
X36069210Y-59745638D01*
X36190162Y-59987543D01*
X36311114Y-60108495D01*
X36553019Y-60229448D01*
X37520638Y-60229448D01*
X37520638Y-57689448D01*
X36673971Y-57689448D01*
X36432067Y-57810400D01*
X36311114Y-57931352D01*
X36190162Y-58173257D01*
X36190162Y-58415162D01*
X36311114Y-58657067D01*
X36432067Y-58778019D01*
X36673971Y-58898971D01*
X37520638Y-58898971D01*
X54580971Y-59000571D02*
X54218114Y-59121524D01*
X54097162Y-59242476D01*
X53976210Y-59484381D01*
X53976210Y-59847238D01*
X54097162Y-60089143D01*
X54218114Y-60210095D01*
X54460019Y-60331048D01*
X55427638Y-60331048D01*
X55427638Y-57791048D01*
X54580971Y-57791048D01*
X54339067Y-57912000D01*
X54218114Y-58032952D01*
X54097162Y-58274857D01*
X54097162Y-58516762D01*
X54218114Y-58758667D01*
X54339067Y-58879619D01*
X54580971Y-59000571D01*
X55427638Y-59000571D01*
X54555571Y-36013571D02*
X54192714Y-36134524D01*
X54071762Y-36255476D01*
X53950810Y-36497381D01*
X53950810Y-36860238D01*
X54071762Y-37102143D01*
X54192714Y-37223095D01*
X54434619Y-37344048D01*
X55402238Y-37344048D01*
X55402238Y-34804048D01*
X54555571Y-34804048D01*
X54313667Y-34925000D01*
X54192714Y-35045952D01*
X54071762Y-35287857D01*
X54071762Y-35529762D01*
X54192714Y-35771667D01*
X54313667Y-35892619D01*
X54555571Y-36013571D01*
X55402238Y-36013571D01*
X36648571Y-36013571D02*
X36285714Y-36134524D01*
X36164762Y-36255476D01*
X36043810Y-36497381D01*
X36043810Y-36860238D01*
X36164762Y-37102143D01*
X36285714Y-37223095D01*
X36527619Y-37344048D01*
X37495238Y-37344048D01*
X37495238Y-34804048D01*
X36648571Y-34804048D01*
X36406667Y-34925000D01*
X36285714Y-35045952D01*
X36164762Y-35287857D01*
X36164762Y-35529762D01*
X36285714Y-35771667D01*
X36406667Y-35892619D01*
X36648571Y-36013571D01*
X37495238Y-36013571D01*
D15*
X50800000Y-27940000D02*
X50800000Y-33020000D01*
X50800000Y-22860000D02*
X50800000Y-27940000D01*
X53340000Y-27940000D02*
X48260000Y-27940000D01*
X48260000Y-33020000D02*
X53340000Y-33020000D01*
X53340000Y-22860000D02*
X53340000Y-38100000D01*
X53340000Y-38100000D02*
X48260000Y-38100000D01*
X48260000Y-38100000D02*
X48260000Y-22860000D01*
X48260000Y-22860000D02*
X53340000Y-22860000D01*
D16*
X55372000Y-22860000D02*
X53340000Y-22860000D01*
X48260000Y-22860000D02*
X46228000Y-22860000D01*
X48260000Y-27940000D02*
X46228000Y-27940000D01*
X55372000Y-27940000D02*
X53340000Y-27940000D01*
X55372000Y-33020000D02*
X53340000Y-33020000D01*
X48260000Y-33020000D02*
X46228000Y-33020000D01*
D15*
X50800000Y-96520000D02*
X50800000Y-101600000D01*
X50800000Y-91440000D02*
X50800000Y-96520000D01*
X53340000Y-96520000D02*
X48260000Y-96520000D01*
X48260000Y-101600000D02*
X53340000Y-101600000D01*
X53340000Y-91440000D02*
X53340000Y-106680000D01*
X53340000Y-106680000D02*
X48260000Y-106680000D01*
X48260000Y-106680000D02*
X48260000Y-91440000D01*
X48260000Y-91440000D02*
X53340000Y-91440000D01*
D16*
X55372000Y-91440000D02*
X53340000Y-91440000D01*
X48260000Y-91440000D02*
X46228000Y-91440000D01*
X48260000Y-96520000D02*
X46228000Y-96520000D01*
X55372000Y-96520000D02*
X53340000Y-96520000D01*
X55372000Y-101600000D02*
X53340000Y-101600000D01*
X48260000Y-101600000D02*
X46228000Y-101600000D01*
D15*
X50800000Y-50800000D02*
X50800000Y-55880000D01*
X50800000Y-45720000D02*
X50800000Y-50800000D01*
X53340000Y-50800000D02*
X48260000Y-50800000D01*
X48260000Y-55880000D02*
X53340000Y-55880000D01*
X53340000Y-45720000D02*
X53340000Y-60960000D01*
X53340000Y-60960000D02*
X48260000Y-60960000D01*
X48260000Y-60960000D02*
X48260000Y-45720000D01*
X48260000Y-45720000D02*
X53340000Y-45720000D01*
D16*
X55372000Y-45720000D02*
X53340000Y-45720000D01*
X48260000Y-45720000D02*
X46228000Y-45720000D01*
X48260000Y-50800000D02*
X46228000Y-50800000D01*
X55372000Y-50800000D02*
X53340000Y-50800000D01*
X55372000Y-55880000D02*
X53340000Y-55880000D01*
X48260000Y-55880000D02*
X46228000Y-55880000D01*
D15*
X50800000Y-73660000D02*
X50800000Y-78740000D01*
X50800000Y-68580000D02*
X50800000Y-73660000D01*
X53340000Y-73660000D02*
X48260000Y-73660000D01*
X48260000Y-78740000D02*
X53340000Y-78740000D01*
X53340000Y-68580000D02*
X53340000Y-83820000D01*
X53340000Y-83820000D02*
X48260000Y-83820000D01*
X48260000Y-83820000D02*
X48260000Y-68580000D01*
X48260000Y-68580000D02*
X53340000Y-68580000D01*
D16*
X55372000Y-68580000D02*
X53340000Y-68580000D01*
X48260000Y-68580000D02*
X46228000Y-68580000D01*
X48260000Y-73660000D02*
X46228000Y-73660000D01*
X55372000Y-73660000D02*
X53340000Y-73660000D01*
X55372000Y-78740000D02*
X53340000Y-78740000D01*
X48260000Y-78740000D02*
X46228000Y-78740000D01*
D15*
X38100000Y-30480000D02*
X43180000Y-30480000D01*
X43180000Y-27940000D02*
X38100000Y-27940000D01*
X43180000Y-25400000D02*
X38100000Y-25400000D01*
X43180000Y-33020000D02*
X38100000Y-33020000D01*
X43180000Y-22860000D02*
X38100000Y-22860000D01*
X43180000Y-38100000D02*
X43180000Y-22860000D01*
X38100000Y-38100000D02*
X43180000Y-38100000D01*
X38100000Y-22860000D02*
X38100000Y-38100000D01*
X38100000Y-51168300D02*
X43180000Y-51168300D01*
X43180000Y-48628300D02*
X38100000Y-48628300D01*
X43180000Y-46088300D02*
X38100000Y-46088300D01*
X43180000Y-53708300D02*
X38100000Y-53708300D01*
X43180000Y-43548300D02*
X38100000Y-43548300D01*
X43180000Y-58788300D02*
X43180000Y-43548300D01*
X38100000Y-58788300D02*
X43180000Y-58788300D01*
X38100000Y-43548300D02*
X38100000Y-58788300D01*
X38100000Y-71856600D02*
X43180000Y-71856600D01*
X43180000Y-69316600D02*
X38100000Y-69316600D01*
X43180000Y-66776600D02*
X38100000Y-66776600D01*
X43180000Y-74396600D02*
X38100000Y-74396600D01*
X43180000Y-64236600D02*
X38100000Y-64236600D01*
X43180000Y-79476600D02*
X43180000Y-64236600D01*
X38100000Y-79476600D02*
X43180000Y-79476600D01*
X38100000Y-64236600D02*
X38100000Y-79476600D01*
X38100000Y-92544900D02*
X43180000Y-92544900D01*
X43180000Y-90004900D02*
X38100000Y-90004900D01*
X43180000Y-87464900D02*
X38100000Y-87464900D01*
X43180000Y-95084900D02*
X38100000Y-95084900D01*
X43180000Y-84924900D02*
X38100000Y-84924900D01*
X43180000Y-100164900D02*
X43180000Y-84924900D01*
X38100000Y-100164900D02*
X43180000Y-100164900D01*
X38100000Y-84924900D02*
X38100000Y-100164900D01*
D17*
X47799524Y-31297619D02*
X47751905Y-31250000D01*
X47656667Y-31202381D01*
X47418571Y-31202381D01*
X47323333Y-31250000D01*
X47275714Y-31297619D01*
X47228095Y-31392857D01*
X47228095Y-31488095D01*
X47275714Y-31630952D01*
X47847143Y-32202381D01*
X47228095Y-32202381D01*
X46799524Y-32202381D02*
X46799524Y-31202381D01*
X46228095Y-32202381D01*
X46228095Y-31202381D01*
X47775714Y-28757619D02*
X47728095Y-28710000D01*
X47632857Y-28662381D01*
X47394761Y-28662381D01*
X47299523Y-28710000D01*
X47251904Y-28757619D01*
X47204285Y-28852857D01*
X47204285Y-28948095D01*
X47251904Y-29090952D01*
X47823333Y-29662381D01*
X47204285Y-29662381D01*
X46775714Y-29662381D02*
X46775714Y-28662381D01*
X46394761Y-28662381D01*
X46299523Y-28710000D01*
X46251904Y-28757619D01*
X46204285Y-28852857D01*
X46204285Y-28995714D01*
X46251904Y-29090952D01*
X46299523Y-29138571D01*
X46394761Y-29186190D01*
X46775714Y-29186190D01*
X47228095Y-27122381D02*
X47799524Y-27122381D01*
X47513810Y-27122381D02*
X47513810Y-26122381D01*
X47609048Y-26265238D01*
X47704286Y-26360476D01*
X47799524Y-26408095D01*
X46799524Y-27122381D02*
X46799524Y-26122381D01*
X46228095Y-27122381D01*
X46228095Y-26122381D01*
X47204285Y-24582381D02*
X47775714Y-24582381D01*
X47490000Y-24582381D02*
X47490000Y-23582381D01*
X47585238Y-23725238D01*
X47680476Y-23820476D01*
X47775714Y-23868095D01*
X46775714Y-24582381D02*
X46775714Y-23582381D01*
X46394761Y-23582381D01*
X46299523Y-23630000D01*
X46251904Y-23677619D01*
X46204285Y-23772857D01*
X46204285Y-23915714D01*
X46251904Y-24010952D01*
X46299523Y-24058571D01*
X46394761Y-24106190D01*
X46775714Y-24106190D01*
X54943333Y-31535714D02*
X54943333Y-32202381D01*
X55181429Y-31154762D02*
X55419524Y-31869048D01*
X54800476Y-31869048D01*
X54419524Y-32202381D02*
X54419524Y-31202381D01*
X53848095Y-32202381D01*
X53848095Y-31202381D01*
X54919523Y-28995714D02*
X54919523Y-29662381D01*
X55157619Y-28614762D02*
X55395714Y-29329048D01*
X54776666Y-29329048D01*
X54395714Y-29662381D02*
X54395714Y-28662381D01*
X54014761Y-28662381D01*
X53919523Y-28710000D01*
X53871904Y-28757619D01*
X53824285Y-28852857D01*
X53824285Y-28995714D01*
X53871904Y-29090952D01*
X53919523Y-29138571D01*
X54014761Y-29186190D01*
X54395714Y-29186190D01*
X55443333Y-23582381D02*
X54824285Y-23582381D01*
X55157619Y-23963333D01*
X55014761Y-23963333D01*
X54919523Y-24010952D01*
X54871904Y-24058571D01*
X54824285Y-24153810D01*
X54824285Y-24391905D01*
X54871904Y-24487143D01*
X54919523Y-24534762D01*
X55014761Y-24582381D01*
X55300476Y-24582381D01*
X55395714Y-24534762D01*
X55443333Y-24487143D01*
X54395714Y-24582381D02*
X54395714Y-23582381D01*
X54014761Y-23582381D01*
X53919523Y-23630000D01*
X53871904Y-23677619D01*
X53824285Y-23772857D01*
X53824285Y-23915714D01*
X53871904Y-24010952D01*
X53919523Y-24058571D01*
X54014761Y-24106190D01*
X54395714Y-24106190D01*
X55467143Y-26122381D02*
X54848095Y-26122381D01*
X55181429Y-26503333D01*
X55038571Y-26503333D01*
X54943333Y-26550952D01*
X54895714Y-26598571D01*
X54848095Y-26693810D01*
X54848095Y-26931905D01*
X54895714Y-27027143D01*
X54943333Y-27074762D01*
X55038571Y-27122381D01*
X55324286Y-27122381D01*
X55419524Y-27074762D01*
X55467143Y-27027143D01*
X54419524Y-27122381D02*
X54419524Y-26122381D01*
X53848095Y-27122381D01*
X53848095Y-26122381D01*
X47815333Y-36282381D02*
X47482000Y-37282381D01*
X47148666Y-36282381D01*
X46243904Y-37187143D02*
X46291523Y-37234762D01*
X46434380Y-37282381D01*
X46529618Y-37282381D01*
X46672476Y-37234762D01*
X46767714Y-37139524D01*
X46815333Y-37044286D01*
X46862952Y-36853810D01*
X46862952Y-36710952D01*
X46815333Y-36520476D01*
X46767714Y-36425238D01*
X46672476Y-36330000D01*
X46529618Y-36282381D01*
X46434380Y-36282381D01*
X46291523Y-36330000D01*
X46243904Y-36377619D01*
X45243904Y-37187143D02*
X45291523Y-37234762D01*
X45434380Y-37282381D01*
X45529618Y-37282381D01*
X45672476Y-37234762D01*
X45767714Y-37139524D01*
X45815333Y-37044286D01*
X45862952Y-36853810D01*
X45862952Y-36710952D01*
X45815333Y-36520476D01*
X45767714Y-36425238D01*
X45672476Y-36330000D01*
X45529618Y-36282381D01*
X45434380Y-36282381D01*
X45291523Y-36330000D01*
X45243904Y-36377619D01*
X47243904Y-33790000D02*
X47339142Y-33742381D01*
X47481999Y-33742381D01*
X47624857Y-33790000D01*
X47720095Y-33885238D01*
X47767714Y-33980476D01*
X47815333Y-34170952D01*
X47815333Y-34313810D01*
X47767714Y-34504286D01*
X47720095Y-34599524D01*
X47624857Y-34694762D01*
X47481999Y-34742381D01*
X47386761Y-34742381D01*
X47243904Y-34694762D01*
X47196285Y-34647143D01*
X47196285Y-34313810D01*
X47386761Y-34313810D01*
X46767714Y-34742381D02*
X46767714Y-33742381D01*
X46196285Y-34742381D01*
X46196285Y-33742381D01*
X45720095Y-34742381D02*
X45720095Y-33742381D01*
X45482000Y-33742381D01*
X45339142Y-33790000D01*
X45243904Y-33885238D01*
X45196285Y-33980476D01*
X45148666Y-34170952D01*
X45148666Y-34313810D01*
X45196285Y-34504286D01*
X45243904Y-34599524D01*
X45339142Y-34694762D01*
X45482000Y-34742381D01*
X45720095Y-34742381D01*
X47799524Y-99877619D02*
X47751905Y-99830000D01*
X47656667Y-99782381D01*
X47418571Y-99782381D01*
X47323333Y-99830000D01*
X47275714Y-99877619D01*
X47228095Y-99972857D01*
X47228095Y-100068095D01*
X47275714Y-100210952D01*
X47847143Y-100782381D01*
X47228095Y-100782381D01*
X46799524Y-100782381D02*
X46799524Y-99782381D01*
X46228095Y-100782381D01*
X46228095Y-99782381D01*
X47775714Y-97337619D02*
X47728095Y-97290000D01*
X47632857Y-97242381D01*
X47394761Y-97242381D01*
X47299523Y-97290000D01*
X47251904Y-97337619D01*
X47204285Y-97432857D01*
X47204285Y-97528095D01*
X47251904Y-97670952D01*
X47823333Y-98242381D01*
X47204285Y-98242381D01*
X46775714Y-98242381D02*
X46775714Y-97242381D01*
X46394761Y-97242381D01*
X46299523Y-97290000D01*
X46251904Y-97337619D01*
X46204285Y-97432857D01*
X46204285Y-97575714D01*
X46251904Y-97670952D01*
X46299523Y-97718571D01*
X46394761Y-97766190D01*
X46775714Y-97766190D01*
X47228095Y-95702381D02*
X47799524Y-95702381D01*
X47513810Y-95702381D02*
X47513810Y-94702381D01*
X47609048Y-94845238D01*
X47704286Y-94940476D01*
X47799524Y-94988095D01*
X46799524Y-95702381D02*
X46799524Y-94702381D01*
X46228095Y-95702381D01*
X46228095Y-94702381D01*
X47204285Y-93162381D02*
X47775714Y-93162381D01*
X47490000Y-93162381D02*
X47490000Y-92162381D01*
X47585238Y-92305238D01*
X47680476Y-92400476D01*
X47775714Y-92448095D01*
X46775714Y-93162381D02*
X46775714Y-92162381D01*
X46394761Y-92162381D01*
X46299523Y-92210000D01*
X46251904Y-92257619D01*
X46204285Y-92352857D01*
X46204285Y-92495714D01*
X46251904Y-92590952D01*
X46299523Y-92638571D01*
X46394761Y-92686190D01*
X46775714Y-92686190D01*
X54943333Y-100115714D02*
X54943333Y-100782381D01*
X55181429Y-99734762D02*
X55419524Y-100449048D01*
X54800476Y-100449048D01*
X54419524Y-100782381D02*
X54419524Y-99782381D01*
X53848095Y-100782381D01*
X53848095Y-99782381D01*
X54919523Y-97575714D02*
X54919523Y-98242381D01*
X55157619Y-97194762D02*
X55395714Y-97909048D01*
X54776666Y-97909048D01*
X54395714Y-98242381D02*
X54395714Y-97242381D01*
X54014761Y-97242381D01*
X53919523Y-97290000D01*
X53871904Y-97337619D01*
X53824285Y-97432857D01*
X53824285Y-97575714D01*
X53871904Y-97670952D01*
X53919523Y-97718571D01*
X54014761Y-97766190D01*
X54395714Y-97766190D01*
X55443333Y-92162381D02*
X54824285Y-92162381D01*
X55157619Y-92543333D01*
X55014761Y-92543333D01*
X54919523Y-92590952D01*
X54871904Y-92638571D01*
X54824285Y-92733810D01*
X54824285Y-92971905D01*
X54871904Y-93067143D01*
X54919523Y-93114762D01*
X55014761Y-93162381D01*
X55300476Y-93162381D01*
X55395714Y-93114762D01*
X55443333Y-93067143D01*
X54395714Y-93162381D02*
X54395714Y-92162381D01*
X54014761Y-92162381D01*
X53919523Y-92210000D01*
X53871904Y-92257619D01*
X53824285Y-92352857D01*
X53824285Y-92495714D01*
X53871904Y-92590952D01*
X53919523Y-92638571D01*
X54014761Y-92686190D01*
X54395714Y-92686190D01*
X55467143Y-94702381D02*
X54848095Y-94702381D01*
X55181429Y-95083333D01*
X55038571Y-95083333D01*
X54943333Y-95130952D01*
X54895714Y-95178571D01*
X54848095Y-95273810D01*
X54848095Y-95511905D01*
X54895714Y-95607143D01*
X54943333Y-95654762D01*
X55038571Y-95702381D01*
X55324286Y-95702381D01*
X55419524Y-95654762D01*
X55467143Y-95607143D01*
X54419524Y-95702381D02*
X54419524Y-94702381D01*
X53848095Y-95702381D01*
X53848095Y-94702381D01*
X47815333Y-104862381D02*
X47482000Y-105862381D01*
X47148666Y-104862381D01*
X46243904Y-105767143D02*
X46291523Y-105814762D01*
X46434380Y-105862381D01*
X46529618Y-105862381D01*
X46672476Y-105814762D01*
X46767714Y-105719524D01*
X46815333Y-105624286D01*
X46862952Y-105433810D01*
X46862952Y-105290952D01*
X46815333Y-105100476D01*
X46767714Y-105005238D01*
X46672476Y-104910000D01*
X46529618Y-104862381D01*
X46434380Y-104862381D01*
X46291523Y-104910000D01*
X46243904Y-104957619D01*
X45243904Y-105767143D02*
X45291523Y-105814762D01*
X45434380Y-105862381D01*
X45529618Y-105862381D01*
X45672476Y-105814762D01*
X45767714Y-105719524D01*
X45815333Y-105624286D01*
X45862952Y-105433810D01*
X45862952Y-105290952D01*
X45815333Y-105100476D01*
X45767714Y-105005238D01*
X45672476Y-104910000D01*
X45529618Y-104862381D01*
X45434380Y-104862381D01*
X45291523Y-104910000D01*
X45243904Y-104957619D01*
X47243904Y-102370000D02*
X47339142Y-102322381D01*
X47481999Y-102322381D01*
X47624857Y-102370000D01*
X47720095Y-102465238D01*
X47767714Y-102560476D01*
X47815333Y-102750952D01*
X47815333Y-102893810D01*
X47767714Y-103084286D01*
X47720095Y-103179524D01*
X47624857Y-103274762D01*
X47481999Y-103322381D01*
X47386761Y-103322381D01*
X47243904Y-103274762D01*
X47196285Y-103227143D01*
X47196285Y-102893810D01*
X47386761Y-102893810D01*
X46767714Y-103322381D02*
X46767714Y-102322381D01*
X46196285Y-103322381D01*
X46196285Y-102322381D01*
X45720095Y-103322381D02*
X45720095Y-102322381D01*
X45482000Y-102322381D01*
X45339142Y-102370000D01*
X45243904Y-102465238D01*
X45196285Y-102560476D01*
X45148666Y-102750952D01*
X45148666Y-102893810D01*
X45196285Y-103084286D01*
X45243904Y-103179524D01*
X45339142Y-103274762D01*
X45482000Y-103322381D01*
X45720095Y-103322381D01*
X47799524Y-54157619D02*
X47751905Y-54110000D01*
X47656667Y-54062381D01*
X47418571Y-54062381D01*
X47323333Y-54110000D01*
X47275714Y-54157619D01*
X47228095Y-54252857D01*
X47228095Y-54348095D01*
X47275714Y-54490952D01*
X47847143Y-55062381D01*
X47228095Y-55062381D01*
X46799524Y-55062381D02*
X46799524Y-54062381D01*
X46228095Y-55062381D01*
X46228095Y-54062381D01*
X47775714Y-51617619D02*
X47728095Y-51570000D01*
X47632857Y-51522381D01*
X47394761Y-51522381D01*
X47299523Y-51570000D01*
X47251904Y-51617619D01*
X47204285Y-51712857D01*
X47204285Y-51808095D01*
X47251904Y-51950952D01*
X47823333Y-52522381D01*
X47204285Y-52522381D01*
X46775714Y-52522381D02*
X46775714Y-51522381D01*
X46394761Y-51522381D01*
X46299523Y-51570000D01*
X46251904Y-51617619D01*
X46204285Y-51712857D01*
X46204285Y-51855714D01*
X46251904Y-51950952D01*
X46299523Y-51998571D01*
X46394761Y-52046190D01*
X46775714Y-52046190D01*
X47228095Y-49982381D02*
X47799524Y-49982381D01*
X47513810Y-49982381D02*
X47513810Y-48982381D01*
X47609048Y-49125238D01*
X47704286Y-49220476D01*
X47799524Y-49268095D01*
X46799524Y-49982381D02*
X46799524Y-48982381D01*
X46228095Y-49982381D01*
X46228095Y-48982381D01*
X47204285Y-47442381D02*
X47775714Y-47442381D01*
X47490000Y-47442381D02*
X47490000Y-46442381D01*
X47585238Y-46585238D01*
X47680476Y-46680476D01*
X47775714Y-46728095D01*
X46775714Y-47442381D02*
X46775714Y-46442381D01*
X46394761Y-46442381D01*
X46299523Y-46490000D01*
X46251904Y-46537619D01*
X46204285Y-46632857D01*
X46204285Y-46775714D01*
X46251904Y-46870952D01*
X46299523Y-46918571D01*
X46394761Y-46966190D01*
X46775714Y-46966190D01*
X54943333Y-54395714D02*
X54943333Y-55062381D01*
X55181429Y-54014762D02*
X55419524Y-54729048D01*
X54800476Y-54729048D01*
X54419524Y-55062381D02*
X54419524Y-54062381D01*
X53848095Y-55062381D01*
X53848095Y-54062381D01*
X54919523Y-51855714D02*
X54919523Y-52522381D01*
X55157619Y-51474762D02*
X55395714Y-52189048D01*
X54776666Y-52189048D01*
X54395714Y-52522381D02*
X54395714Y-51522381D01*
X54014761Y-51522381D01*
X53919523Y-51570000D01*
X53871904Y-51617619D01*
X53824285Y-51712857D01*
X53824285Y-51855714D01*
X53871904Y-51950952D01*
X53919523Y-51998571D01*
X54014761Y-52046190D01*
X54395714Y-52046190D01*
X55443333Y-46442381D02*
X54824285Y-46442381D01*
X55157619Y-46823333D01*
X55014761Y-46823333D01*
X54919523Y-46870952D01*
X54871904Y-46918571D01*
X54824285Y-47013810D01*
X54824285Y-47251905D01*
X54871904Y-47347143D01*
X54919523Y-47394762D01*
X55014761Y-47442381D01*
X55300476Y-47442381D01*
X55395714Y-47394762D01*
X55443333Y-47347143D01*
X54395714Y-47442381D02*
X54395714Y-46442381D01*
X54014761Y-46442381D01*
X53919523Y-46490000D01*
X53871904Y-46537619D01*
X53824285Y-46632857D01*
X53824285Y-46775714D01*
X53871904Y-46870952D01*
X53919523Y-46918571D01*
X54014761Y-46966190D01*
X54395714Y-46966190D01*
X55467143Y-48982381D02*
X54848095Y-48982381D01*
X55181429Y-49363333D01*
X55038571Y-49363333D01*
X54943333Y-49410952D01*
X54895714Y-49458571D01*
X54848095Y-49553810D01*
X54848095Y-49791905D01*
X54895714Y-49887143D01*
X54943333Y-49934762D01*
X55038571Y-49982381D01*
X55324286Y-49982381D01*
X55419524Y-49934762D01*
X55467143Y-49887143D01*
X54419524Y-49982381D02*
X54419524Y-48982381D01*
X53848095Y-49982381D01*
X53848095Y-48982381D01*
X47815333Y-59142381D02*
X47482000Y-60142381D01*
X47148666Y-59142381D01*
X46243904Y-60047143D02*
X46291523Y-60094762D01*
X46434380Y-60142381D01*
X46529618Y-60142381D01*
X46672476Y-60094762D01*
X46767714Y-59999524D01*
X46815333Y-59904286D01*
X46862952Y-59713810D01*
X46862952Y-59570952D01*
X46815333Y-59380476D01*
X46767714Y-59285238D01*
X46672476Y-59190000D01*
X46529618Y-59142381D01*
X46434380Y-59142381D01*
X46291523Y-59190000D01*
X46243904Y-59237619D01*
X45243904Y-60047143D02*
X45291523Y-60094762D01*
X45434380Y-60142381D01*
X45529618Y-60142381D01*
X45672476Y-60094762D01*
X45767714Y-59999524D01*
X45815333Y-59904286D01*
X45862952Y-59713810D01*
X45862952Y-59570952D01*
X45815333Y-59380476D01*
X45767714Y-59285238D01*
X45672476Y-59190000D01*
X45529618Y-59142381D01*
X45434380Y-59142381D01*
X45291523Y-59190000D01*
X45243904Y-59237619D01*
X47243904Y-56650000D02*
X47339142Y-56602381D01*
X47481999Y-56602381D01*
X47624857Y-56650000D01*
X47720095Y-56745238D01*
X47767714Y-56840476D01*
X47815333Y-57030952D01*
X47815333Y-57173810D01*
X47767714Y-57364286D01*
X47720095Y-57459524D01*
X47624857Y-57554762D01*
X47481999Y-57602381D01*
X47386761Y-57602381D01*
X47243904Y-57554762D01*
X47196285Y-57507143D01*
X47196285Y-57173810D01*
X47386761Y-57173810D01*
X46767714Y-57602381D02*
X46767714Y-56602381D01*
X46196285Y-57602381D01*
X46196285Y-56602381D01*
X45720095Y-57602381D02*
X45720095Y-56602381D01*
X45482000Y-56602381D01*
X45339142Y-56650000D01*
X45243904Y-56745238D01*
X45196285Y-56840476D01*
X45148666Y-57030952D01*
X45148666Y-57173810D01*
X45196285Y-57364286D01*
X45243904Y-57459524D01*
X45339142Y-57554762D01*
X45482000Y-57602381D01*
X45720095Y-57602381D01*
X47799524Y-77017619D02*
X47751905Y-76970000D01*
X47656667Y-76922381D01*
X47418571Y-76922381D01*
X47323333Y-76970000D01*
X47275714Y-77017619D01*
X47228095Y-77112857D01*
X47228095Y-77208095D01*
X47275714Y-77350952D01*
X47847143Y-77922381D01*
X47228095Y-77922381D01*
X46799524Y-77922381D02*
X46799524Y-76922381D01*
X46228095Y-77922381D01*
X46228095Y-76922381D01*
X47775714Y-74477619D02*
X47728095Y-74430000D01*
X47632857Y-74382381D01*
X47394761Y-74382381D01*
X47299523Y-74430000D01*
X47251904Y-74477619D01*
X47204285Y-74572857D01*
X47204285Y-74668095D01*
X47251904Y-74810952D01*
X47823333Y-75382381D01*
X47204285Y-75382381D01*
X46775714Y-75382381D02*
X46775714Y-74382381D01*
X46394761Y-74382381D01*
X46299523Y-74430000D01*
X46251904Y-74477619D01*
X46204285Y-74572857D01*
X46204285Y-74715714D01*
X46251904Y-74810952D01*
X46299523Y-74858571D01*
X46394761Y-74906190D01*
X46775714Y-74906190D01*
X47228095Y-72842381D02*
X47799524Y-72842381D01*
X47513810Y-72842381D02*
X47513810Y-71842381D01*
X47609048Y-71985238D01*
X47704286Y-72080476D01*
X47799524Y-72128095D01*
X46799524Y-72842381D02*
X46799524Y-71842381D01*
X46228095Y-72842381D01*
X46228095Y-71842381D01*
X47204285Y-70302381D02*
X47775714Y-70302381D01*
X47490000Y-70302381D02*
X47490000Y-69302381D01*
X47585238Y-69445238D01*
X47680476Y-69540476D01*
X47775714Y-69588095D01*
X46775714Y-70302381D02*
X46775714Y-69302381D01*
X46394761Y-69302381D01*
X46299523Y-69350000D01*
X46251904Y-69397619D01*
X46204285Y-69492857D01*
X46204285Y-69635714D01*
X46251904Y-69730952D01*
X46299523Y-69778571D01*
X46394761Y-69826190D01*
X46775714Y-69826190D01*
X54943333Y-77255714D02*
X54943333Y-77922381D01*
X55181429Y-76874762D02*
X55419524Y-77589048D01*
X54800476Y-77589048D01*
X54419524Y-77922381D02*
X54419524Y-76922381D01*
X53848095Y-77922381D01*
X53848095Y-76922381D01*
X54919523Y-74715714D02*
X54919523Y-75382381D01*
X55157619Y-74334762D02*
X55395714Y-75049048D01*
X54776666Y-75049048D01*
X54395714Y-75382381D02*
X54395714Y-74382381D01*
X54014761Y-74382381D01*
X53919523Y-74430000D01*
X53871904Y-74477619D01*
X53824285Y-74572857D01*
X53824285Y-74715714D01*
X53871904Y-74810952D01*
X53919523Y-74858571D01*
X54014761Y-74906190D01*
X54395714Y-74906190D01*
X55443333Y-69302381D02*
X54824285Y-69302381D01*
X55157619Y-69683333D01*
X55014761Y-69683333D01*
X54919523Y-69730952D01*
X54871904Y-69778571D01*
X54824285Y-69873810D01*
X54824285Y-70111905D01*
X54871904Y-70207143D01*
X54919523Y-70254762D01*
X55014761Y-70302381D01*
X55300476Y-70302381D01*
X55395714Y-70254762D01*
X55443333Y-70207143D01*
X54395714Y-70302381D02*
X54395714Y-69302381D01*
X54014761Y-69302381D01*
X53919523Y-69350000D01*
X53871904Y-69397619D01*
X53824285Y-69492857D01*
X53824285Y-69635714D01*
X53871904Y-69730952D01*
X53919523Y-69778571D01*
X54014761Y-69826190D01*
X54395714Y-69826190D01*
X55467143Y-71842381D02*
X54848095Y-71842381D01*
X55181429Y-72223333D01*
X55038571Y-72223333D01*
X54943333Y-72270952D01*
X54895714Y-72318571D01*
X54848095Y-72413810D01*
X54848095Y-72651905D01*
X54895714Y-72747143D01*
X54943333Y-72794762D01*
X55038571Y-72842381D01*
X55324286Y-72842381D01*
X55419524Y-72794762D01*
X55467143Y-72747143D01*
X54419524Y-72842381D02*
X54419524Y-71842381D01*
X53848095Y-72842381D01*
X53848095Y-71842381D01*
X47815333Y-82002381D02*
X47482000Y-83002381D01*
X47148666Y-82002381D01*
X46243904Y-82907143D02*
X46291523Y-82954762D01*
X46434380Y-83002381D01*
X46529618Y-83002381D01*
X46672476Y-82954762D01*
X46767714Y-82859524D01*
X46815333Y-82764286D01*
X46862952Y-82573810D01*
X46862952Y-82430952D01*
X46815333Y-82240476D01*
X46767714Y-82145238D01*
X46672476Y-82050000D01*
X46529618Y-82002381D01*
X46434380Y-82002381D01*
X46291523Y-82050000D01*
X46243904Y-82097619D01*
X45243904Y-82907143D02*
X45291523Y-82954762D01*
X45434380Y-83002381D01*
X45529618Y-83002381D01*
X45672476Y-82954762D01*
X45767714Y-82859524D01*
X45815333Y-82764286D01*
X45862952Y-82573810D01*
X45862952Y-82430952D01*
X45815333Y-82240476D01*
X45767714Y-82145238D01*
X45672476Y-82050000D01*
X45529618Y-82002381D01*
X45434380Y-82002381D01*
X45291523Y-82050000D01*
X45243904Y-82097619D01*
X47243904Y-79510000D02*
X47339142Y-79462381D01*
X47481999Y-79462381D01*
X47624857Y-79510000D01*
X47720095Y-79605238D01*
X47767714Y-79700476D01*
X47815333Y-79890952D01*
X47815333Y-80033810D01*
X47767714Y-80224286D01*
X47720095Y-80319524D01*
X47624857Y-80414762D01*
X47481999Y-80462381D01*
X47386761Y-80462381D01*
X47243904Y-80414762D01*
X47196285Y-80367143D01*
X47196285Y-80033810D01*
X47386761Y-80033810D01*
X46767714Y-80462381D02*
X46767714Y-79462381D01*
X46196285Y-80462381D01*
X46196285Y-79462381D01*
X45720095Y-80462381D02*
X45720095Y-79462381D01*
X45482000Y-79462381D01*
X45339142Y-79510000D01*
X45243904Y-79605238D01*
X45196285Y-79700476D01*
X45148666Y-79890952D01*
X45148666Y-80033810D01*
X45196285Y-80224286D01*
X45243904Y-80319524D01*
X45339142Y-80414762D01*
X45482000Y-80462381D01*
X45720095Y-80462381D01*
X37163333Y-31535714D02*
X37163333Y-32202381D01*
X37401429Y-31154762D02*
X37639524Y-31869048D01*
X37020476Y-31869048D01*
X36639524Y-32202381D02*
X36639524Y-31202381D01*
X36068095Y-32202381D01*
X36068095Y-31202381D01*
X37687143Y-28662381D02*
X37068095Y-28662381D01*
X37401429Y-29043333D01*
X37258571Y-29043333D01*
X37163333Y-29090952D01*
X37115714Y-29138571D01*
X37068095Y-29233810D01*
X37068095Y-29471905D01*
X37115714Y-29567143D01*
X37163333Y-29614762D01*
X37258571Y-29662381D01*
X37544286Y-29662381D01*
X37639524Y-29614762D01*
X37687143Y-29567143D01*
X36639524Y-29662381D02*
X36639524Y-28662381D01*
X36068095Y-29662381D01*
X36068095Y-28662381D01*
X37639524Y-26217619D02*
X37591905Y-26170000D01*
X37496667Y-26122381D01*
X37258571Y-26122381D01*
X37163333Y-26170000D01*
X37115714Y-26217619D01*
X37068095Y-26312857D01*
X37068095Y-26408095D01*
X37115714Y-26550952D01*
X37687143Y-27122381D01*
X37068095Y-27122381D01*
X36639524Y-27122381D02*
X36639524Y-26122381D01*
X36068095Y-27122381D01*
X36068095Y-26122381D01*
X37068095Y-24582381D02*
X37639524Y-24582381D01*
X37353810Y-24582381D02*
X37353810Y-23582381D01*
X37449048Y-23725238D01*
X37544286Y-23820476D01*
X37639524Y-23868095D01*
X36639524Y-24582381D02*
X36639524Y-23582381D01*
X36068095Y-24582381D01*
X36068095Y-23582381D01*
X44759523Y-31535714D02*
X44759523Y-32202381D01*
X44997619Y-31154762D02*
X45235714Y-31869048D01*
X44616666Y-31869048D01*
X44235714Y-32202381D02*
X44235714Y-31202381D01*
X43854761Y-31202381D01*
X43759523Y-31250000D01*
X43711904Y-31297619D01*
X43664285Y-31392857D01*
X43664285Y-31535714D01*
X43711904Y-31630952D01*
X43759523Y-31678571D01*
X43854761Y-31726190D01*
X44235714Y-31726190D01*
X45283333Y-28662381D02*
X44664285Y-28662381D01*
X44997619Y-29043333D01*
X44854761Y-29043333D01*
X44759523Y-29090952D01*
X44711904Y-29138571D01*
X44664285Y-29233810D01*
X44664285Y-29471905D01*
X44711904Y-29567143D01*
X44759523Y-29614762D01*
X44854761Y-29662381D01*
X45140476Y-29662381D01*
X45235714Y-29614762D01*
X45283333Y-29567143D01*
X44235714Y-29662381D02*
X44235714Y-28662381D01*
X43854761Y-28662381D01*
X43759523Y-28710000D01*
X43711904Y-28757619D01*
X43664285Y-28852857D01*
X43664285Y-28995714D01*
X43711904Y-29090952D01*
X43759523Y-29138571D01*
X43854761Y-29186190D01*
X44235714Y-29186190D01*
X45235714Y-26217619D02*
X45188095Y-26170000D01*
X45092857Y-26122381D01*
X44854761Y-26122381D01*
X44759523Y-26170000D01*
X44711904Y-26217619D01*
X44664285Y-26312857D01*
X44664285Y-26408095D01*
X44711904Y-26550952D01*
X45283333Y-27122381D01*
X44664285Y-27122381D01*
X44235714Y-27122381D02*
X44235714Y-26122381D01*
X43854761Y-26122381D01*
X43759523Y-26170000D01*
X43711904Y-26217619D01*
X43664285Y-26312857D01*
X43664285Y-26455714D01*
X43711904Y-26550952D01*
X43759523Y-26598571D01*
X43854761Y-26646190D01*
X44235714Y-26646190D01*
X39822381Y-38576286D02*
X38822381Y-38576286D01*
X39822381Y-39147715D01*
X38822381Y-39147715D01*
X42362381Y-38600095D02*
X41362381Y-38600095D01*
X41362381Y-38981048D01*
X41410000Y-39076286D01*
X41457619Y-39123905D01*
X41552857Y-39171524D01*
X41695714Y-39171524D01*
X41790952Y-39123905D01*
X41838571Y-39076286D01*
X41886190Y-38981048D01*
X41886190Y-38600095D01*
X44664285Y-24582381D02*
X45235714Y-24582381D01*
X44950000Y-24582381D02*
X44950000Y-23582381D01*
X45045238Y-23725238D01*
X45140476Y-23820476D01*
X45235714Y-23868095D01*
X44235714Y-24582381D02*
X44235714Y-23582381D01*
X43854761Y-23582381D01*
X43759523Y-23630000D01*
X43711904Y-23677619D01*
X43664285Y-23772857D01*
X43664285Y-23915714D01*
X43711904Y-24010952D01*
X43759523Y-24058571D01*
X43854761Y-24106190D01*
X44235714Y-24106190D01*
X37163333Y-52224014D02*
X37163333Y-52890681D01*
X37401429Y-51843062D02*
X37639524Y-52557348D01*
X37020476Y-52557348D01*
X36639524Y-52890681D02*
X36639524Y-51890681D01*
X36068095Y-52890681D01*
X36068095Y-51890681D01*
X37687143Y-49350681D02*
X37068095Y-49350681D01*
X37401429Y-49731633D01*
X37258571Y-49731633D01*
X37163333Y-49779252D01*
X37115714Y-49826871D01*
X37068095Y-49922110D01*
X37068095Y-50160205D01*
X37115714Y-50255443D01*
X37163333Y-50303062D01*
X37258571Y-50350681D01*
X37544286Y-50350681D01*
X37639524Y-50303062D01*
X37687143Y-50255443D01*
X36639524Y-50350681D02*
X36639524Y-49350681D01*
X36068095Y-50350681D01*
X36068095Y-49350681D01*
X37639524Y-46905919D02*
X37591905Y-46858300D01*
X37496667Y-46810681D01*
X37258571Y-46810681D01*
X37163333Y-46858300D01*
X37115714Y-46905919D01*
X37068095Y-47001157D01*
X37068095Y-47096395D01*
X37115714Y-47239252D01*
X37687143Y-47810681D01*
X37068095Y-47810681D01*
X36639524Y-47810681D02*
X36639524Y-46810681D01*
X36068095Y-47810681D01*
X36068095Y-46810681D01*
X37068095Y-45270681D02*
X37639524Y-45270681D01*
X37353810Y-45270681D02*
X37353810Y-44270681D01*
X37449048Y-44413538D01*
X37544286Y-44508776D01*
X37639524Y-44556395D01*
X36639524Y-45270681D02*
X36639524Y-44270681D01*
X36068095Y-45270681D01*
X36068095Y-44270681D01*
X44759523Y-52224014D02*
X44759523Y-52890681D01*
X44997619Y-51843062D02*
X45235714Y-52557348D01*
X44616666Y-52557348D01*
X44235714Y-52890681D02*
X44235714Y-51890681D01*
X43854761Y-51890681D01*
X43759523Y-51938300D01*
X43711904Y-51985919D01*
X43664285Y-52081157D01*
X43664285Y-52224014D01*
X43711904Y-52319252D01*
X43759523Y-52366871D01*
X43854761Y-52414490D01*
X44235714Y-52414490D01*
X45283333Y-49350681D02*
X44664285Y-49350681D01*
X44997619Y-49731633D01*
X44854761Y-49731633D01*
X44759523Y-49779252D01*
X44711904Y-49826871D01*
X44664285Y-49922110D01*
X44664285Y-50160205D01*
X44711904Y-50255443D01*
X44759523Y-50303062D01*
X44854761Y-50350681D01*
X45140476Y-50350681D01*
X45235714Y-50303062D01*
X45283333Y-50255443D01*
X44235714Y-50350681D02*
X44235714Y-49350681D01*
X43854761Y-49350681D01*
X43759523Y-49398300D01*
X43711904Y-49445919D01*
X43664285Y-49541157D01*
X43664285Y-49684014D01*
X43711904Y-49779252D01*
X43759523Y-49826871D01*
X43854761Y-49874490D01*
X44235714Y-49874490D01*
X45235714Y-46905919D02*
X45188095Y-46858300D01*
X45092857Y-46810681D01*
X44854761Y-46810681D01*
X44759523Y-46858300D01*
X44711904Y-46905919D01*
X44664285Y-47001157D01*
X44664285Y-47096395D01*
X44711904Y-47239252D01*
X45283333Y-47810681D01*
X44664285Y-47810681D01*
X44235714Y-47810681D02*
X44235714Y-46810681D01*
X43854761Y-46810681D01*
X43759523Y-46858300D01*
X43711904Y-46905919D01*
X43664285Y-47001157D01*
X43664285Y-47144014D01*
X43711904Y-47239252D01*
X43759523Y-47286871D01*
X43854761Y-47334490D01*
X44235714Y-47334490D01*
X39822381Y-59264586D02*
X38822381Y-59264586D01*
X39822381Y-59836015D01*
X38822381Y-59836015D01*
X42362381Y-59288395D02*
X41362381Y-59288395D01*
X41362381Y-59669348D01*
X41410000Y-59764586D01*
X41457619Y-59812205D01*
X41552857Y-59859824D01*
X41695714Y-59859824D01*
X41790952Y-59812205D01*
X41838571Y-59764586D01*
X41886190Y-59669348D01*
X41886190Y-59288395D01*
X44664285Y-45270681D02*
X45235714Y-45270681D01*
X44950000Y-45270681D02*
X44950000Y-44270681D01*
X45045238Y-44413538D01*
X45140476Y-44508776D01*
X45235714Y-44556395D01*
X44235714Y-45270681D02*
X44235714Y-44270681D01*
X43854761Y-44270681D01*
X43759523Y-44318300D01*
X43711904Y-44365919D01*
X43664285Y-44461157D01*
X43664285Y-44604014D01*
X43711904Y-44699252D01*
X43759523Y-44746871D01*
X43854761Y-44794490D01*
X44235714Y-44794490D01*
X37163333Y-72912314D02*
X37163333Y-73578981D01*
X37401429Y-72531362D02*
X37639524Y-73245648D01*
X37020476Y-73245648D01*
X36639524Y-73578981D02*
X36639524Y-72578981D01*
X36068095Y-73578981D01*
X36068095Y-72578981D01*
X37687143Y-70038981D02*
X37068095Y-70038981D01*
X37401429Y-70419933D01*
X37258571Y-70419933D01*
X37163333Y-70467552D01*
X37115714Y-70515171D01*
X37068095Y-70610410D01*
X37068095Y-70848505D01*
X37115714Y-70943743D01*
X37163333Y-70991362D01*
X37258571Y-71038981D01*
X37544286Y-71038981D01*
X37639524Y-70991362D01*
X37687143Y-70943743D01*
X36639524Y-71038981D02*
X36639524Y-70038981D01*
X36068095Y-71038981D01*
X36068095Y-70038981D01*
X37639524Y-67594219D02*
X37591905Y-67546600D01*
X37496667Y-67498981D01*
X37258571Y-67498981D01*
X37163333Y-67546600D01*
X37115714Y-67594219D01*
X37068095Y-67689457D01*
X37068095Y-67784695D01*
X37115714Y-67927552D01*
X37687143Y-68498981D01*
X37068095Y-68498981D01*
X36639524Y-68498981D02*
X36639524Y-67498981D01*
X36068095Y-68498981D01*
X36068095Y-67498981D01*
X37068095Y-65958981D02*
X37639524Y-65958981D01*
X37353810Y-65958981D02*
X37353810Y-64958981D01*
X37449048Y-65101838D01*
X37544286Y-65197076D01*
X37639524Y-65244695D01*
X36639524Y-65958981D02*
X36639524Y-64958981D01*
X36068095Y-65958981D01*
X36068095Y-64958981D01*
X44759523Y-72912314D02*
X44759523Y-73578981D01*
X44997619Y-72531362D02*
X45235714Y-73245648D01*
X44616666Y-73245648D01*
X44235714Y-73578981D02*
X44235714Y-72578981D01*
X43854761Y-72578981D01*
X43759523Y-72626600D01*
X43711904Y-72674219D01*
X43664285Y-72769457D01*
X43664285Y-72912314D01*
X43711904Y-73007552D01*
X43759523Y-73055171D01*
X43854761Y-73102790D01*
X44235714Y-73102790D01*
X45283333Y-70038981D02*
X44664285Y-70038981D01*
X44997619Y-70419933D01*
X44854761Y-70419933D01*
X44759523Y-70467552D01*
X44711904Y-70515171D01*
X44664285Y-70610410D01*
X44664285Y-70848505D01*
X44711904Y-70943743D01*
X44759523Y-70991362D01*
X44854761Y-71038981D01*
X45140476Y-71038981D01*
X45235714Y-70991362D01*
X45283333Y-70943743D01*
X44235714Y-71038981D02*
X44235714Y-70038981D01*
X43854761Y-70038981D01*
X43759523Y-70086600D01*
X43711904Y-70134219D01*
X43664285Y-70229457D01*
X43664285Y-70372314D01*
X43711904Y-70467552D01*
X43759523Y-70515171D01*
X43854761Y-70562790D01*
X44235714Y-70562790D01*
X45235714Y-67594219D02*
X45188095Y-67546600D01*
X45092857Y-67498981D01*
X44854761Y-67498981D01*
X44759523Y-67546600D01*
X44711904Y-67594219D01*
X44664285Y-67689457D01*
X44664285Y-67784695D01*
X44711904Y-67927552D01*
X45283333Y-68498981D01*
X44664285Y-68498981D01*
X44235714Y-68498981D02*
X44235714Y-67498981D01*
X43854761Y-67498981D01*
X43759523Y-67546600D01*
X43711904Y-67594219D01*
X43664285Y-67689457D01*
X43664285Y-67832314D01*
X43711904Y-67927552D01*
X43759523Y-67975171D01*
X43854761Y-68022790D01*
X44235714Y-68022790D01*
X39822381Y-79952886D02*
X38822381Y-79952886D01*
X39822381Y-80524315D01*
X38822381Y-80524315D01*
X42362381Y-79976695D02*
X41362381Y-79976695D01*
X41362381Y-80357648D01*
X41410000Y-80452886D01*
X41457619Y-80500505D01*
X41552857Y-80548124D01*
X41695714Y-80548124D01*
X41790952Y-80500505D01*
X41838571Y-80452886D01*
X41886190Y-80357648D01*
X41886190Y-79976695D01*
X44664285Y-65958981D02*
X45235714Y-65958981D01*
X44950000Y-65958981D02*
X44950000Y-64958981D01*
X45045238Y-65101838D01*
X45140476Y-65197076D01*
X45235714Y-65244695D01*
X44235714Y-65958981D02*
X44235714Y-64958981D01*
X43854761Y-64958981D01*
X43759523Y-65006600D01*
X43711904Y-65054219D01*
X43664285Y-65149457D01*
X43664285Y-65292314D01*
X43711904Y-65387552D01*
X43759523Y-65435171D01*
X43854761Y-65482790D01*
X44235714Y-65482790D01*
X43696000Y-74904696D02*
X43648381Y-74809458D01*
X43648381Y-74666601D01*
X43696000Y-74523743D01*
X43791238Y-74428505D01*
X43886476Y-74380886D01*
X44076952Y-74333267D01*
X44219810Y-74333267D01*
X44410286Y-74380886D01*
X44505524Y-74428505D01*
X44600762Y-74523743D01*
X44648381Y-74666601D01*
X44648381Y-74761839D01*
X44600762Y-74904696D01*
X44553143Y-74952315D01*
X44219810Y-74952315D01*
X44219810Y-74761839D01*
X44648381Y-75380886D02*
X43648381Y-75380886D01*
X44648381Y-75952315D01*
X43648381Y-75952315D01*
X44648381Y-76428505D02*
X43648381Y-76428505D01*
X43648381Y-76666600D01*
X43696000Y-76809458D01*
X43791238Y-76904696D01*
X43886476Y-76952315D01*
X44076952Y-76999934D01*
X44219810Y-76999934D01*
X44410286Y-76952315D01*
X44505524Y-76904696D01*
X44600762Y-76809458D01*
X44648381Y-76666600D01*
X44648381Y-76428505D01*
X43648381Y-77508267D02*
X44648381Y-77841600D01*
X43648381Y-78174934D01*
X44553143Y-79079696D02*
X44600762Y-79032077D01*
X44648381Y-78889220D01*
X44648381Y-78793982D01*
X44600762Y-78651124D01*
X44505524Y-78555886D01*
X44410286Y-78508267D01*
X44219810Y-78460648D01*
X44076952Y-78460648D01*
X43886476Y-78508267D01*
X43791238Y-78555886D01*
X43696000Y-78651124D01*
X43648381Y-78793982D01*
X43648381Y-78889220D01*
X43696000Y-79032077D01*
X43743619Y-79079696D01*
X44553143Y-80079696D02*
X44600762Y-80032077D01*
X44648381Y-79889220D01*
X44648381Y-79793982D01*
X44600762Y-79651124D01*
X44505524Y-79555886D01*
X44410286Y-79508267D01*
X44219810Y-79460648D01*
X44076952Y-79460648D01*
X43886476Y-79508267D01*
X43791238Y-79555886D01*
X43696000Y-79651124D01*
X43648381Y-79793982D01*
X43648381Y-79889220D01*
X43696000Y-80032077D01*
X43743619Y-80079696D01*
X37163333Y-93600614D02*
X37163333Y-94267281D01*
X37401429Y-93219662D02*
X37639524Y-93933948D01*
X37020476Y-93933948D01*
X36639524Y-94267281D02*
X36639524Y-93267281D01*
X36068095Y-94267281D01*
X36068095Y-93267281D01*
X37687143Y-90727281D02*
X37068095Y-90727281D01*
X37401429Y-91108233D01*
X37258571Y-91108233D01*
X37163333Y-91155852D01*
X37115714Y-91203471D01*
X37068095Y-91298710D01*
X37068095Y-91536805D01*
X37115714Y-91632043D01*
X37163333Y-91679662D01*
X37258571Y-91727281D01*
X37544286Y-91727281D01*
X37639524Y-91679662D01*
X37687143Y-91632043D01*
X36639524Y-91727281D02*
X36639524Y-90727281D01*
X36068095Y-91727281D01*
X36068095Y-90727281D01*
X37639524Y-88282519D02*
X37591905Y-88234900D01*
X37496667Y-88187281D01*
X37258571Y-88187281D01*
X37163333Y-88234900D01*
X37115714Y-88282519D01*
X37068095Y-88377757D01*
X37068095Y-88472995D01*
X37115714Y-88615852D01*
X37687143Y-89187281D01*
X37068095Y-89187281D01*
X36639524Y-89187281D02*
X36639524Y-88187281D01*
X36068095Y-89187281D01*
X36068095Y-88187281D01*
X37068095Y-86647281D02*
X37639524Y-86647281D01*
X37353810Y-86647281D02*
X37353810Y-85647281D01*
X37449048Y-85790138D01*
X37544286Y-85885376D01*
X37639524Y-85932995D01*
X36639524Y-86647281D02*
X36639524Y-85647281D01*
X36068095Y-86647281D01*
X36068095Y-85647281D01*
X44759523Y-93600614D02*
X44759523Y-94267281D01*
X44997619Y-93219662D02*
X45235714Y-93933948D01*
X44616666Y-93933948D01*
X44235714Y-94267281D02*
X44235714Y-93267281D01*
X43854761Y-93267281D01*
X43759523Y-93314900D01*
X43711904Y-93362519D01*
X43664285Y-93457757D01*
X43664285Y-93600614D01*
X43711904Y-93695852D01*
X43759523Y-93743471D01*
X43854761Y-93791090D01*
X44235714Y-93791090D01*
X45283333Y-90727281D02*
X44664285Y-90727281D01*
X44997619Y-91108233D01*
X44854761Y-91108233D01*
X44759523Y-91155852D01*
X44711904Y-91203471D01*
X44664285Y-91298710D01*
X44664285Y-91536805D01*
X44711904Y-91632043D01*
X44759523Y-91679662D01*
X44854761Y-91727281D01*
X45140476Y-91727281D01*
X45235714Y-91679662D01*
X45283333Y-91632043D01*
X44235714Y-91727281D02*
X44235714Y-90727281D01*
X43854761Y-90727281D01*
X43759523Y-90774900D01*
X43711904Y-90822519D01*
X43664285Y-90917757D01*
X43664285Y-91060614D01*
X43711904Y-91155852D01*
X43759523Y-91203471D01*
X43854761Y-91251090D01*
X44235714Y-91251090D01*
X45235714Y-88282519D02*
X45188095Y-88234900D01*
X45092857Y-88187281D01*
X44854761Y-88187281D01*
X44759523Y-88234900D01*
X44711904Y-88282519D01*
X44664285Y-88377757D01*
X44664285Y-88472995D01*
X44711904Y-88615852D01*
X45283333Y-89187281D01*
X44664285Y-89187281D01*
X44235714Y-89187281D02*
X44235714Y-88187281D01*
X43854761Y-88187281D01*
X43759523Y-88234900D01*
X43711904Y-88282519D01*
X43664285Y-88377757D01*
X43664285Y-88520614D01*
X43711904Y-88615852D01*
X43759523Y-88663471D01*
X43854761Y-88711090D01*
X44235714Y-88711090D01*
X39822381Y-100641186D02*
X38822381Y-100641186D01*
X39822381Y-101212615D01*
X38822381Y-101212615D01*
X42362381Y-100664995D02*
X41362381Y-100664995D01*
X41362381Y-101045948D01*
X41410000Y-101141186D01*
X41457619Y-101188805D01*
X41552857Y-101236424D01*
X41695714Y-101236424D01*
X41790952Y-101188805D01*
X41838571Y-101141186D01*
X41886190Y-101045948D01*
X41886190Y-100664995D01*
X44664285Y-86647281D02*
X45235714Y-86647281D01*
X44950000Y-86647281D02*
X44950000Y-85647281D01*
X45045238Y-85790138D01*
X45140476Y-85885376D01*
X45235714Y-85932995D01*
X44235714Y-86647281D02*
X44235714Y-85647281D01*
X43854761Y-85647281D01*
X43759523Y-85694900D01*
X43711904Y-85742519D01*
X43664285Y-85837757D01*
X43664285Y-85980614D01*
X43711904Y-86075852D01*
X43759523Y-86123471D01*
X43854761Y-86171090D01*
X44235714Y-86171090D01*
X43950000Y-95592996D02*
X43902381Y-95497758D01*
X43902381Y-95354901D01*
X43950000Y-95212043D01*
X44045238Y-95116805D01*
X44140476Y-95069186D01*
X44330952Y-95021567D01*
X44473810Y-95021567D01*
X44664286Y-95069186D01*
X44759524Y-95116805D01*
X44854762Y-95212043D01*
X44902381Y-95354901D01*
X44902381Y-95450139D01*
X44854762Y-95592996D01*
X44807143Y-95640615D01*
X44473810Y-95640615D01*
X44473810Y-95450139D01*
X44902381Y-96069186D02*
X43902381Y-96069186D01*
X44902381Y-96640615D01*
X43902381Y-96640615D01*
X44902381Y-97116805D02*
X43902381Y-97116805D01*
X43902381Y-97354900D01*
X43950000Y-97497758D01*
X44045238Y-97592996D01*
X44140476Y-97640615D01*
X44330952Y-97688234D01*
X44473810Y-97688234D01*
X44664286Y-97640615D01*
X44759524Y-97592996D01*
X44854762Y-97497758D01*
X44902381Y-97354900D01*
X44902381Y-97116805D01*
X43902381Y-98196567D02*
X44902381Y-98529900D01*
X43902381Y-98863234D01*
X44807143Y-99767996D02*
X44854762Y-99720377D01*
X44902381Y-99577520D01*
X44902381Y-99482282D01*
X44854762Y-99339424D01*
X44759524Y-99244186D01*
X44664286Y-99196567D01*
X44473810Y-99148948D01*
X44330952Y-99148948D01*
X44140476Y-99196567D01*
X44045238Y-99244186D01*
X43950000Y-99339424D01*
X43902381Y-99482282D01*
X43902381Y-99577520D01*
X43950000Y-99720377D01*
X43997619Y-99767996D01*
X44807143Y-100767996D02*
X44854762Y-100720377D01*
X44902381Y-100577520D01*
X44902381Y-100482282D01*
X44854762Y-100339424D01*
X44759524Y-100244186D01*
X44664286Y-100196567D01*
X44473810Y-100148948D01*
X44330952Y-100148948D01*
X44140476Y-100196567D01*
X44045238Y-100244186D01*
X43950000Y-100339424D01*
X43902381Y-100482282D01*
X43902381Y-100577520D01*
X43950000Y-100720377D01*
X43997619Y-100767996D01*
M02*
