G04 #@! TF.FileFunction,Soldermask,Bot*
%FSLAX46Y46*%
G04 Gerber Fmt 4.6, Leading zero omitted, Abs format (unit mm)*
G04 Created by KiCad (PCBNEW 4.0.4+e1-6308~48~ubuntu14.04.1-stable) date Sun Nov 27 15:18:37 2016*
%MOMM*%
%LPD*%
G01*
G04 APERTURE LIST*
%ADD10C,0.350000*%
%ADD11R,1.778000X1.778000*%
%ADD12C,1.778000*%
G04 APERTURE END LIST*
D10*
D11*
X49530000Y-24130000D03*
D12*
X52070000Y-24130000D03*
X49530000Y-26670000D03*
X52070000Y-26670000D03*
X49530000Y-29210000D03*
X52070000Y-29210000D03*
X49530000Y-31750000D03*
X52070000Y-31750000D03*
X49530000Y-34290000D03*
X52070000Y-34290000D03*
X49530000Y-36830000D03*
X52070000Y-36830000D03*
D11*
X49530000Y-92710000D03*
D12*
X52070000Y-92710000D03*
X49530000Y-95250000D03*
X52070000Y-95250000D03*
X49530000Y-97790000D03*
X52070000Y-97790000D03*
X49530000Y-100330000D03*
X52070000Y-100330000D03*
X49530000Y-102870000D03*
X52070000Y-102870000D03*
X49530000Y-105410000D03*
X52070000Y-105410000D03*
D11*
X49530000Y-46990000D03*
D12*
X52070000Y-46990000D03*
X49530000Y-49530000D03*
X52070000Y-49530000D03*
X49530000Y-52070000D03*
X52070000Y-52070000D03*
X49530000Y-54610000D03*
X52070000Y-54610000D03*
X49530000Y-57150000D03*
X52070000Y-57150000D03*
X49530000Y-59690000D03*
X52070000Y-59690000D03*
D11*
X49530000Y-69850000D03*
D12*
X52070000Y-69850000D03*
X49530000Y-72390000D03*
X52070000Y-72390000D03*
X49530000Y-74930000D03*
X52070000Y-74930000D03*
X49530000Y-77470000D03*
X52070000Y-77470000D03*
X49530000Y-80010000D03*
X52070000Y-80010000D03*
X49530000Y-82550000D03*
X52070000Y-82550000D03*
D11*
X41910000Y-24130000D03*
D12*
X39370000Y-24130000D03*
X41910000Y-26670000D03*
X39370000Y-26670000D03*
X41910000Y-29210000D03*
X39370000Y-29210000D03*
X41910000Y-31750000D03*
X39370000Y-31750000D03*
X41910000Y-34290000D03*
X39370000Y-34290000D03*
X41910000Y-36830000D03*
X39370000Y-36830000D03*
D11*
X41910000Y-44818300D03*
D12*
X39370000Y-44818300D03*
X41910000Y-47358300D03*
X39370000Y-47358300D03*
X41910000Y-49898300D03*
X39370000Y-49898300D03*
X41910000Y-52438300D03*
X39370000Y-52438300D03*
X41910000Y-54978300D03*
X39370000Y-54978300D03*
X41910000Y-57518300D03*
X39370000Y-57518300D03*
D11*
X41910000Y-65506600D03*
D12*
X39370000Y-65506600D03*
X41910000Y-68046600D03*
X39370000Y-68046600D03*
X41910000Y-70586600D03*
X39370000Y-70586600D03*
X41910000Y-73126600D03*
X39370000Y-73126600D03*
X41910000Y-75666600D03*
X39370000Y-75666600D03*
X41910000Y-78206600D03*
X39370000Y-78206600D03*
D11*
X41910000Y-86194900D03*
D12*
X39370000Y-86194900D03*
X41910000Y-88734900D03*
X39370000Y-88734900D03*
X41910000Y-91274900D03*
X39370000Y-91274900D03*
X41910000Y-93814900D03*
X39370000Y-93814900D03*
X41910000Y-96354900D03*
X39370000Y-96354900D03*
X41910000Y-98894900D03*
X39370000Y-98894900D03*
M02*
