M48
;DRILL file {KiCad 4.0.4+e1-6308~48~ubuntu14.04.1-stable} date Sun Nov 27 15:18:37 2016
;FORMAT={-:-/ absolute / metric / decimal}
FMAT,2
METRIC,TZ
T1C0.500
T2C2.000
%
G90
G05
M71
T1
X36.449Y-39.116
X36.449Y-41.656
X36.449Y-61.341
X36.449Y-63.881
X44.704Y-39.116
X44.704Y-41.656
X44.704Y-61.341
X44.704Y-63.881
X45.72Y-39.116
X45.72Y-41.656
X45.72Y-61.341
X45.72Y-63.881
X46.736Y-39.116
X46.736Y-41.656
X46.736Y-61.341
X46.736Y-63.881
X54.991Y-39.116
X54.991Y-41.656
X54.991Y-61.341
X54.991Y-63.881
T2
X43.39Y-40.386G85X37.89Y-40.386
G05
X43.39Y-62.611G85X37.89Y-62.611
G05
X53.55Y-40.386G85X48.05Y-40.386
G05
X53.55Y-62.611G85X48.05Y-62.611
G05
T0
M30
