G04 #@! TF.FileFunction,Legend,Top*
%FSLAX46Y46*%
G04 Gerber Fmt 4.6, Leading zero omitted, Abs format (unit mm)*
G04 Created by KiCad (PCBNEW 4.0.4+e1-6308~48~ubuntu14.04.1-stable) date Sun Nov 27 15:18:37 2016*
%MOMM*%
%LPD*%
G01*
G04 APERTURE LIST*
%ADD10C,0.350000*%
%ADD11C,0.254000*%
%ADD12C,0.508000*%
%ADD13C,0.300000*%
%ADD14C,1.016000*%
%ADD15C,0.203200*%
%ADD16C,0.304800*%
%ADD17C,0.250000*%
G04 APERTURE END LIST*
D10*
D11*
X47077086Y-37392428D02*
X47754419Y-37150523D01*
X47077086Y-36908619D01*
X46738419Y-36328047D02*
X46738419Y-36231286D01*
X46786800Y-36134524D01*
X46835181Y-36086143D01*
X46931943Y-36037762D01*
X47125467Y-35989381D01*
X47367371Y-35989381D01*
X47560895Y-36037762D01*
X47657657Y-36086143D01*
X47706038Y-36134524D01*
X47754419Y-36231286D01*
X47754419Y-36328047D01*
X47706038Y-36424809D01*
X47657657Y-36473190D01*
X47560895Y-36521571D01*
X47367371Y-36569952D01*
X47125467Y-36569952D01*
X46931943Y-36521571D01*
X46835181Y-36473190D01*
X46786800Y-36424809D01*
X46738419Y-36328047D01*
X47657657Y-35553952D02*
X47706038Y-35505571D01*
X47754419Y-35553952D01*
X47706038Y-35602333D01*
X47657657Y-35553952D01*
X47754419Y-35553952D01*
X47754419Y-34537952D02*
X47754419Y-35118523D01*
X47754419Y-34828237D02*
X46738419Y-34828237D01*
X46883562Y-34924999D01*
X46980324Y-35021761D01*
X47028705Y-35118523D01*
D12*
X38558410Y-83799438D02*
X38558410Y-81767438D01*
X39719552Y-83799438D01*
X39719552Y-81767438D01*
X40590410Y-81960962D02*
X40687172Y-81864200D01*
X40880695Y-81767438D01*
X41364505Y-81767438D01*
X41558029Y-81864200D01*
X41654791Y-81960962D01*
X41751552Y-82154486D01*
X41751552Y-82348010D01*
X41654791Y-82638295D01*
X40493648Y-83799438D01*
X41751552Y-83799438D01*
X42622410Y-83799438D02*
X42622410Y-81767438D01*
X43106219Y-81767438D01*
X43396505Y-81864200D01*
X43590029Y-82057724D01*
X43686790Y-82251248D01*
X43783552Y-82638295D01*
X43783552Y-82928581D01*
X43686790Y-83315629D01*
X43590029Y-83509152D01*
X43396505Y-83702676D01*
X43106219Y-83799438D01*
X42622410Y-83799438D01*
D13*
X48682544Y-44001571D02*
X49039687Y-45001571D01*
X49396829Y-44001571D01*
X50253972Y-43501571D02*
X50396829Y-43501571D01*
X50539686Y-43573000D01*
X50611115Y-43644429D01*
X50682544Y-43787286D01*
X50753972Y-44073000D01*
X50753972Y-44430143D01*
X50682544Y-44715857D01*
X50611115Y-44858714D01*
X50539686Y-44930143D01*
X50396829Y-45001571D01*
X50253972Y-45001571D01*
X50111115Y-44930143D01*
X50039686Y-44858714D01*
X49968258Y-44715857D01*
X49896829Y-44430143D01*
X49896829Y-44073000D01*
X49968258Y-43787286D01*
X50039686Y-43644429D01*
X50111115Y-43573000D01*
X50253972Y-43501571D01*
X51396829Y-44858714D02*
X51468257Y-44930143D01*
X51396829Y-45001571D01*
X51325400Y-44930143D01*
X51396829Y-44858714D01*
X51396829Y-45001571D01*
X52896829Y-45001571D02*
X52039686Y-45001571D01*
X52468258Y-45001571D02*
X52468258Y-43501571D01*
X52325401Y-43715857D01*
X52182543Y-43858714D01*
X52039686Y-43930143D01*
X48123744Y-66124971D02*
X48480887Y-67124971D01*
X48838029Y-66124971D01*
X49695172Y-65624971D02*
X49838029Y-65624971D01*
X49980886Y-65696400D01*
X50052315Y-65767829D01*
X50123744Y-65910686D01*
X50195172Y-66196400D01*
X50195172Y-66553543D01*
X50123744Y-66839257D01*
X50052315Y-66982114D01*
X49980886Y-67053543D01*
X49838029Y-67124971D01*
X49695172Y-67124971D01*
X49552315Y-67053543D01*
X49480886Y-66982114D01*
X49409458Y-66839257D01*
X49338029Y-66553543D01*
X49338029Y-66196400D01*
X49409458Y-65910686D01*
X49480886Y-65767829D01*
X49552315Y-65696400D01*
X49695172Y-65624971D01*
X50838029Y-66982114D02*
X50909457Y-67053543D01*
X50838029Y-67124971D01*
X50766600Y-67053543D01*
X50838029Y-66982114D01*
X50838029Y-67124971D01*
X52338029Y-67124971D02*
X51480886Y-67124971D01*
X51909458Y-67124971D02*
X51909458Y-65624971D01*
X51766601Y-65839257D01*
X51623743Y-65982114D01*
X51480886Y-66053543D01*
D14*
X41728571Y-105410000D02*
X39551428Y-105410000D01*
X42163999Y-106716286D02*
X40639999Y-102144286D01*
X39115999Y-106716286D01*
X51939371Y-88392000D02*
X49762228Y-88392000D01*
X52374799Y-89698286D02*
X50850799Y-85126286D01*
X49326799Y-89698286D01*
D13*
X55341761Y-59605333D02*
X54132238Y-59605333D01*
X55583666Y-60331048D02*
X54737000Y-57791048D01*
X53890333Y-60331048D01*
X37485561Y-59529133D02*
X36276038Y-59529133D01*
X37727466Y-60254848D02*
X36880800Y-57714848D01*
X36034133Y-60254848D01*
X37434761Y-36618333D02*
X36225238Y-36618333D01*
X37676666Y-37344048D02*
X36830000Y-34804048D01*
X35983333Y-37344048D01*
X55341761Y-36618333D02*
X54132238Y-36618333D01*
X55583666Y-37344048D02*
X54737000Y-34804048D01*
X53890333Y-37344048D01*
D15*
X48260000Y-27940000D02*
X46228000Y-27940000D01*
D16*
X50800000Y-27940000D02*
X50800000Y-33020000D01*
X50800000Y-27940000D02*
X50800000Y-22860000D01*
X48260000Y-27940000D02*
X53340000Y-27940000D01*
X48260000Y-33020000D02*
X53340000Y-33020000D01*
X48260000Y-22860000D02*
X53340000Y-22860000D01*
X48260000Y-38100000D02*
X48260000Y-22860000D01*
X53340000Y-38100000D02*
X48260000Y-38100000D01*
X53340000Y-22860000D02*
X53340000Y-38100000D01*
D15*
X55372000Y-27940000D02*
X53340000Y-27940000D01*
X55372000Y-33020000D02*
X53340000Y-33020000D01*
X48260000Y-33020000D02*
X46228000Y-33020000D01*
X48260000Y-22860000D02*
X46228000Y-22860000D01*
X55372000Y-22860000D02*
X53340000Y-22860000D01*
X48260000Y-96520000D02*
X46228000Y-96520000D01*
D16*
X50800000Y-96520000D02*
X50800000Y-101600000D01*
X50800000Y-96520000D02*
X50800000Y-91440000D01*
X48260000Y-96520000D02*
X53340000Y-96520000D01*
X48260000Y-101600000D02*
X53340000Y-101600000D01*
X48260000Y-91440000D02*
X53340000Y-91440000D01*
X48260000Y-106680000D02*
X48260000Y-91440000D01*
X53340000Y-106680000D02*
X48260000Y-106680000D01*
X53340000Y-91440000D02*
X53340000Y-106680000D01*
D15*
X55372000Y-96520000D02*
X53340000Y-96520000D01*
X55372000Y-101600000D02*
X53340000Y-101600000D01*
X48260000Y-101600000D02*
X46228000Y-101600000D01*
X48260000Y-91440000D02*
X46228000Y-91440000D01*
X55372000Y-91440000D02*
X53340000Y-91440000D01*
X48260000Y-50800000D02*
X46228000Y-50800000D01*
D16*
X50800000Y-50800000D02*
X50800000Y-55880000D01*
X50800000Y-50800000D02*
X50800000Y-45720000D01*
X48260000Y-50800000D02*
X53340000Y-50800000D01*
X48260000Y-55880000D02*
X53340000Y-55880000D01*
X48260000Y-45720000D02*
X53340000Y-45720000D01*
X48260000Y-60960000D02*
X48260000Y-45720000D01*
X53340000Y-60960000D02*
X48260000Y-60960000D01*
X53340000Y-45720000D02*
X53340000Y-60960000D01*
D15*
X55372000Y-50800000D02*
X53340000Y-50800000D01*
X55372000Y-55880000D02*
X53340000Y-55880000D01*
X48260000Y-55880000D02*
X46228000Y-55880000D01*
X48260000Y-45720000D02*
X46228000Y-45720000D01*
X55372000Y-45720000D02*
X53340000Y-45720000D01*
X48260000Y-73660000D02*
X46228000Y-73660000D01*
D16*
X50800000Y-73660000D02*
X50800000Y-78740000D01*
X50800000Y-73660000D02*
X50800000Y-68580000D01*
X48260000Y-73660000D02*
X53340000Y-73660000D01*
X48260000Y-78740000D02*
X53340000Y-78740000D01*
X48260000Y-68580000D02*
X53340000Y-68580000D01*
X48260000Y-83820000D02*
X48260000Y-68580000D01*
X53340000Y-83820000D02*
X48260000Y-83820000D01*
X53340000Y-68580000D02*
X53340000Y-83820000D01*
D15*
X55372000Y-73660000D02*
X53340000Y-73660000D01*
X55372000Y-78740000D02*
X53340000Y-78740000D01*
X48260000Y-78740000D02*
X46228000Y-78740000D01*
X48260000Y-68580000D02*
X46228000Y-68580000D01*
X55372000Y-68580000D02*
X53340000Y-68580000D01*
D16*
X43180000Y-30480000D02*
X38100000Y-30480000D01*
X38100000Y-27940000D02*
X43180000Y-27940000D01*
X43180000Y-25400000D02*
X38100000Y-25400000D01*
X43180000Y-33020000D02*
X38100000Y-33020000D01*
X38100000Y-22860000D02*
X38100000Y-38100000D01*
X38100000Y-38100000D02*
X43180000Y-38100000D01*
X43180000Y-38100000D02*
X43180000Y-22860000D01*
X43180000Y-22860000D02*
X38100000Y-22860000D01*
X43180000Y-51168300D02*
X38100000Y-51168300D01*
X38100000Y-48628300D02*
X43180000Y-48628300D01*
X43180000Y-46088300D02*
X38100000Y-46088300D01*
X43180000Y-53708300D02*
X38100000Y-53708300D01*
X38100000Y-43548300D02*
X38100000Y-58788300D01*
X38100000Y-58788300D02*
X43180000Y-58788300D01*
X43180000Y-58788300D02*
X43180000Y-43548300D01*
X43180000Y-43548300D02*
X38100000Y-43548300D01*
X43180000Y-71856600D02*
X38100000Y-71856600D01*
X38100000Y-69316600D02*
X43180000Y-69316600D01*
X43180000Y-66776600D02*
X38100000Y-66776600D01*
X43180000Y-74396600D02*
X38100000Y-74396600D01*
X38100000Y-64236600D02*
X38100000Y-79476600D01*
X38100000Y-79476600D02*
X43180000Y-79476600D01*
X43180000Y-79476600D02*
X43180000Y-64236600D01*
X43180000Y-64236600D02*
X38100000Y-64236600D01*
X43180000Y-92544900D02*
X38100000Y-92544900D01*
X38100000Y-90004900D02*
X43180000Y-90004900D01*
X43180000Y-87464900D02*
X38100000Y-87464900D01*
X43180000Y-95084900D02*
X38100000Y-95084900D01*
X38100000Y-84924900D02*
X38100000Y-100164900D01*
X38100000Y-100164900D02*
X43180000Y-100164900D01*
X43180000Y-100164900D02*
X43180000Y-84924900D01*
X43180000Y-84924900D02*
X38100000Y-84924900D01*
D17*
X46180476Y-31297619D02*
X46228095Y-31250000D01*
X46323333Y-31202381D01*
X46561429Y-31202381D01*
X46656667Y-31250000D01*
X46704286Y-31297619D01*
X46751905Y-31392857D01*
X46751905Y-31488095D01*
X46704286Y-31630952D01*
X46132857Y-32202381D01*
X46751905Y-32202381D01*
X47180476Y-32202381D02*
X47180476Y-31202381D01*
X47751905Y-32202381D01*
X47751905Y-31202381D01*
X46204286Y-28757619D02*
X46251905Y-28710000D01*
X46347143Y-28662381D01*
X46585239Y-28662381D01*
X46680477Y-28710000D01*
X46728096Y-28757619D01*
X46775715Y-28852857D01*
X46775715Y-28948095D01*
X46728096Y-29090952D01*
X46156667Y-29662381D01*
X46775715Y-29662381D01*
X47204286Y-29662381D02*
X47204286Y-28662381D01*
X47585239Y-28662381D01*
X47680477Y-28710000D01*
X47728096Y-28757619D01*
X47775715Y-28852857D01*
X47775715Y-28995714D01*
X47728096Y-29090952D01*
X47680477Y-29138571D01*
X47585239Y-29186190D01*
X47204286Y-29186190D01*
X46751905Y-27122381D02*
X46180476Y-27122381D01*
X46466190Y-27122381D02*
X46466190Y-26122381D01*
X46370952Y-26265238D01*
X46275714Y-26360476D01*
X46180476Y-26408095D01*
X47180476Y-27122381D02*
X47180476Y-26122381D01*
X47751905Y-27122381D01*
X47751905Y-26122381D01*
X46775715Y-24582381D02*
X46204286Y-24582381D01*
X46490000Y-24582381D02*
X46490000Y-23582381D01*
X46394762Y-23725238D01*
X46299524Y-23820476D01*
X46204286Y-23868095D01*
X47204286Y-24582381D02*
X47204286Y-23582381D01*
X47585239Y-23582381D01*
X47680477Y-23630000D01*
X47728096Y-23677619D01*
X47775715Y-23772857D01*
X47775715Y-23915714D01*
X47728096Y-24010952D01*
X47680477Y-24058571D01*
X47585239Y-24106190D01*
X47204286Y-24106190D01*
X54276667Y-31535714D02*
X54276667Y-32202381D01*
X54038571Y-31154762D02*
X53800476Y-31869048D01*
X54419524Y-31869048D01*
X54800476Y-32202381D02*
X54800476Y-31202381D01*
X55371905Y-32202381D01*
X55371905Y-31202381D01*
X54300477Y-28995714D02*
X54300477Y-29662381D01*
X54062381Y-28614762D02*
X53824286Y-29329048D01*
X54443334Y-29329048D01*
X54824286Y-29662381D02*
X54824286Y-28662381D01*
X55205239Y-28662381D01*
X55300477Y-28710000D01*
X55348096Y-28757619D01*
X55395715Y-28852857D01*
X55395715Y-28995714D01*
X55348096Y-29090952D01*
X55300477Y-29138571D01*
X55205239Y-29186190D01*
X54824286Y-29186190D01*
X53752857Y-26122381D02*
X54371905Y-26122381D01*
X54038571Y-26503333D01*
X54181429Y-26503333D01*
X54276667Y-26550952D01*
X54324286Y-26598571D01*
X54371905Y-26693810D01*
X54371905Y-26931905D01*
X54324286Y-27027143D01*
X54276667Y-27074762D01*
X54181429Y-27122381D01*
X53895714Y-27122381D01*
X53800476Y-27074762D01*
X53752857Y-27027143D01*
X54800476Y-27122381D02*
X54800476Y-26122381D01*
X55371905Y-27122381D01*
X55371905Y-26122381D01*
X53776667Y-23582381D02*
X54395715Y-23582381D01*
X54062381Y-23963333D01*
X54205239Y-23963333D01*
X54300477Y-24010952D01*
X54348096Y-24058571D01*
X54395715Y-24153810D01*
X54395715Y-24391905D01*
X54348096Y-24487143D01*
X54300477Y-24534762D01*
X54205239Y-24582381D01*
X53919524Y-24582381D01*
X53824286Y-24534762D01*
X53776667Y-24487143D01*
X54824286Y-24582381D02*
X54824286Y-23582381D01*
X55205239Y-23582381D01*
X55300477Y-23630000D01*
X55348096Y-23677619D01*
X55395715Y-23772857D01*
X55395715Y-23915714D01*
X55348096Y-24010952D01*
X55300477Y-24058571D01*
X55205239Y-24106190D01*
X54824286Y-24106190D01*
X46180476Y-99877619D02*
X46228095Y-99830000D01*
X46323333Y-99782381D01*
X46561429Y-99782381D01*
X46656667Y-99830000D01*
X46704286Y-99877619D01*
X46751905Y-99972857D01*
X46751905Y-100068095D01*
X46704286Y-100210952D01*
X46132857Y-100782381D01*
X46751905Y-100782381D01*
X47180476Y-100782381D02*
X47180476Y-99782381D01*
X47751905Y-100782381D01*
X47751905Y-99782381D01*
X46204286Y-97337619D02*
X46251905Y-97290000D01*
X46347143Y-97242381D01*
X46585239Y-97242381D01*
X46680477Y-97290000D01*
X46728096Y-97337619D01*
X46775715Y-97432857D01*
X46775715Y-97528095D01*
X46728096Y-97670952D01*
X46156667Y-98242381D01*
X46775715Y-98242381D01*
X47204286Y-98242381D02*
X47204286Y-97242381D01*
X47585239Y-97242381D01*
X47680477Y-97290000D01*
X47728096Y-97337619D01*
X47775715Y-97432857D01*
X47775715Y-97575714D01*
X47728096Y-97670952D01*
X47680477Y-97718571D01*
X47585239Y-97766190D01*
X47204286Y-97766190D01*
X46751905Y-95702381D02*
X46180476Y-95702381D01*
X46466190Y-95702381D02*
X46466190Y-94702381D01*
X46370952Y-94845238D01*
X46275714Y-94940476D01*
X46180476Y-94988095D01*
X47180476Y-95702381D02*
X47180476Y-94702381D01*
X47751905Y-95702381D01*
X47751905Y-94702381D01*
X46775715Y-93162381D02*
X46204286Y-93162381D01*
X46490000Y-93162381D02*
X46490000Y-92162381D01*
X46394762Y-92305238D01*
X46299524Y-92400476D01*
X46204286Y-92448095D01*
X47204286Y-93162381D02*
X47204286Y-92162381D01*
X47585239Y-92162381D01*
X47680477Y-92210000D01*
X47728096Y-92257619D01*
X47775715Y-92352857D01*
X47775715Y-92495714D01*
X47728096Y-92590952D01*
X47680477Y-92638571D01*
X47585239Y-92686190D01*
X47204286Y-92686190D01*
X54276667Y-100115714D02*
X54276667Y-100782381D01*
X54038571Y-99734762D02*
X53800476Y-100449048D01*
X54419524Y-100449048D01*
X54800476Y-100782381D02*
X54800476Y-99782381D01*
X55371905Y-100782381D01*
X55371905Y-99782381D01*
X54300477Y-97575714D02*
X54300477Y-98242381D01*
X54062381Y-97194762D02*
X53824286Y-97909048D01*
X54443334Y-97909048D01*
X54824286Y-98242381D02*
X54824286Y-97242381D01*
X55205239Y-97242381D01*
X55300477Y-97290000D01*
X55348096Y-97337619D01*
X55395715Y-97432857D01*
X55395715Y-97575714D01*
X55348096Y-97670952D01*
X55300477Y-97718571D01*
X55205239Y-97766190D01*
X54824286Y-97766190D01*
X53752857Y-94702381D02*
X54371905Y-94702381D01*
X54038571Y-95083333D01*
X54181429Y-95083333D01*
X54276667Y-95130952D01*
X54324286Y-95178571D01*
X54371905Y-95273810D01*
X54371905Y-95511905D01*
X54324286Y-95607143D01*
X54276667Y-95654762D01*
X54181429Y-95702381D01*
X53895714Y-95702381D01*
X53800476Y-95654762D01*
X53752857Y-95607143D01*
X54800476Y-95702381D02*
X54800476Y-94702381D01*
X55371905Y-95702381D01*
X55371905Y-94702381D01*
X53776667Y-92162381D02*
X54395715Y-92162381D01*
X54062381Y-92543333D01*
X54205239Y-92543333D01*
X54300477Y-92590952D01*
X54348096Y-92638571D01*
X54395715Y-92733810D01*
X54395715Y-92971905D01*
X54348096Y-93067143D01*
X54300477Y-93114762D01*
X54205239Y-93162381D01*
X53919524Y-93162381D01*
X53824286Y-93114762D01*
X53776667Y-93067143D01*
X54824286Y-93162381D02*
X54824286Y-92162381D01*
X55205239Y-92162381D01*
X55300477Y-92210000D01*
X55348096Y-92257619D01*
X55395715Y-92352857D01*
X55395715Y-92495714D01*
X55348096Y-92590952D01*
X55300477Y-92638571D01*
X55205239Y-92686190D01*
X54824286Y-92686190D01*
X45720096Y-102370000D02*
X45624858Y-102322381D01*
X45482001Y-102322381D01*
X45339143Y-102370000D01*
X45243905Y-102465238D01*
X45196286Y-102560476D01*
X45148667Y-102750952D01*
X45148667Y-102893810D01*
X45196286Y-103084286D01*
X45243905Y-103179524D01*
X45339143Y-103274762D01*
X45482001Y-103322381D01*
X45577239Y-103322381D01*
X45720096Y-103274762D01*
X45767715Y-103227143D01*
X45767715Y-102893810D01*
X45577239Y-102893810D01*
X46196286Y-103322381D02*
X46196286Y-102322381D01*
X46767715Y-103322381D01*
X46767715Y-102322381D01*
X47243905Y-103322381D02*
X47243905Y-102322381D01*
X47482000Y-102322381D01*
X47624858Y-102370000D01*
X47720096Y-102465238D01*
X47767715Y-102560476D01*
X47815334Y-102750952D01*
X47815334Y-102893810D01*
X47767715Y-103084286D01*
X47720096Y-103179524D01*
X47624858Y-103274762D01*
X47482000Y-103322381D01*
X47243905Y-103322381D01*
X45148667Y-104862381D02*
X45482000Y-105862381D01*
X45815334Y-104862381D01*
X46720096Y-105767143D02*
X46672477Y-105814762D01*
X46529620Y-105862381D01*
X46434382Y-105862381D01*
X46291524Y-105814762D01*
X46196286Y-105719524D01*
X46148667Y-105624286D01*
X46101048Y-105433810D01*
X46101048Y-105290952D01*
X46148667Y-105100476D01*
X46196286Y-105005238D01*
X46291524Y-104910000D01*
X46434382Y-104862381D01*
X46529620Y-104862381D01*
X46672477Y-104910000D01*
X46720096Y-104957619D01*
X47720096Y-105767143D02*
X47672477Y-105814762D01*
X47529620Y-105862381D01*
X47434382Y-105862381D01*
X47291524Y-105814762D01*
X47196286Y-105719524D01*
X47148667Y-105624286D01*
X47101048Y-105433810D01*
X47101048Y-105290952D01*
X47148667Y-105100476D01*
X47196286Y-105005238D01*
X47291524Y-104910000D01*
X47434382Y-104862381D01*
X47529620Y-104862381D01*
X47672477Y-104910000D01*
X47720096Y-104957619D01*
X46180476Y-54157619D02*
X46228095Y-54110000D01*
X46323333Y-54062381D01*
X46561429Y-54062381D01*
X46656667Y-54110000D01*
X46704286Y-54157619D01*
X46751905Y-54252857D01*
X46751905Y-54348095D01*
X46704286Y-54490952D01*
X46132857Y-55062381D01*
X46751905Y-55062381D01*
X47180476Y-55062381D02*
X47180476Y-54062381D01*
X47751905Y-55062381D01*
X47751905Y-54062381D01*
X46204286Y-51617619D02*
X46251905Y-51570000D01*
X46347143Y-51522381D01*
X46585239Y-51522381D01*
X46680477Y-51570000D01*
X46728096Y-51617619D01*
X46775715Y-51712857D01*
X46775715Y-51808095D01*
X46728096Y-51950952D01*
X46156667Y-52522381D01*
X46775715Y-52522381D01*
X47204286Y-52522381D02*
X47204286Y-51522381D01*
X47585239Y-51522381D01*
X47680477Y-51570000D01*
X47728096Y-51617619D01*
X47775715Y-51712857D01*
X47775715Y-51855714D01*
X47728096Y-51950952D01*
X47680477Y-51998571D01*
X47585239Y-52046190D01*
X47204286Y-52046190D01*
X46751905Y-49982381D02*
X46180476Y-49982381D01*
X46466190Y-49982381D02*
X46466190Y-48982381D01*
X46370952Y-49125238D01*
X46275714Y-49220476D01*
X46180476Y-49268095D01*
X47180476Y-49982381D02*
X47180476Y-48982381D01*
X47751905Y-49982381D01*
X47751905Y-48982381D01*
X46775715Y-47442381D02*
X46204286Y-47442381D01*
X46490000Y-47442381D02*
X46490000Y-46442381D01*
X46394762Y-46585238D01*
X46299524Y-46680476D01*
X46204286Y-46728095D01*
X47204286Y-47442381D02*
X47204286Y-46442381D01*
X47585239Y-46442381D01*
X47680477Y-46490000D01*
X47728096Y-46537619D01*
X47775715Y-46632857D01*
X47775715Y-46775714D01*
X47728096Y-46870952D01*
X47680477Y-46918571D01*
X47585239Y-46966190D01*
X47204286Y-46966190D01*
X54276667Y-54395714D02*
X54276667Y-55062381D01*
X54038571Y-54014762D02*
X53800476Y-54729048D01*
X54419524Y-54729048D01*
X54800476Y-55062381D02*
X54800476Y-54062381D01*
X55371905Y-55062381D01*
X55371905Y-54062381D01*
X54300477Y-51855714D02*
X54300477Y-52522381D01*
X54062381Y-51474762D02*
X53824286Y-52189048D01*
X54443334Y-52189048D01*
X54824286Y-52522381D02*
X54824286Y-51522381D01*
X55205239Y-51522381D01*
X55300477Y-51570000D01*
X55348096Y-51617619D01*
X55395715Y-51712857D01*
X55395715Y-51855714D01*
X55348096Y-51950952D01*
X55300477Y-51998571D01*
X55205239Y-52046190D01*
X54824286Y-52046190D01*
X53752857Y-48982381D02*
X54371905Y-48982381D01*
X54038571Y-49363333D01*
X54181429Y-49363333D01*
X54276667Y-49410952D01*
X54324286Y-49458571D01*
X54371905Y-49553810D01*
X54371905Y-49791905D01*
X54324286Y-49887143D01*
X54276667Y-49934762D01*
X54181429Y-49982381D01*
X53895714Y-49982381D01*
X53800476Y-49934762D01*
X53752857Y-49887143D01*
X54800476Y-49982381D02*
X54800476Y-48982381D01*
X55371905Y-49982381D01*
X55371905Y-48982381D01*
X53776667Y-46442381D02*
X54395715Y-46442381D01*
X54062381Y-46823333D01*
X54205239Y-46823333D01*
X54300477Y-46870952D01*
X54348096Y-46918571D01*
X54395715Y-47013810D01*
X54395715Y-47251905D01*
X54348096Y-47347143D01*
X54300477Y-47394762D01*
X54205239Y-47442381D01*
X53919524Y-47442381D01*
X53824286Y-47394762D01*
X53776667Y-47347143D01*
X54824286Y-47442381D02*
X54824286Y-46442381D01*
X55205239Y-46442381D01*
X55300477Y-46490000D01*
X55348096Y-46537619D01*
X55395715Y-46632857D01*
X55395715Y-46775714D01*
X55348096Y-46870952D01*
X55300477Y-46918571D01*
X55205239Y-46966190D01*
X54824286Y-46966190D01*
X46180476Y-77017619D02*
X46228095Y-76970000D01*
X46323333Y-76922381D01*
X46561429Y-76922381D01*
X46656667Y-76970000D01*
X46704286Y-77017619D01*
X46751905Y-77112857D01*
X46751905Y-77208095D01*
X46704286Y-77350952D01*
X46132857Y-77922381D01*
X46751905Y-77922381D01*
X47180476Y-77922381D02*
X47180476Y-76922381D01*
X47751905Y-77922381D01*
X47751905Y-76922381D01*
X46204286Y-74477619D02*
X46251905Y-74430000D01*
X46347143Y-74382381D01*
X46585239Y-74382381D01*
X46680477Y-74430000D01*
X46728096Y-74477619D01*
X46775715Y-74572857D01*
X46775715Y-74668095D01*
X46728096Y-74810952D01*
X46156667Y-75382381D01*
X46775715Y-75382381D01*
X47204286Y-75382381D02*
X47204286Y-74382381D01*
X47585239Y-74382381D01*
X47680477Y-74430000D01*
X47728096Y-74477619D01*
X47775715Y-74572857D01*
X47775715Y-74715714D01*
X47728096Y-74810952D01*
X47680477Y-74858571D01*
X47585239Y-74906190D01*
X47204286Y-74906190D01*
X46751905Y-72842381D02*
X46180476Y-72842381D01*
X46466190Y-72842381D02*
X46466190Y-71842381D01*
X46370952Y-71985238D01*
X46275714Y-72080476D01*
X46180476Y-72128095D01*
X47180476Y-72842381D02*
X47180476Y-71842381D01*
X47751905Y-72842381D01*
X47751905Y-71842381D01*
X46775715Y-70302381D02*
X46204286Y-70302381D01*
X46490000Y-70302381D02*
X46490000Y-69302381D01*
X46394762Y-69445238D01*
X46299524Y-69540476D01*
X46204286Y-69588095D01*
X47204286Y-70302381D02*
X47204286Y-69302381D01*
X47585239Y-69302381D01*
X47680477Y-69350000D01*
X47728096Y-69397619D01*
X47775715Y-69492857D01*
X47775715Y-69635714D01*
X47728096Y-69730952D01*
X47680477Y-69778571D01*
X47585239Y-69826190D01*
X47204286Y-69826190D01*
X54276667Y-77255714D02*
X54276667Y-77922381D01*
X54038571Y-76874762D02*
X53800476Y-77589048D01*
X54419524Y-77589048D01*
X54800476Y-77922381D02*
X54800476Y-76922381D01*
X55371905Y-77922381D01*
X55371905Y-76922381D01*
X54300477Y-74715714D02*
X54300477Y-75382381D01*
X54062381Y-74334762D02*
X53824286Y-75049048D01*
X54443334Y-75049048D01*
X54824286Y-75382381D02*
X54824286Y-74382381D01*
X55205239Y-74382381D01*
X55300477Y-74430000D01*
X55348096Y-74477619D01*
X55395715Y-74572857D01*
X55395715Y-74715714D01*
X55348096Y-74810952D01*
X55300477Y-74858571D01*
X55205239Y-74906190D01*
X54824286Y-74906190D01*
X53752857Y-71842381D02*
X54371905Y-71842381D01*
X54038571Y-72223333D01*
X54181429Y-72223333D01*
X54276667Y-72270952D01*
X54324286Y-72318571D01*
X54371905Y-72413810D01*
X54371905Y-72651905D01*
X54324286Y-72747143D01*
X54276667Y-72794762D01*
X54181429Y-72842381D01*
X53895714Y-72842381D01*
X53800476Y-72794762D01*
X53752857Y-72747143D01*
X54800476Y-72842381D02*
X54800476Y-71842381D01*
X55371905Y-72842381D01*
X55371905Y-71842381D01*
X53776667Y-69302381D02*
X54395715Y-69302381D01*
X54062381Y-69683333D01*
X54205239Y-69683333D01*
X54300477Y-69730952D01*
X54348096Y-69778571D01*
X54395715Y-69873810D01*
X54395715Y-70111905D01*
X54348096Y-70207143D01*
X54300477Y-70254762D01*
X54205239Y-70302381D01*
X53919524Y-70302381D01*
X53824286Y-70254762D01*
X53776667Y-70207143D01*
X54824286Y-70302381D02*
X54824286Y-69302381D01*
X55205239Y-69302381D01*
X55300477Y-69350000D01*
X55348096Y-69397619D01*
X55395715Y-69492857D01*
X55395715Y-69635714D01*
X55348096Y-69730952D01*
X55300477Y-69778571D01*
X55205239Y-69826190D01*
X54824286Y-69826190D01*
X45720096Y-79510000D02*
X45624858Y-79462381D01*
X45482001Y-79462381D01*
X45339143Y-79510000D01*
X45243905Y-79605238D01*
X45196286Y-79700476D01*
X45148667Y-79890952D01*
X45148667Y-80033810D01*
X45196286Y-80224286D01*
X45243905Y-80319524D01*
X45339143Y-80414762D01*
X45482001Y-80462381D01*
X45577239Y-80462381D01*
X45720096Y-80414762D01*
X45767715Y-80367143D01*
X45767715Y-80033810D01*
X45577239Y-80033810D01*
X46196286Y-80462381D02*
X46196286Y-79462381D01*
X46767715Y-80462381D01*
X46767715Y-79462381D01*
X47243905Y-80462381D02*
X47243905Y-79462381D01*
X47482000Y-79462381D01*
X47624858Y-79510000D01*
X47720096Y-79605238D01*
X47767715Y-79700476D01*
X47815334Y-79890952D01*
X47815334Y-80033810D01*
X47767715Y-80224286D01*
X47720096Y-80319524D01*
X47624858Y-80414762D01*
X47482000Y-80462381D01*
X47243905Y-80462381D01*
X45148667Y-82002381D02*
X45482000Y-83002381D01*
X45815334Y-82002381D01*
X46720096Y-82907143D02*
X46672477Y-82954762D01*
X46529620Y-83002381D01*
X46434382Y-83002381D01*
X46291524Y-82954762D01*
X46196286Y-82859524D01*
X46148667Y-82764286D01*
X46101048Y-82573810D01*
X46101048Y-82430952D01*
X46148667Y-82240476D01*
X46196286Y-82145238D01*
X46291524Y-82050000D01*
X46434382Y-82002381D01*
X46529620Y-82002381D01*
X46672477Y-82050000D01*
X46720096Y-82097619D01*
X47720096Y-82907143D02*
X47672477Y-82954762D01*
X47529620Y-83002381D01*
X47434382Y-83002381D01*
X47291524Y-82954762D01*
X47196286Y-82859524D01*
X47148667Y-82764286D01*
X47101048Y-82573810D01*
X47101048Y-82430952D01*
X47148667Y-82240476D01*
X47196286Y-82145238D01*
X47291524Y-82050000D01*
X47434382Y-82002381D01*
X47529620Y-82002381D01*
X47672477Y-82050000D01*
X47720096Y-82097619D01*
X36496667Y-31535714D02*
X36496667Y-32202381D01*
X36258571Y-31154762D02*
X36020476Y-31869048D01*
X36639524Y-31869048D01*
X37020476Y-32202381D02*
X37020476Y-31202381D01*
X37591905Y-32202381D01*
X37591905Y-31202381D01*
X35972857Y-28662381D02*
X36591905Y-28662381D01*
X36258571Y-29043333D01*
X36401429Y-29043333D01*
X36496667Y-29090952D01*
X36544286Y-29138571D01*
X36591905Y-29233810D01*
X36591905Y-29471905D01*
X36544286Y-29567143D01*
X36496667Y-29614762D01*
X36401429Y-29662381D01*
X36115714Y-29662381D01*
X36020476Y-29614762D01*
X35972857Y-29567143D01*
X37020476Y-29662381D02*
X37020476Y-28662381D01*
X37591905Y-29662381D01*
X37591905Y-28662381D01*
X36020476Y-26217619D02*
X36068095Y-26170000D01*
X36163333Y-26122381D01*
X36401429Y-26122381D01*
X36496667Y-26170000D01*
X36544286Y-26217619D01*
X36591905Y-26312857D01*
X36591905Y-26408095D01*
X36544286Y-26550952D01*
X35972857Y-27122381D01*
X36591905Y-27122381D01*
X37020476Y-27122381D02*
X37020476Y-26122381D01*
X37591905Y-27122381D01*
X37591905Y-26122381D01*
X36591905Y-24582381D02*
X36020476Y-24582381D01*
X36306190Y-24582381D02*
X36306190Y-23582381D01*
X36210952Y-23725238D01*
X36115714Y-23820476D01*
X36020476Y-23868095D01*
X37020476Y-24582381D02*
X37020476Y-23582381D01*
X37591905Y-24582381D01*
X37591905Y-23582381D01*
X44140477Y-31535714D02*
X44140477Y-32202381D01*
X43902381Y-31154762D02*
X43664286Y-31869048D01*
X44283334Y-31869048D01*
X44664286Y-32202381D02*
X44664286Y-31202381D01*
X45045239Y-31202381D01*
X45140477Y-31250000D01*
X45188096Y-31297619D01*
X45235715Y-31392857D01*
X45235715Y-31535714D01*
X45188096Y-31630952D01*
X45140477Y-31678571D01*
X45045239Y-31726190D01*
X44664286Y-31726190D01*
X43616667Y-28662381D02*
X44235715Y-28662381D01*
X43902381Y-29043333D01*
X44045239Y-29043333D01*
X44140477Y-29090952D01*
X44188096Y-29138571D01*
X44235715Y-29233810D01*
X44235715Y-29471905D01*
X44188096Y-29567143D01*
X44140477Y-29614762D01*
X44045239Y-29662381D01*
X43759524Y-29662381D01*
X43664286Y-29614762D01*
X43616667Y-29567143D01*
X44664286Y-29662381D02*
X44664286Y-28662381D01*
X45045239Y-28662381D01*
X45140477Y-28710000D01*
X45188096Y-28757619D01*
X45235715Y-28852857D01*
X45235715Y-28995714D01*
X45188096Y-29090952D01*
X45140477Y-29138571D01*
X45045239Y-29186190D01*
X44664286Y-29186190D01*
X43664286Y-26217619D02*
X43711905Y-26170000D01*
X43807143Y-26122381D01*
X44045239Y-26122381D01*
X44140477Y-26170000D01*
X44188096Y-26217619D01*
X44235715Y-26312857D01*
X44235715Y-26408095D01*
X44188096Y-26550952D01*
X43616667Y-27122381D01*
X44235715Y-27122381D01*
X44664286Y-27122381D02*
X44664286Y-26122381D01*
X45045239Y-26122381D01*
X45140477Y-26170000D01*
X45188096Y-26217619D01*
X45235715Y-26312857D01*
X45235715Y-26455714D01*
X45188096Y-26550952D01*
X45140477Y-26598571D01*
X45045239Y-26646190D01*
X44664286Y-26646190D01*
X39822381Y-39147714D02*
X38822381Y-39147714D01*
X39822381Y-38576285D01*
X38822381Y-38576285D01*
X42362381Y-39123905D02*
X41362381Y-39123905D01*
X41362381Y-38742952D01*
X41410000Y-38647714D01*
X41457619Y-38600095D01*
X41552857Y-38552476D01*
X41695714Y-38552476D01*
X41790952Y-38600095D01*
X41838571Y-38647714D01*
X41886190Y-38742952D01*
X41886190Y-39123905D01*
X43624667Y-36282381D02*
X43958000Y-37282381D01*
X44291334Y-36282381D01*
X45196096Y-37187143D02*
X45148477Y-37234762D01*
X45005620Y-37282381D01*
X44910382Y-37282381D01*
X44767524Y-37234762D01*
X44672286Y-37139524D01*
X44624667Y-37044286D01*
X44577048Y-36853810D01*
X44577048Y-36710952D01*
X44624667Y-36520476D01*
X44672286Y-36425238D01*
X44767524Y-36330000D01*
X44910382Y-36282381D01*
X45005620Y-36282381D01*
X45148477Y-36330000D01*
X45196096Y-36377619D01*
X46196096Y-37187143D02*
X46148477Y-37234762D01*
X46005620Y-37282381D01*
X45910382Y-37282381D01*
X45767524Y-37234762D01*
X45672286Y-37139524D01*
X45624667Y-37044286D01*
X45577048Y-36853810D01*
X45577048Y-36710952D01*
X45624667Y-36520476D01*
X45672286Y-36425238D01*
X45767524Y-36330000D01*
X45910382Y-36282381D01*
X46005620Y-36282381D01*
X46148477Y-36330000D01*
X46196096Y-36377619D01*
X44196096Y-33790000D02*
X44100858Y-33742381D01*
X43958001Y-33742381D01*
X43815143Y-33790000D01*
X43719905Y-33885238D01*
X43672286Y-33980476D01*
X43624667Y-34170952D01*
X43624667Y-34313810D01*
X43672286Y-34504286D01*
X43719905Y-34599524D01*
X43815143Y-34694762D01*
X43958001Y-34742381D01*
X44053239Y-34742381D01*
X44196096Y-34694762D01*
X44243715Y-34647143D01*
X44243715Y-34313810D01*
X44053239Y-34313810D01*
X44672286Y-34742381D02*
X44672286Y-33742381D01*
X45243715Y-34742381D01*
X45243715Y-33742381D01*
X45719905Y-34742381D02*
X45719905Y-33742381D01*
X45958000Y-33742381D01*
X46100858Y-33790000D01*
X46196096Y-33885238D01*
X46243715Y-33980476D01*
X46291334Y-34170952D01*
X46291334Y-34313810D01*
X46243715Y-34504286D01*
X46196096Y-34599524D01*
X46100858Y-34694762D01*
X45958000Y-34742381D01*
X45719905Y-34742381D01*
X44235715Y-24582381D02*
X43664286Y-24582381D01*
X43950000Y-24582381D02*
X43950000Y-23582381D01*
X43854762Y-23725238D01*
X43759524Y-23820476D01*
X43664286Y-23868095D01*
X44664286Y-24582381D02*
X44664286Y-23582381D01*
X45045239Y-23582381D01*
X45140477Y-23630000D01*
X45188096Y-23677619D01*
X45235715Y-23772857D01*
X45235715Y-23915714D01*
X45188096Y-24010952D01*
X45140477Y-24058571D01*
X45045239Y-24106190D01*
X44664286Y-24106190D01*
X36496667Y-52224014D02*
X36496667Y-52890681D01*
X36258571Y-51843062D02*
X36020476Y-52557348D01*
X36639524Y-52557348D01*
X37020476Y-52890681D02*
X37020476Y-51890681D01*
X37591905Y-52890681D01*
X37591905Y-51890681D01*
X35972857Y-49350681D02*
X36591905Y-49350681D01*
X36258571Y-49731633D01*
X36401429Y-49731633D01*
X36496667Y-49779252D01*
X36544286Y-49826871D01*
X36591905Y-49922110D01*
X36591905Y-50160205D01*
X36544286Y-50255443D01*
X36496667Y-50303062D01*
X36401429Y-50350681D01*
X36115714Y-50350681D01*
X36020476Y-50303062D01*
X35972857Y-50255443D01*
X37020476Y-50350681D02*
X37020476Y-49350681D01*
X37591905Y-50350681D01*
X37591905Y-49350681D01*
X36020476Y-46905919D02*
X36068095Y-46858300D01*
X36163333Y-46810681D01*
X36401429Y-46810681D01*
X36496667Y-46858300D01*
X36544286Y-46905919D01*
X36591905Y-47001157D01*
X36591905Y-47096395D01*
X36544286Y-47239252D01*
X35972857Y-47810681D01*
X36591905Y-47810681D01*
X37020476Y-47810681D02*
X37020476Y-46810681D01*
X37591905Y-47810681D01*
X37591905Y-46810681D01*
X36591905Y-45270681D02*
X36020476Y-45270681D01*
X36306190Y-45270681D02*
X36306190Y-44270681D01*
X36210952Y-44413538D01*
X36115714Y-44508776D01*
X36020476Y-44556395D01*
X37020476Y-45270681D02*
X37020476Y-44270681D01*
X37591905Y-45270681D01*
X37591905Y-44270681D01*
X44140477Y-52224014D02*
X44140477Y-52890681D01*
X43902381Y-51843062D02*
X43664286Y-52557348D01*
X44283334Y-52557348D01*
X44664286Y-52890681D02*
X44664286Y-51890681D01*
X45045239Y-51890681D01*
X45140477Y-51938300D01*
X45188096Y-51985919D01*
X45235715Y-52081157D01*
X45235715Y-52224014D01*
X45188096Y-52319252D01*
X45140477Y-52366871D01*
X45045239Y-52414490D01*
X44664286Y-52414490D01*
X43616667Y-49350681D02*
X44235715Y-49350681D01*
X43902381Y-49731633D01*
X44045239Y-49731633D01*
X44140477Y-49779252D01*
X44188096Y-49826871D01*
X44235715Y-49922110D01*
X44235715Y-50160205D01*
X44188096Y-50255443D01*
X44140477Y-50303062D01*
X44045239Y-50350681D01*
X43759524Y-50350681D01*
X43664286Y-50303062D01*
X43616667Y-50255443D01*
X44664286Y-50350681D02*
X44664286Y-49350681D01*
X45045239Y-49350681D01*
X45140477Y-49398300D01*
X45188096Y-49445919D01*
X45235715Y-49541157D01*
X45235715Y-49684014D01*
X45188096Y-49779252D01*
X45140477Y-49826871D01*
X45045239Y-49874490D01*
X44664286Y-49874490D01*
X43664286Y-46905919D02*
X43711905Y-46858300D01*
X43807143Y-46810681D01*
X44045239Y-46810681D01*
X44140477Y-46858300D01*
X44188096Y-46905919D01*
X44235715Y-47001157D01*
X44235715Y-47096395D01*
X44188096Y-47239252D01*
X43616667Y-47810681D01*
X44235715Y-47810681D01*
X44664286Y-47810681D02*
X44664286Y-46810681D01*
X45045239Y-46810681D01*
X45140477Y-46858300D01*
X45188096Y-46905919D01*
X45235715Y-47001157D01*
X45235715Y-47144014D01*
X45188096Y-47239252D01*
X45140477Y-47286871D01*
X45045239Y-47334490D01*
X44664286Y-47334490D01*
X39822381Y-59836014D02*
X38822381Y-59836014D01*
X39822381Y-59264585D01*
X38822381Y-59264585D01*
X42362381Y-59812205D02*
X41362381Y-59812205D01*
X41362381Y-59431252D01*
X41410000Y-59336014D01*
X41457619Y-59288395D01*
X41552857Y-59240776D01*
X41695714Y-59240776D01*
X41790952Y-59288395D01*
X41838571Y-59336014D01*
X41886190Y-59431252D01*
X41886190Y-59812205D01*
X43624667Y-56970681D02*
X43958000Y-57970681D01*
X44291334Y-56970681D01*
X45196096Y-57875443D02*
X45148477Y-57923062D01*
X45005620Y-57970681D01*
X44910382Y-57970681D01*
X44767524Y-57923062D01*
X44672286Y-57827824D01*
X44624667Y-57732586D01*
X44577048Y-57542110D01*
X44577048Y-57399252D01*
X44624667Y-57208776D01*
X44672286Y-57113538D01*
X44767524Y-57018300D01*
X44910382Y-56970681D01*
X45005620Y-56970681D01*
X45148477Y-57018300D01*
X45196096Y-57065919D01*
X46196096Y-57875443D02*
X46148477Y-57923062D01*
X46005620Y-57970681D01*
X45910382Y-57970681D01*
X45767524Y-57923062D01*
X45672286Y-57827824D01*
X45624667Y-57732586D01*
X45577048Y-57542110D01*
X45577048Y-57399252D01*
X45624667Y-57208776D01*
X45672286Y-57113538D01*
X45767524Y-57018300D01*
X45910382Y-56970681D01*
X46005620Y-56970681D01*
X46148477Y-57018300D01*
X46196096Y-57065919D01*
X43950000Y-55740204D02*
X43902381Y-55835442D01*
X43902381Y-55978299D01*
X43950000Y-56121157D01*
X44045238Y-56216395D01*
X44140476Y-56264014D01*
X44330952Y-56311633D01*
X44473810Y-56311633D01*
X44664286Y-56264014D01*
X44759524Y-56216395D01*
X44854762Y-56121157D01*
X44902381Y-55978299D01*
X44902381Y-55883061D01*
X44854762Y-55740204D01*
X44807143Y-55692585D01*
X44473810Y-55692585D01*
X44473810Y-55883061D01*
X44902381Y-55264014D02*
X43902381Y-55264014D01*
X44902381Y-54692585D01*
X43902381Y-54692585D01*
X44902381Y-54216395D02*
X43902381Y-54216395D01*
X43902381Y-53978300D01*
X43950000Y-53835442D01*
X44045238Y-53740204D01*
X44140476Y-53692585D01*
X44330952Y-53644966D01*
X44473810Y-53644966D01*
X44664286Y-53692585D01*
X44759524Y-53740204D01*
X44854762Y-53835442D01*
X44902381Y-53978300D01*
X44902381Y-54216395D01*
X44235715Y-45270681D02*
X43664286Y-45270681D01*
X43950000Y-45270681D02*
X43950000Y-44270681D01*
X43854762Y-44413538D01*
X43759524Y-44508776D01*
X43664286Y-44556395D01*
X44664286Y-45270681D02*
X44664286Y-44270681D01*
X45045239Y-44270681D01*
X45140477Y-44318300D01*
X45188096Y-44365919D01*
X45235715Y-44461157D01*
X45235715Y-44604014D01*
X45188096Y-44699252D01*
X45140477Y-44746871D01*
X45045239Y-44794490D01*
X44664286Y-44794490D01*
X36496667Y-72912314D02*
X36496667Y-73578981D01*
X36258571Y-72531362D02*
X36020476Y-73245648D01*
X36639524Y-73245648D01*
X37020476Y-73578981D02*
X37020476Y-72578981D01*
X37591905Y-73578981D01*
X37591905Y-72578981D01*
X35972857Y-70038981D02*
X36591905Y-70038981D01*
X36258571Y-70419933D01*
X36401429Y-70419933D01*
X36496667Y-70467552D01*
X36544286Y-70515171D01*
X36591905Y-70610410D01*
X36591905Y-70848505D01*
X36544286Y-70943743D01*
X36496667Y-70991362D01*
X36401429Y-71038981D01*
X36115714Y-71038981D01*
X36020476Y-70991362D01*
X35972857Y-70943743D01*
X37020476Y-71038981D02*
X37020476Y-70038981D01*
X37591905Y-71038981D01*
X37591905Y-70038981D01*
X36020476Y-67594219D02*
X36068095Y-67546600D01*
X36163333Y-67498981D01*
X36401429Y-67498981D01*
X36496667Y-67546600D01*
X36544286Y-67594219D01*
X36591905Y-67689457D01*
X36591905Y-67784695D01*
X36544286Y-67927552D01*
X35972857Y-68498981D01*
X36591905Y-68498981D01*
X37020476Y-68498981D02*
X37020476Y-67498981D01*
X37591905Y-68498981D01*
X37591905Y-67498981D01*
X36591905Y-65958981D02*
X36020476Y-65958981D01*
X36306190Y-65958981D02*
X36306190Y-64958981D01*
X36210952Y-65101838D01*
X36115714Y-65197076D01*
X36020476Y-65244695D01*
X37020476Y-65958981D02*
X37020476Y-64958981D01*
X37591905Y-65958981D01*
X37591905Y-64958981D01*
X44140477Y-72912314D02*
X44140477Y-73578981D01*
X43902381Y-72531362D02*
X43664286Y-73245648D01*
X44283334Y-73245648D01*
X44664286Y-73578981D02*
X44664286Y-72578981D01*
X45045239Y-72578981D01*
X45140477Y-72626600D01*
X45188096Y-72674219D01*
X45235715Y-72769457D01*
X45235715Y-72912314D01*
X45188096Y-73007552D01*
X45140477Y-73055171D01*
X45045239Y-73102790D01*
X44664286Y-73102790D01*
X43616667Y-70038981D02*
X44235715Y-70038981D01*
X43902381Y-70419933D01*
X44045239Y-70419933D01*
X44140477Y-70467552D01*
X44188096Y-70515171D01*
X44235715Y-70610410D01*
X44235715Y-70848505D01*
X44188096Y-70943743D01*
X44140477Y-70991362D01*
X44045239Y-71038981D01*
X43759524Y-71038981D01*
X43664286Y-70991362D01*
X43616667Y-70943743D01*
X44664286Y-71038981D02*
X44664286Y-70038981D01*
X45045239Y-70038981D01*
X45140477Y-70086600D01*
X45188096Y-70134219D01*
X45235715Y-70229457D01*
X45235715Y-70372314D01*
X45188096Y-70467552D01*
X45140477Y-70515171D01*
X45045239Y-70562790D01*
X44664286Y-70562790D01*
X43664286Y-67594219D02*
X43711905Y-67546600D01*
X43807143Y-67498981D01*
X44045239Y-67498981D01*
X44140477Y-67546600D01*
X44188096Y-67594219D01*
X44235715Y-67689457D01*
X44235715Y-67784695D01*
X44188096Y-67927552D01*
X43616667Y-68498981D01*
X44235715Y-68498981D01*
X44664286Y-68498981D02*
X44664286Y-67498981D01*
X45045239Y-67498981D01*
X45140477Y-67546600D01*
X45188096Y-67594219D01*
X45235715Y-67689457D01*
X45235715Y-67832314D01*
X45188096Y-67927552D01*
X45140477Y-67975171D01*
X45045239Y-68022790D01*
X44664286Y-68022790D01*
X39822381Y-80524314D02*
X38822381Y-80524314D01*
X39822381Y-79952885D01*
X38822381Y-79952885D01*
X42362381Y-80500505D02*
X41362381Y-80500505D01*
X41362381Y-80119552D01*
X41410000Y-80024314D01*
X41457619Y-79976695D01*
X41552857Y-79929076D01*
X41695714Y-79929076D01*
X41790952Y-79976695D01*
X41838571Y-80024314D01*
X41886190Y-80119552D01*
X41886190Y-80500505D01*
X43648381Y-80174933D02*
X44648381Y-79841600D01*
X43648381Y-79508266D01*
X44553143Y-78603504D02*
X44600762Y-78651123D01*
X44648381Y-78793980D01*
X44648381Y-78889218D01*
X44600762Y-79032076D01*
X44505524Y-79127314D01*
X44410286Y-79174933D01*
X44219810Y-79222552D01*
X44076952Y-79222552D01*
X43886476Y-79174933D01*
X43791238Y-79127314D01*
X43696000Y-79032076D01*
X43648381Y-78889218D01*
X43648381Y-78793980D01*
X43696000Y-78651123D01*
X43743619Y-78603504D01*
X44553143Y-77603504D02*
X44600762Y-77651123D01*
X44648381Y-77793980D01*
X44648381Y-77889218D01*
X44600762Y-78032076D01*
X44505524Y-78127314D01*
X44410286Y-78174933D01*
X44219810Y-78222552D01*
X44076952Y-78222552D01*
X43886476Y-78174933D01*
X43791238Y-78127314D01*
X43696000Y-78032076D01*
X43648381Y-77889218D01*
X43648381Y-77793980D01*
X43696000Y-77651123D01*
X43743619Y-77603504D01*
X43696000Y-76428504D02*
X43648381Y-76523742D01*
X43648381Y-76666599D01*
X43696000Y-76809457D01*
X43791238Y-76904695D01*
X43886476Y-76952314D01*
X44076952Y-76999933D01*
X44219810Y-76999933D01*
X44410286Y-76952314D01*
X44505524Y-76904695D01*
X44600762Y-76809457D01*
X44648381Y-76666599D01*
X44648381Y-76571361D01*
X44600762Y-76428504D01*
X44553143Y-76380885D01*
X44219810Y-76380885D01*
X44219810Y-76571361D01*
X44648381Y-75952314D02*
X43648381Y-75952314D01*
X44648381Y-75380885D01*
X43648381Y-75380885D01*
X44648381Y-74904695D02*
X43648381Y-74904695D01*
X43648381Y-74666600D01*
X43696000Y-74523742D01*
X43791238Y-74428504D01*
X43886476Y-74380885D01*
X44076952Y-74333266D01*
X44219810Y-74333266D01*
X44410286Y-74380885D01*
X44505524Y-74428504D01*
X44600762Y-74523742D01*
X44648381Y-74666600D01*
X44648381Y-74904695D01*
X44235715Y-65958981D02*
X43664286Y-65958981D01*
X43950000Y-65958981D02*
X43950000Y-64958981D01*
X43854762Y-65101838D01*
X43759524Y-65197076D01*
X43664286Y-65244695D01*
X44664286Y-65958981D02*
X44664286Y-64958981D01*
X45045239Y-64958981D01*
X45140477Y-65006600D01*
X45188096Y-65054219D01*
X45235715Y-65149457D01*
X45235715Y-65292314D01*
X45188096Y-65387552D01*
X45140477Y-65435171D01*
X45045239Y-65482790D01*
X44664286Y-65482790D01*
X36496667Y-93600614D02*
X36496667Y-94267281D01*
X36258571Y-93219662D02*
X36020476Y-93933948D01*
X36639524Y-93933948D01*
X37020476Y-94267281D02*
X37020476Y-93267281D01*
X37591905Y-94267281D01*
X37591905Y-93267281D01*
X35972857Y-90727281D02*
X36591905Y-90727281D01*
X36258571Y-91108233D01*
X36401429Y-91108233D01*
X36496667Y-91155852D01*
X36544286Y-91203471D01*
X36591905Y-91298710D01*
X36591905Y-91536805D01*
X36544286Y-91632043D01*
X36496667Y-91679662D01*
X36401429Y-91727281D01*
X36115714Y-91727281D01*
X36020476Y-91679662D01*
X35972857Y-91632043D01*
X37020476Y-91727281D02*
X37020476Y-90727281D01*
X37591905Y-91727281D01*
X37591905Y-90727281D01*
X36020476Y-88282519D02*
X36068095Y-88234900D01*
X36163333Y-88187281D01*
X36401429Y-88187281D01*
X36496667Y-88234900D01*
X36544286Y-88282519D01*
X36591905Y-88377757D01*
X36591905Y-88472995D01*
X36544286Y-88615852D01*
X35972857Y-89187281D01*
X36591905Y-89187281D01*
X37020476Y-89187281D02*
X37020476Y-88187281D01*
X37591905Y-89187281D01*
X37591905Y-88187281D01*
X36591905Y-86647281D02*
X36020476Y-86647281D01*
X36306190Y-86647281D02*
X36306190Y-85647281D01*
X36210952Y-85790138D01*
X36115714Y-85885376D01*
X36020476Y-85932995D01*
X37020476Y-86647281D02*
X37020476Y-85647281D01*
X37591905Y-86647281D01*
X37591905Y-85647281D01*
X44140477Y-93600614D02*
X44140477Y-94267281D01*
X43902381Y-93219662D02*
X43664286Y-93933948D01*
X44283334Y-93933948D01*
X44664286Y-94267281D02*
X44664286Y-93267281D01*
X45045239Y-93267281D01*
X45140477Y-93314900D01*
X45188096Y-93362519D01*
X45235715Y-93457757D01*
X45235715Y-93600614D01*
X45188096Y-93695852D01*
X45140477Y-93743471D01*
X45045239Y-93791090D01*
X44664286Y-93791090D01*
X43616667Y-90727281D02*
X44235715Y-90727281D01*
X43902381Y-91108233D01*
X44045239Y-91108233D01*
X44140477Y-91155852D01*
X44188096Y-91203471D01*
X44235715Y-91298710D01*
X44235715Y-91536805D01*
X44188096Y-91632043D01*
X44140477Y-91679662D01*
X44045239Y-91727281D01*
X43759524Y-91727281D01*
X43664286Y-91679662D01*
X43616667Y-91632043D01*
X44664286Y-91727281D02*
X44664286Y-90727281D01*
X45045239Y-90727281D01*
X45140477Y-90774900D01*
X45188096Y-90822519D01*
X45235715Y-90917757D01*
X45235715Y-91060614D01*
X45188096Y-91155852D01*
X45140477Y-91203471D01*
X45045239Y-91251090D01*
X44664286Y-91251090D01*
X43664286Y-88282519D02*
X43711905Y-88234900D01*
X43807143Y-88187281D01*
X44045239Y-88187281D01*
X44140477Y-88234900D01*
X44188096Y-88282519D01*
X44235715Y-88377757D01*
X44235715Y-88472995D01*
X44188096Y-88615852D01*
X43616667Y-89187281D01*
X44235715Y-89187281D01*
X44664286Y-89187281D02*
X44664286Y-88187281D01*
X45045239Y-88187281D01*
X45140477Y-88234900D01*
X45188096Y-88282519D01*
X45235715Y-88377757D01*
X45235715Y-88520614D01*
X45188096Y-88615852D01*
X45140477Y-88663471D01*
X45045239Y-88711090D01*
X44664286Y-88711090D01*
X39822381Y-101212614D02*
X38822381Y-101212614D01*
X39822381Y-100641185D01*
X38822381Y-100641185D01*
X42362381Y-101188805D02*
X41362381Y-101188805D01*
X41362381Y-100807852D01*
X41410000Y-100712614D01*
X41457619Y-100664995D01*
X41552857Y-100617376D01*
X41695714Y-100617376D01*
X41790952Y-100664995D01*
X41838571Y-100712614D01*
X41886190Y-100807852D01*
X41886190Y-101188805D01*
X43902381Y-100863233D02*
X44902381Y-100529900D01*
X43902381Y-100196566D01*
X44807143Y-99291804D02*
X44854762Y-99339423D01*
X44902381Y-99482280D01*
X44902381Y-99577518D01*
X44854762Y-99720376D01*
X44759524Y-99815614D01*
X44664286Y-99863233D01*
X44473810Y-99910852D01*
X44330952Y-99910852D01*
X44140476Y-99863233D01*
X44045238Y-99815614D01*
X43950000Y-99720376D01*
X43902381Y-99577518D01*
X43902381Y-99482280D01*
X43950000Y-99339423D01*
X43997619Y-99291804D01*
X44807143Y-98291804D02*
X44854762Y-98339423D01*
X44902381Y-98482280D01*
X44902381Y-98577518D01*
X44854762Y-98720376D01*
X44759524Y-98815614D01*
X44664286Y-98863233D01*
X44473810Y-98910852D01*
X44330952Y-98910852D01*
X44140476Y-98863233D01*
X44045238Y-98815614D01*
X43950000Y-98720376D01*
X43902381Y-98577518D01*
X43902381Y-98482280D01*
X43950000Y-98339423D01*
X43997619Y-98291804D01*
X43950000Y-97116804D02*
X43902381Y-97212042D01*
X43902381Y-97354899D01*
X43950000Y-97497757D01*
X44045238Y-97592995D01*
X44140476Y-97640614D01*
X44330952Y-97688233D01*
X44473810Y-97688233D01*
X44664286Y-97640614D01*
X44759524Y-97592995D01*
X44854762Y-97497757D01*
X44902381Y-97354899D01*
X44902381Y-97259661D01*
X44854762Y-97116804D01*
X44807143Y-97069185D01*
X44473810Y-97069185D01*
X44473810Y-97259661D01*
X44902381Y-96640614D02*
X43902381Y-96640614D01*
X44902381Y-96069185D01*
X43902381Y-96069185D01*
X44902381Y-95592995D02*
X43902381Y-95592995D01*
X43902381Y-95354900D01*
X43950000Y-95212042D01*
X44045238Y-95116804D01*
X44140476Y-95069185D01*
X44330952Y-95021566D01*
X44473810Y-95021566D01*
X44664286Y-95069185D01*
X44759524Y-95116804D01*
X44854762Y-95212042D01*
X44902381Y-95354900D01*
X44902381Y-95592995D01*
X44235715Y-86647281D02*
X43664286Y-86647281D01*
X43950000Y-86647281D02*
X43950000Y-85647281D01*
X43854762Y-85790138D01*
X43759524Y-85885376D01*
X43664286Y-85932995D01*
X44664286Y-86647281D02*
X44664286Y-85647281D01*
X45045239Y-85647281D01*
X45140477Y-85694900D01*
X45188096Y-85742519D01*
X45235715Y-85837757D01*
X45235715Y-85980614D01*
X45188096Y-86075852D01*
X45140477Y-86123471D01*
X45045239Y-86171090D01*
X44664286Y-86171090D01*
M02*
