M48
;DRILL file {KiCad 4.0.4+e1-6308~48~ubuntu14.04.1-stable} date Sun Nov 27 15:18:37 2016
;FORMAT={-:-/ absolute / metric / decimal}
FMAT,2
METRIC,TZ
T1C0.305
T2C1.016
%
G90
G05
M71
T1
X37.465Y-64.77
X37.465Y-66.802
X37.465Y-69.342
X37.465Y-71.882
X37.465Y-74.422
X37.465Y-77.216
X37.465Y-79.756
X37.465Y-84.836
X37.465Y-87.376
X37.465Y-89.916
X37.465Y-92.456
X37.465Y-95.25
X37.465Y-97.79
X37.465Y-99.695
X37.465Y-102.235
X37.465Y-104.775
X37.465Y-106.68
X38.1Y-22.86
X38.1Y-25.4
X38.1Y-27.94
X38.1Y-30.48
X38.1Y-33.02
X38.1Y-35.56
X38.1Y-38.1
X38.1Y-43.18
X38.1Y-46.228
X38.1Y-48.768
X38.1Y-51.308
X38.1Y-53.848
X38.1Y-56.388
X38.1Y-58.928
X38.1Y-77.47
X38.1Y-78.486
X38.1Y-98.171
X38.1Y-99.187
X38.633Y-94.894
X39.37Y-87.478
X39.37Y-89.992
X39.37Y-92.558
X39.37Y-106.68
X39.878Y-46.101
X39.878Y-48.641
X39.878Y-51.181
X39.878Y-53.721
X40.64Y-22.86
X40.64Y-26.035
X40.64Y-28.575
X40.64Y-31.115
X40.64Y-36.195
X40.64Y-38.1
X40.64Y-43.18
X40.64Y-44.577
X40.64Y-46.863
X40.64Y-49.403
X40.64Y-51.943
X40.64Y-56.896
X40.64Y-58.928
X40.64Y-65.278
X40.64Y-67.437
X40.64Y-69.977
X40.64Y-72.517
X40.64Y-77.597
X40.64Y-78.867
X40.64Y-85.725
X40.64Y-88.265
X40.64Y-90.805
X40.64Y-93.345
X40.64Y-95.694
X40.64Y-98.298
X40.64Y-99.568
X41.275Y-106.68
X42.291Y-79.502
X42.291Y-100.203
X42.926Y-98.044
X43.053Y-68.707
X43.053Y-71.247
X43.053Y-88.138
X43.053Y-89.408
X43.053Y-90.678
X43.053Y-91.948
X43.053Y-93.218
X43.053Y-94.488
X43.155Y-53.035
X43.155Y-67.691
X43.18Y-22.86
X43.18Y-27.178
X43.18Y-28.562
X43.18Y-29.845
X43.18Y-32.385
X43.18Y-36.195
X43.18Y-38.1
X43.18Y-43.18
X43.18Y-45.466
X43.18Y-47.955
X43.18Y-49.327
X43.18Y-50.495
X43.18Y-56.896
X43.18Y-57.912
X43.18Y-59.944
X43.18Y-73.533
X43.18Y-77.47
X43.18Y-78.486
X43.18Y-106.68
X43.205Y-66.091
X43.307Y-70.358
X43.307Y-86.868
X43.51Y-75.743
X43.586Y-54.407
X43.688Y-24.13
X43.688Y-29.21
X43.739Y-68.986
X43.815Y-33.655
X43.815Y-52.705
X43.815Y-64.77
X43.84Y-71.628
X43.917Y-49.327
X43.917Y-74.27
X44.196Y-26.67
X44.196Y-31.75
X44.196Y-47.498
X44.196Y-58.928
X44.196Y-81.407
X44.247Y-95.529
X44.348Y-98.603
X44.425Y-53.01
X44.425Y-67.056
X44.45Y-37.465
X44.45Y-92.456
X44.501Y-69.723
X44.577Y-94.361
X44.653Y-74.955
X44.704Y-24.13
X44.704Y-44.704
X44.704Y-60.452
X44.704Y-88.265
X44.806Y-97.739
X44.831Y-80.137
X45.085Y-106.68
X45.161Y-72.212
X45.212Y-70.434
X45.212Y-89.662
X45.237Y-77.445
X45.339Y-54.991
X45.39Y-34.315
X45.593Y-103.505
X45.72Y-22.86
X45.72Y-24.13
X45.72Y-36.195
X45.72Y-38.1
X45.72Y-43.18
X45.72Y-44.704
X45.72Y-64.77
X45.771Y-67.691
X45.872Y-76.175
X45.923Y-75.54
X45.974Y-87.63
X46.076Y-97.13
X46.101Y-99.06
X46.228Y-48.006
X46.228Y-53.086
X46.355Y-102.489
X46.482Y-68.428
X46.533Y-71.145
X46.533Y-78.74
X46.533Y-81.915
X46.533Y-83.312
X46.609Y-46.736
X46.609Y-51.816
X46.634Y-100.889
X46.736Y-24.13
X46.736Y-29.21
X46.736Y-49.276
X46.736Y-58.928
X46.736Y-60.452
X46.736Y-90.17
X46.863Y-48.006
X46.888Y-27.229
X46.939Y-52.908
X46.939Y-54.508
X46.939Y-95.682
X46.965Y-94.031
X46.99Y-33.655
X46.99Y-37.465
X46.99Y-106.68
X47.117Y-45.466
X47.193Y-69.139
X47.219Y-75.006
X47.244Y-26.67
X47.244Y-31.75
X47.346Y-76.835
X47.498Y-56.032
X47.549Y-88.113
X47.625Y-64.77
X47.752Y-24.13
X47.752Y-29.21
X47.904Y-78.029
X48.031Y-89.662
X48.031Y-102.311
X48.133Y-70.434
X48.133Y-75.565
X48.133Y-93.218
X48.133Y-94.742
X48.133Y-95.885
X48.133Y-97.155
X48.133Y-98.298
X48.133Y-99.822
X48.133Y-100.965
X48.133Y-105.918
X48.158Y-76.886
X48.158Y-74.346
X48.158Y-26.086
X48.158Y-31.166
X48.158Y-71.806
X48.184Y-24.689
X48.184Y-29.769
X48.184Y-32.322
X48.209Y-72.974
X48.26Y-22.86
X48.26Y-27.229
X48.26Y-28.626
X48.26Y-33.655
X48.26Y-36.195
X48.26Y-38.1
X48.26Y-43.18
X48.26Y-47.498
X48.26Y-49.022
X48.26Y-50.038
X48.26Y-51.435
X48.26Y-52.578
X48.26Y-54.102
X48.26Y-54.864
X48.26Y-58.928
X48.26Y-60.452
X48.26Y-81.915
X48.26Y-83.312
X48.514Y-104.648
X48.895Y-106.68
X49.022Y-71.12
X49.022Y-25.4
X49.022Y-30.48
X49.022Y-48.26
X49.022Y-53.34
X49.022Y-76.2
X49.022Y-93.98
X49.022Y-99.06
X49.53Y-45.72
X49.53Y-64.77
X49.581Y-68.402
X50.8Y-22.885
X50.8Y-24.638
X50.8Y-29.21
X50.8Y-36.195
X50.8Y-38.1
X50.8Y-43.18
X50.8Y-46.99
X50.8Y-51.562
X50.8Y-58.928
X50.8Y-60.452
X50.8Y-69.85
X50.8Y-74.93
X50.8Y-81.915
X50.8Y-83.312
X50.8Y-92.71
X50.8Y-97.79
X50.8Y-104.394
X50.8Y-106.68
X51.156Y-101.956
X51.308Y-27.94
X51.435Y-64.77
X52.07Y-45.72
X52.07Y-50.8
X52.324Y-25.4
X52.324Y-30.48
X52.324Y-48.26
X52.324Y-53.34
X52.324Y-71.12
X52.324Y-73.66
X52.324Y-76.2
X52.324Y-93.98
X52.324Y-96.52
X52.324Y-99.06
X53.086Y-104.521
X53.086Y-106.299
X53.34Y-22.885
X53.34Y-25.4
X53.34Y-27.94
X53.34Y-30.48
X53.34Y-33.02
X53.34Y-35.56
X53.34Y-38.1
X53.34Y-43.18
X53.34Y-45.72
X53.34Y-48.26
X53.34Y-50.8
X53.34Y-53.34
X53.34Y-55.88
X53.34Y-58.42
X53.34Y-60.452
X53.34Y-81.915
X53.34Y-83.312
X53.975Y-64.77
X53.975Y-66.675
X53.975Y-68.58
X53.975Y-71.12
X53.975Y-73.66
X53.975Y-76.2
X53.975Y-78.74
X53.975Y-81.534
X53.975Y-84.074
X53.975Y-86.36
X53.975Y-88.9
X53.975Y-91.44
X53.975Y-93.98
X53.975Y-96.52
X53.975Y-99.06
X53.975Y-101.6
X53.975Y-104.394
X53.975Y-106.68
T2
X39.37Y-24.13
X39.37Y-26.67
X39.37Y-29.21
X39.37Y-31.75
X39.37Y-34.29
X39.37Y-36.83
X39.37Y-44.818
X39.37Y-47.358
X39.37Y-49.898
X39.37Y-52.438
X39.37Y-54.978
X39.37Y-57.518
X39.37Y-65.507
X39.37Y-68.047
X39.37Y-70.587
X39.37Y-73.127
X39.37Y-75.667
X39.37Y-78.207
X39.37Y-86.195
X39.37Y-88.735
X39.37Y-91.275
X39.37Y-93.815
X39.37Y-96.355
X39.37Y-98.895
X41.91Y-24.13
X41.91Y-26.67
X41.91Y-29.21
X41.91Y-31.75
X41.91Y-34.29
X41.91Y-36.83
X41.91Y-44.818
X41.91Y-47.358
X41.91Y-49.898
X41.91Y-52.438
X41.91Y-54.978
X41.91Y-57.518
X41.91Y-65.507
X41.91Y-68.047
X41.91Y-70.587
X41.91Y-73.127
X41.91Y-75.667
X41.91Y-78.207
X41.91Y-86.195
X41.91Y-88.735
X41.91Y-91.275
X41.91Y-93.815
X41.91Y-96.355
X41.91Y-98.895
X49.53Y-24.13
X49.53Y-26.67
X49.53Y-29.21
X49.53Y-31.75
X49.53Y-34.29
X49.53Y-36.83
X49.53Y-46.99
X49.53Y-49.53
X49.53Y-52.07
X49.53Y-54.61
X49.53Y-57.15
X49.53Y-59.69
X49.53Y-69.85
X49.53Y-72.39
X49.53Y-74.93
X49.53Y-77.47
X49.53Y-80.01
X49.53Y-82.55
X49.53Y-92.71
X49.53Y-95.25
X49.53Y-97.79
X49.53Y-100.33
X49.53Y-102.87
X49.53Y-105.41
X52.07Y-24.13
X52.07Y-26.67
X52.07Y-29.21
X52.07Y-31.75
X52.07Y-34.29
X52.07Y-36.83
X52.07Y-46.99
X52.07Y-49.53
X52.07Y-52.07
X52.07Y-54.61
X52.07Y-57.15
X52.07Y-59.69
X52.07Y-69.85
X52.07Y-72.39
X52.07Y-74.93
X52.07Y-77.47
X52.07Y-80.01
X52.07Y-82.55
X52.07Y-92.71
X52.07Y-95.25
X52.07Y-97.79
X52.07Y-100.33
X52.07Y-102.87
X52.07Y-105.41
T0
M30
