G04 #@! TF.FileFunction,Copper,L2,Bot,Signal*
%FSLAX46Y46*%
G04 Gerber Fmt 4.6, Leading zero omitted, Abs format (unit mm)*
G04 Created by KiCad (PCBNEW 4.0.4+e1-6308~48~ubuntu14.04.1-stable) date Sun Nov 27 15:18:37 2016*
%MOMM*%
%LPD*%
G01*
G04 APERTURE LIST*
%ADD10C,0.350000*%
%ADD11R,1.524000X1.524000*%
%ADD12C,1.524000*%
%ADD13C,0.609600*%
%ADD14C,0.254000*%
%ADD15C,0.127000*%
%ADD16C,0.304800*%
%ADD17C,0.350000*%
%ADD18O,7.499999X1.999999*%
G04 APERTURE END LIST*
D10*
D11*
X49530000Y-24130000D03*
D12*
X52070000Y-24130000D03*
X49530000Y-26670000D03*
X52070000Y-26670000D03*
X49530000Y-29210000D03*
X52070000Y-29210000D03*
X49530000Y-31750000D03*
X52070000Y-31750000D03*
X49530000Y-34290000D03*
X52070000Y-34290000D03*
X49530000Y-36830000D03*
X52070000Y-36830000D03*
D11*
X49530000Y-92710000D03*
D12*
X52070000Y-92710000D03*
X49530000Y-95250000D03*
X52070000Y-95250000D03*
X49530000Y-97790000D03*
X52070000Y-97790000D03*
X49530000Y-100330000D03*
X52070000Y-100330000D03*
X49530000Y-102870000D03*
X52070000Y-102870000D03*
X49530000Y-105410000D03*
X52070000Y-105410000D03*
D11*
X49530000Y-46990000D03*
D12*
X52070000Y-46990000D03*
X49530000Y-49530000D03*
X52070000Y-49530000D03*
X49530000Y-52070000D03*
X52070000Y-52070000D03*
X49530000Y-54610000D03*
X52070000Y-54610000D03*
X49530000Y-57150000D03*
X52070000Y-57150000D03*
X49530000Y-59690000D03*
X52070000Y-59690000D03*
D11*
X49530000Y-69850000D03*
D12*
X52070000Y-69850000D03*
X49530000Y-72390000D03*
X52070000Y-72390000D03*
X49530000Y-74930000D03*
X52070000Y-74930000D03*
X49530000Y-77470000D03*
X52070000Y-77470000D03*
X49530000Y-80010000D03*
X52070000Y-80010000D03*
X49530000Y-82550000D03*
X52070000Y-82550000D03*
D11*
X41910000Y-24130000D03*
D12*
X39370000Y-24130000D03*
X41910000Y-26670000D03*
X39370000Y-26670000D03*
X41910000Y-29210000D03*
X39370000Y-29210000D03*
X41910000Y-31750000D03*
X39370000Y-31750000D03*
X41910000Y-34290000D03*
X39370000Y-34290000D03*
X41910000Y-36830000D03*
X39370000Y-36830000D03*
D11*
X41910000Y-44818300D03*
D12*
X39370000Y-44818300D03*
X41910000Y-47358300D03*
X39370000Y-47358300D03*
X41910000Y-49898300D03*
X39370000Y-49898300D03*
X41910000Y-52438300D03*
X39370000Y-52438300D03*
X41910000Y-54978300D03*
X39370000Y-54978300D03*
X41910000Y-57518300D03*
X39370000Y-57518300D03*
D11*
X41910000Y-65506600D03*
D12*
X39370000Y-65506600D03*
X41910000Y-68046600D03*
X39370000Y-68046600D03*
X41910000Y-70586600D03*
X39370000Y-70586600D03*
X41910000Y-73126600D03*
X39370000Y-73126600D03*
X41910000Y-75666600D03*
X39370000Y-75666600D03*
X41910000Y-78206600D03*
X39370000Y-78206600D03*
D11*
X41910000Y-86194900D03*
D12*
X39370000Y-86194900D03*
X41910000Y-88734900D03*
X39370000Y-88734900D03*
X41910000Y-91274900D03*
X39370000Y-91274900D03*
X41910000Y-93814900D03*
X39370000Y-93814900D03*
X41910000Y-96354900D03*
X39370000Y-96354900D03*
X41910000Y-98894900D03*
X39370000Y-98894900D03*
D13*
X45389800Y-34315400D03*
X53340000Y-38100000D03*
X48260000Y-33655000D03*
X43180000Y-28562300D03*
X43180000Y-29845000D03*
X43180000Y-32385000D03*
X43815000Y-33655000D03*
X46990000Y-33655000D03*
X40640000Y-31115000D03*
X40640000Y-28575000D03*
X40640000Y-26035000D03*
X46990000Y-37465000D03*
X44450000Y-37465000D03*
X40640000Y-36195000D03*
X43180000Y-36195000D03*
X45720000Y-36195000D03*
X48260000Y-36195000D03*
X50800000Y-36195000D03*
X53340000Y-35560000D03*
X50800000Y-38100000D03*
X48260000Y-38100000D03*
X45720000Y-38100000D03*
X43180000Y-38100000D03*
X40640000Y-38100000D03*
X38100000Y-38100000D03*
X38100000Y-35560000D03*
X38100000Y-33020000D03*
X38100000Y-30480000D03*
X38100000Y-27940000D03*
X38100000Y-25400000D03*
X38100000Y-22860000D03*
X40640000Y-22860000D03*
X43180000Y-22860000D03*
X45720000Y-22860000D03*
X48260000Y-22860000D03*
X48183800Y-32321500D03*
X48158400Y-31165800D03*
X48183800Y-29768800D03*
X48183800Y-24688800D03*
X48158400Y-26085800D03*
X46888400Y-27228800D03*
X48260000Y-27228800D03*
X48260000Y-28625800D03*
X49022000Y-30480000D03*
X50800000Y-29210000D03*
X49022000Y-25400000D03*
X50800000Y-24638000D03*
X50800000Y-22885400D03*
X53340000Y-22885400D03*
X52324000Y-25400000D03*
X53340000Y-25400000D03*
X51308000Y-27940000D03*
X53340000Y-27940000D03*
X52324000Y-30480000D03*
X53340000Y-30480000D03*
X53340000Y-33020000D03*
X43180000Y-27178000D03*
X47244012Y-31750000D03*
X44196000Y-31750000D03*
X47752000Y-29210000D03*
X43688000Y-29210000D03*
X46736000Y-29210000D03*
X47244000Y-26670000D03*
X44196000Y-26670000D03*
X47752000Y-24130000D03*
X46736000Y-24130000D03*
X45720000Y-24130000D03*
X43688000Y-24130000D03*
X44704000Y-24130000D03*
X46939200Y-54508400D03*
X46939200Y-52908200D03*
X44424600Y-53009800D03*
X43586400Y-54406800D03*
X43154600Y-53035200D03*
X43180000Y-50495200D03*
X43180000Y-47955200D03*
X43916600Y-49326800D03*
X43180000Y-49326800D03*
X49530000Y-45720000D03*
X46736000Y-49276000D03*
X44196000Y-47498000D03*
X44704000Y-44704000D03*
X45720000Y-44704000D03*
X47117000Y-45466000D03*
X46609000Y-46736000D03*
X46228000Y-48006000D03*
X46863000Y-48006000D03*
X43180000Y-45466000D03*
X43815000Y-52705000D03*
X45339000Y-54991000D03*
X46228000Y-53086000D03*
X46609000Y-51816000D03*
X47498000Y-56032400D03*
X48260000Y-54864000D03*
X48260000Y-51435000D03*
X48260000Y-50038000D03*
X48260000Y-47498000D03*
X48260000Y-49022000D03*
X48260000Y-52578000D03*
X48260000Y-54102000D03*
X49022000Y-48260000D03*
X50800000Y-46990000D03*
X52070000Y-45720000D03*
X49022000Y-53340000D03*
X52324000Y-53340000D03*
X52324000Y-48260000D03*
X50800000Y-51562000D03*
X52070000Y-50800000D03*
X40640000Y-44577000D03*
X40640000Y-51943000D03*
X40640000Y-49403000D03*
X40640000Y-46863000D03*
X39878000Y-46101000D03*
X39878000Y-48641000D03*
X39878000Y-53721000D03*
X39878000Y-51181000D03*
X40640000Y-56896000D03*
X43180000Y-56896000D03*
X43180000Y-57912000D03*
X44196000Y-58928000D03*
X46736000Y-58928000D03*
X48260000Y-58928000D03*
X50800000Y-58928000D03*
X53340000Y-60452000D03*
X50800000Y-60452000D03*
X53340000Y-58420000D03*
X48260000Y-60452000D03*
X46736000Y-60452000D03*
X44704000Y-60452000D03*
X43180000Y-59944000D03*
X40640000Y-58928000D03*
X38100000Y-58928000D03*
X38100000Y-56388000D03*
X38100000Y-53848000D03*
X38100000Y-51308000D03*
X38100000Y-48768000D03*
X38100000Y-46228000D03*
X38100000Y-43180000D03*
X40640000Y-43180000D03*
X43180000Y-43180000D03*
X45720000Y-43180000D03*
X48260000Y-43180000D03*
X50800000Y-43180000D03*
X53340000Y-43180000D03*
X53340000Y-45720000D03*
X53340000Y-48260000D03*
X53340000Y-50800000D03*
X53340000Y-53340000D03*
X53340000Y-55880000D03*
X40640000Y-95694500D03*
X47548800Y-88112600D03*
X38633400Y-94894400D03*
X39370000Y-92557600D03*
X39370000Y-89992200D03*
X39370000Y-87477600D03*
X51155600Y-101955600D03*
X48031400Y-102311200D03*
X44246800Y-95529400D03*
X44348400Y-98602800D03*
X46634400Y-100888800D03*
X45161200Y-72212200D03*
X48031400Y-89662000D03*
X46964600Y-94030800D03*
X46939200Y-95681800D03*
X44805600Y-97739200D03*
X46101000Y-99060000D03*
X46075600Y-97129600D03*
X45212000Y-89662000D03*
X45974000Y-87630000D03*
X44704000Y-88265000D03*
X44577000Y-94361000D03*
X44450000Y-92456000D03*
X46736000Y-90170000D03*
X53086000Y-106299000D03*
X53086000Y-104521000D03*
X48133000Y-105918000D03*
X45593000Y-103505000D03*
X48514000Y-104648000D03*
X46355000Y-102489000D03*
X42926000Y-98044000D03*
X42291000Y-100203000D03*
X40640000Y-99568000D03*
X38100000Y-99187000D03*
X38100000Y-98171000D03*
X40640000Y-98298000D03*
X46532802Y-83312000D03*
X44196000Y-81407000D03*
X42291000Y-79502000D03*
X40640000Y-78867000D03*
X38100000Y-78486000D03*
X38100000Y-77470000D03*
X40640000Y-77597000D03*
X43180000Y-77470000D03*
X53340000Y-83312000D03*
X53340000Y-81915000D03*
X48260000Y-81915000D03*
X50800000Y-81915000D03*
X48260000Y-83312000D03*
X50800000Y-83312000D03*
X44831000Y-80137000D03*
X43180000Y-78486000D03*
X46532802Y-81915000D03*
X53975000Y-86360000D03*
X53975000Y-88900000D03*
X37465000Y-102235000D03*
X37465000Y-104775000D03*
X41275000Y-106680000D03*
X43180000Y-106680000D03*
X45085000Y-106680000D03*
X46990000Y-106680000D03*
X48895000Y-106680000D03*
X39370000Y-106680000D03*
X37465000Y-99695000D03*
X37465000Y-64770000D03*
X53975000Y-66675000D03*
X43815000Y-64770000D03*
X45720000Y-64770000D03*
X47625000Y-64770000D03*
X49530000Y-64770000D03*
X51435000Y-64770000D03*
X43510200Y-75742800D03*
X45237402Y-77444600D03*
X46532802Y-78740000D03*
X47904400Y-78028794D03*
X48158396Y-76885800D03*
X48158398Y-74345800D03*
X48209200Y-72974200D03*
X48158400Y-71805792D03*
X48133000Y-70434200D03*
X46532800Y-71145400D03*
X43205402Y-66090800D03*
X44424600Y-67056008D03*
X45770796Y-67691000D03*
X46482006Y-68427600D03*
X47193202Y-69138800D03*
X49580800Y-68402200D03*
X43154600Y-67691000D03*
X43738800Y-68986400D03*
X44500800Y-69723000D03*
X45212000Y-70434200D03*
X43840400Y-71628000D03*
X47218600Y-75006200D03*
X45923200Y-75539600D03*
X44653200Y-74955400D03*
X43916600Y-74269600D03*
X45872400Y-76174600D03*
X47345600Y-76835000D03*
X49021996Y-71120000D03*
X50800000Y-69850000D03*
X53975000Y-68580000D03*
X53975000Y-64770000D03*
X40640000Y-65278000D03*
X43180000Y-73533000D03*
X43053000Y-71247000D03*
X43307000Y-70358000D03*
X43053000Y-68707000D03*
X40640000Y-72517000D03*
X40640000Y-69977000D03*
X40640000Y-67437000D03*
X43053000Y-94488000D03*
X43307000Y-86868000D03*
X43053000Y-88138000D03*
X43053000Y-89408000D03*
X43053000Y-90678000D03*
X43053000Y-91948000D03*
X43053000Y-93218000D03*
X48133000Y-75565000D03*
X48133000Y-100965000D03*
X48133000Y-95885000D03*
X48133000Y-97155000D03*
X48133000Y-99822000D03*
X48133000Y-98298000D03*
X48133000Y-94742000D03*
X48133000Y-93218000D03*
X49022000Y-99060000D03*
X49022000Y-93980000D03*
X49022000Y-76200000D03*
X50800000Y-74930000D03*
X52324000Y-73660000D03*
X52324000Y-71120000D03*
X52324000Y-76200000D03*
X40640000Y-93345000D03*
X40640000Y-85725000D03*
X40640000Y-88265000D03*
X40640000Y-90805000D03*
X50800000Y-106680000D03*
X50800000Y-104394000D03*
X50800000Y-92710000D03*
X53975000Y-101600000D03*
X52324000Y-96520000D03*
X52324000Y-93980000D03*
X52324000Y-99060000D03*
X50800000Y-97790000D03*
X37465000Y-97790000D03*
X37465000Y-79756000D03*
X37465000Y-77216000D03*
X37465000Y-74422000D03*
X37465000Y-71882000D03*
X37465000Y-69342000D03*
X37465000Y-66802000D03*
X37465000Y-84836000D03*
X37465000Y-87376000D03*
X37465000Y-89916000D03*
X37465000Y-92456000D03*
X37465000Y-95250000D03*
X53975000Y-99060000D03*
X53975000Y-96520000D03*
X53975000Y-93980000D03*
X53975000Y-91440000D03*
X53975000Y-84074000D03*
X53975000Y-81534000D03*
X53975000Y-78740000D03*
X53975000Y-76200000D03*
X53975000Y-73660000D03*
X53975000Y-71120000D03*
X53975000Y-106680000D03*
X53975000Y-104394000D03*
X37465000Y-106680000D03*
D14*
X46990000Y-37465000D02*
X47625000Y-38100000D01*
X47625000Y-38100000D02*
X48260000Y-38100000D01*
X45720000Y-38100000D02*
X45085000Y-38100000D01*
X45085000Y-38100000D02*
X44450000Y-37465000D01*
X40640000Y-36195000D02*
X40005000Y-35560000D01*
X40005000Y-35560000D02*
X38100000Y-35560000D01*
X45720000Y-36195000D02*
X43180000Y-36195000D01*
X50165000Y-35560000D02*
X48895000Y-35560000D01*
X48895000Y-35560000D02*
X48260000Y-36195000D01*
X50800000Y-36195000D02*
X50165000Y-35560000D01*
X53340000Y-38100000D02*
X53340000Y-35560000D01*
X50800000Y-38100000D02*
X53340000Y-38100000D01*
X45720000Y-38100000D02*
X48260000Y-38100000D01*
X40640000Y-38100000D02*
X43180000Y-38100000D01*
X38100000Y-35560000D02*
X38100000Y-38100000D01*
X38100000Y-30480000D02*
X38100000Y-33020000D01*
X38100000Y-25400000D02*
X38100000Y-27940000D01*
X40640000Y-22860000D02*
X38100000Y-22860000D01*
X45720000Y-22860000D02*
X43180000Y-22860000D01*
X48260000Y-22860000D02*
X45720000Y-22860000D01*
X47604129Y-31741829D02*
X48183800Y-32321500D01*
X48183800Y-32321500D02*
X48260000Y-32397700D01*
X48158400Y-31165800D02*
X48083855Y-31091255D01*
X48083855Y-31091255D02*
X47604129Y-31091255D01*
X48183800Y-29768800D02*
X48183800Y-29641800D01*
X48183800Y-29641800D02*
X47752000Y-29210000D01*
X48183800Y-24688800D02*
X48183800Y-24790400D01*
X48183800Y-24790400D02*
X48793400Y-25400000D01*
X48793400Y-25400000D02*
X48158400Y-26035000D01*
X48158400Y-26035000D02*
X48158400Y-26085800D01*
X46888400Y-27228800D02*
X46736000Y-27076400D01*
X46736000Y-27076400D02*
X46736000Y-26670000D01*
X48260000Y-27228800D02*
X47701200Y-26670000D01*
X47701200Y-26670000D02*
X47244000Y-26670000D01*
X48260000Y-28625800D02*
X47752000Y-29133800D01*
X47752000Y-29133800D02*
X47752000Y-29210000D01*
X50800000Y-29718000D02*
X50038000Y-30480000D01*
X50038000Y-30480000D02*
X49022000Y-30480000D01*
X50800000Y-29210000D02*
X50800000Y-29718000D01*
X48793400Y-25400000D02*
X49022000Y-25400000D01*
X50800000Y-22885400D02*
X50800000Y-24638000D01*
X53340000Y-25400000D02*
X53340000Y-22885400D01*
X53340000Y-27940000D02*
X53340000Y-25400000D01*
X53340000Y-30480000D02*
X53340000Y-27940000D01*
X53340000Y-33020000D02*
X53340000Y-30480000D01*
X47604129Y-31091255D02*
X47604129Y-31741829D01*
X47244012Y-31750000D02*
X47244012Y-31451372D01*
X47244012Y-31451372D02*
X47604129Y-31091255D01*
X46736000Y-29210000D02*
X46736000Y-28937976D01*
X46736000Y-28937976D02*
X46351202Y-28553178D01*
X43688000Y-29210000D02*
X43688000Y-29070300D01*
X43688000Y-29070300D02*
X43180000Y-28562300D01*
X44089987Y-27328759D02*
X43330759Y-27328759D01*
X43330759Y-27328759D02*
X43180000Y-27178000D01*
X44196000Y-26670000D02*
X44196000Y-27222746D01*
X44196000Y-27222746D02*
X44089987Y-27328759D01*
X46736000Y-26670000D02*
X47244000Y-26670000D01*
X45720000Y-26670000D02*
X46736000Y-26670000D01*
X45720000Y-31750000D02*
X47244012Y-31750000D01*
X45720000Y-31750000D02*
X45720000Y-29210000D01*
X45720000Y-35051999D02*
X45720000Y-31750000D01*
X45720000Y-31750000D02*
X44196000Y-31750000D01*
X46736000Y-29210000D02*
X47752000Y-29210000D01*
X45720000Y-29210000D02*
X46736000Y-29210000D01*
X45720000Y-26670000D02*
X45720000Y-29210000D01*
X45720000Y-29210000D02*
X43688000Y-29210000D01*
X45720000Y-26670000D02*
X44196000Y-26670000D01*
X46736000Y-24130000D02*
X47752000Y-24130000D01*
X45720000Y-24130000D02*
X46736000Y-24130000D01*
X44704000Y-24130000D02*
X43688000Y-24130000D01*
X45720000Y-24130000D02*
X45720000Y-22860000D01*
X45720000Y-26670000D02*
X45720000Y-24130000D01*
X45720000Y-24130000D02*
X44704000Y-24130000D01*
X45720000Y-22860000D02*
X47625000Y-22860000D01*
X45720000Y-22860000D02*
X43815000Y-22860000D01*
X45720000Y-35051999D02*
X42671999Y-35051999D01*
X48768001Y-35051999D02*
X45720000Y-35051999D01*
X49530000Y-34290000D02*
X48768001Y-35051999D01*
X42671999Y-35051999D02*
X41910000Y-34290000D01*
X49530000Y-34290000D02*
X50291999Y-35051999D01*
X50291999Y-35051999D02*
X51308001Y-35051999D01*
X51308001Y-35051999D02*
X52070000Y-34290000D01*
X39370000Y-34290000D02*
X40131999Y-35051999D01*
X40131999Y-35051999D02*
X41148001Y-35051999D01*
X41148001Y-35051999D02*
X41910000Y-34290000D01*
X46939200Y-52908200D02*
X48133000Y-54102000D01*
X48133000Y-54102000D02*
X48260000Y-54102000D01*
X46228000Y-53086000D02*
X44500800Y-53086000D01*
X44500800Y-53086000D02*
X44424600Y-53009800D01*
X43586400Y-54406800D02*
X44170600Y-54991000D01*
X44170600Y-54991000D02*
X45339000Y-54991000D01*
X43180000Y-54356000D02*
X43180000Y-53060600D01*
X43180000Y-53060600D02*
X43154600Y-53035200D01*
X43154600Y-53035200D02*
X43180000Y-53009800D01*
X43180000Y-53009800D02*
X43180000Y-50495200D01*
X43180000Y-47955200D02*
X43180000Y-45466000D01*
X43180000Y-49326800D02*
X43180000Y-47955200D01*
X43916600Y-49326800D02*
X43967400Y-49276000D01*
X43967400Y-49276000D02*
X46736000Y-49276000D01*
X52070000Y-45720000D02*
X49530000Y-45720000D01*
X46228000Y-48006000D02*
X44704000Y-48006000D01*
X44704000Y-48006000D02*
X44196000Y-47498000D01*
X47117000Y-45466000D02*
X46482000Y-45466000D01*
X46482000Y-45466000D02*
X45720000Y-44704000D01*
X46228000Y-48006000D02*
X46228000Y-47117000D01*
X46228000Y-47117000D02*
X46609000Y-46736000D01*
X48260000Y-47498000D02*
X47371000Y-47498000D01*
X47371000Y-47498000D02*
X46863000Y-48006000D01*
X41910000Y-54978300D02*
X42532300Y-54356000D01*
X42532300Y-54356000D02*
X43180000Y-54356000D01*
X48260000Y-56032400D02*
X47498000Y-56032400D01*
X47498000Y-56032400D02*
X42964100Y-56032400D01*
X48260000Y-54864000D02*
X48260000Y-55270400D01*
X48260000Y-55270400D02*
X47498000Y-56032400D01*
X48260000Y-52578000D02*
X48260000Y-51435000D01*
X48260000Y-49022000D02*
X48260000Y-47498000D01*
X49022000Y-48260000D02*
X48260000Y-49022000D01*
X49022000Y-53340000D02*
X48260000Y-52578000D01*
X49022000Y-53340000D02*
X48260000Y-54102000D01*
X50800000Y-48006000D02*
X50546000Y-48260000D01*
X50546000Y-48260000D02*
X49022000Y-48260000D01*
X50800000Y-46990000D02*
X50800000Y-48006000D01*
X53340000Y-45720000D02*
X52070000Y-45720000D01*
X53340000Y-53340000D02*
X52324000Y-53340000D01*
X52070000Y-50800000D02*
X51562000Y-50800000D01*
X51562000Y-50800000D02*
X50800000Y-51562000D01*
X40640000Y-43180000D02*
X40640000Y-44577000D01*
X39878000Y-48641000D02*
X40640000Y-49403000D01*
X38100000Y-46228000D02*
X38227000Y-46101000D01*
X38227000Y-46101000D02*
X39878000Y-46101000D01*
X38100000Y-53848000D02*
X38227000Y-53721000D01*
X38227000Y-53721000D02*
X39878000Y-53721000D01*
X40640000Y-55740299D02*
X41148001Y-55740299D01*
X40131999Y-55740299D02*
X40640000Y-55740299D01*
X40640000Y-55740299D02*
X40640000Y-56896000D01*
X43180000Y-57912000D02*
X43180000Y-56896000D01*
X46736000Y-58928000D02*
X44196000Y-58928000D01*
X48412400Y-56032400D02*
X48260000Y-56032400D01*
X48260000Y-56032400D02*
X48260000Y-58928000D01*
X50800000Y-57911999D02*
X51308001Y-57911999D01*
X50291999Y-57911999D02*
X50800000Y-57911999D01*
X50800000Y-60452000D02*
X50800000Y-58928000D01*
X50800000Y-58928000D02*
X50800000Y-57912000D01*
X50800000Y-57911999D02*
X50800000Y-58928000D01*
X53340000Y-58420000D02*
X53340000Y-60452000D01*
X53848000Y-56388000D02*
X53340000Y-55880000D01*
X53848000Y-57912000D02*
X53848000Y-56388000D01*
X53340000Y-58420000D02*
X53848000Y-57912000D01*
X46736000Y-60452000D02*
X48260000Y-60452000D01*
X43180000Y-59944000D02*
X43688000Y-60452000D01*
X43688000Y-60452000D02*
X44704000Y-60452000D01*
X38100000Y-58928000D02*
X40640000Y-58928000D01*
X38100000Y-53848000D02*
X38100000Y-56388000D01*
X38100000Y-48768000D02*
X38100000Y-51308000D01*
X38100000Y-43180000D02*
X38100000Y-46228000D01*
X43180000Y-43180000D02*
X40640000Y-43180000D01*
X48260000Y-43180000D02*
X45720000Y-43180000D01*
X53340000Y-43180000D02*
X50800000Y-43180000D01*
X53340000Y-48260000D02*
X53340000Y-45720000D01*
X53340000Y-53340000D02*
X53340000Y-50800000D01*
X52070000Y-57150000D02*
X53340000Y-55880000D01*
X42964100Y-56032400D02*
X41910000Y-54978300D01*
X49530000Y-57150000D02*
X48412400Y-56032400D01*
X49530000Y-57150000D02*
X50291999Y-57911999D01*
X51308001Y-57911999D02*
X52070000Y-57150000D01*
X39370000Y-54978300D02*
X40131999Y-55740299D01*
X41148001Y-55740299D02*
X41910000Y-54978300D01*
X39370000Y-96354900D02*
X39408100Y-96354900D01*
X37566600Y-92557600D02*
X39370000Y-92557600D01*
X39370000Y-92557600D02*
X39852600Y-92557600D01*
X37541200Y-89992200D02*
X39370000Y-89992200D01*
X39370000Y-89992200D02*
X39827200Y-89992200D01*
X37566600Y-87477600D02*
X39370000Y-87477600D01*
X39370000Y-87477600D02*
X39852600Y-87477600D01*
X37465000Y-84836000D02*
X37566600Y-84937600D01*
X37566600Y-84937600D02*
X39852600Y-84937600D01*
X39852600Y-84937600D02*
X40640000Y-85725000D01*
X37465000Y-92456000D02*
X37566600Y-92557600D01*
X39852600Y-92557600D02*
X40640000Y-93345000D01*
X37465000Y-89916000D02*
X37541200Y-89992200D01*
X39827200Y-89992200D02*
X40640000Y-90805000D01*
X37465000Y-87376000D02*
X37566600Y-87477600D01*
X39852600Y-87477600D02*
X40640000Y-88265000D01*
X43840400Y-71628000D02*
X44577000Y-71628000D01*
X44577000Y-71628000D02*
X45161200Y-72212200D01*
X46939200Y-95681800D02*
X46939200Y-94056200D01*
X46939200Y-94056200D02*
X46964600Y-94030800D01*
X48133000Y-95885000D02*
X47142400Y-95885000D01*
X47142400Y-95885000D02*
X46939200Y-95681800D01*
X44081700Y-98526600D02*
X41910000Y-96354900D01*
X44792900Y-99237800D02*
X44081700Y-98526600D01*
X44081700Y-98526600D02*
X44081700Y-98463100D01*
X44081700Y-98463100D02*
X44805600Y-97739200D01*
X45897800Y-99237800D02*
X45923200Y-99237800D01*
X45923200Y-99237800D02*
X46101000Y-99060000D01*
X48133000Y-97155000D02*
X46101000Y-97155000D01*
X46101000Y-97155000D02*
X46075600Y-97129600D01*
X44704000Y-88265000D02*
X44704000Y-89154000D01*
X44704000Y-89154000D02*
X45212000Y-89662000D01*
X46532802Y-87376000D02*
X46532802Y-83312000D01*
X46532802Y-90551000D02*
X46532802Y-87376000D01*
X46532802Y-87376000D02*
X46228000Y-87376000D01*
X46228000Y-87376000D02*
X45974000Y-87630000D01*
X43776900Y-94488000D02*
X45720000Y-92544900D01*
X42671999Y-95592901D02*
X43776900Y-94488000D01*
X43776900Y-94488000D02*
X44450000Y-94488000D01*
X44450000Y-94488000D02*
X44577000Y-94361000D01*
X45720000Y-92544900D02*
X46532802Y-91732098D01*
X45720000Y-92544900D02*
X44538900Y-92544900D01*
X44538900Y-92544900D02*
X44450000Y-92456000D01*
X46532802Y-90551000D02*
X46532802Y-91732098D01*
X46532802Y-90551000D02*
X46532802Y-90373198D01*
X46532802Y-90373198D02*
X46736000Y-90170000D01*
X53975000Y-106680000D02*
X53467000Y-106680000D01*
X53467000Y-106680000D02*
X53086000Y-106299000D01*
X48133000Y-105918000D02*
X48895000Y-106680000D01*
X42291000Y-100203000D02*
X45593000Y-103505000D01*
X42926000Y-98044000D02*
X42926000Y-99060000D01*
X41071799Y-97866201D02*
X42748201Y-97866201D01*
X42748201Y-97866201D02*
X42926000Y-98044000D01*
X38100000Y-98171000D02*
X37846000Y-98171000D01*
X37846000Y-98171000D02*
X37465000Y-97790000D01*
X41275000Y-100203000D02*
X42291000Y-100203000D01*
X40640000Y-99568000D02*
X41275000Y-100203000D01*
X38100000Y-98171000D02*
X38100000Y-99187000D01*
X41071799Y-97866201D02*
X40640000Y-98298000D01*
X48260000Y-83312000D02*
X46532802Y-83312000D01*
X46532802Y-83312000D02*
X46532802Y-81915000D01*
X44196000Y-81407000D02*
X46101000Y-83312000D01*
X46101000Y-83312000D02*
X46532802Y-83312000D01*
X40640000Y-78867000D02*
X41275000Y-79502000D01*
X41275000Y-79502000D02*
X42291000Y-79502000D01*
X38100000Y-77470000D02*
X38100000Y-78486000D01*
X43180000Y-77470000D02*
X42875201Y-77165201D01*
X41071799Y-77165201D02*
X40640000Y-77597000D01*
X42875201Y-77165201D02*
X41071799Y-77165201D01*
X53340000Y-81915000D02*
X53340000Y-83312000D01*
X53975000Y-81534000D02*
X51181000Y-81534000D01*
X51181000Y-81534000D02*
X50800000Y-81915000D01*
X43180000Y-78486000D02*
X44831000Y-80137000D01*
X46532802Y-81915000D02*
X46532802Y-79171052D01*
X53975000Y-91440000D02*
X53975000Y-88900000D01*
X53975000Y-88900000D02*
X53975000Y-84074000D01*
X39370000Y-106680000D02*
X43180000Y-106680000D01*
X50800000Y-106680000D02*
X43180000Y-106680000D01*
X37465000Y-106680000D02*
X39370000Y-106680000D01*
X45720000Y-64770000D02*
X43815000Y-64770000D01*
X51435000Y-64770000D02*
X49530000Y-64770000D01*
X43434000Y-75666600D02*
X43510200Y-75742800D01*
X41910000Y-75666600D02*
X43434000Y-75666600D01*
X43814999Y-76047599D02*
X43510200Y-75742800D01*
X45237400Y-77470000D02*
X43814999Y-76047599D01*
X45237400Y-77622400D02*
X45237400Y-77470000D01*
X45237400Y-77444602D02*
X45237402Y-77444600D01*
X45237400Y-77622400D02*
X45237400Y-77444602D01*
X46532802Y-79171052D02*
X46532802Y-78740000D01*
X46228003Y-78435201D02*
X46532802Y-78740000D01*
X46963854Y-78740000D02*
X46532802Y-78740000D01*
X45237400Y-77622400D02*
X45415202Y-77622400D01*
X49530000Y-80010000D02*
X48260000Y-78740000D01*
X48260000Y-78740000D02*
X46963854Y-78740000D01*
X45415202Y-77622400D02*
X46228003Y-78435201D01*
X48158396Y-77774798D02*
X47904400Y-78028794D01*
X48158396Y-76885800D02*
X48158396Y-77774798D01*
X48768000Y-76276196D02*
X48463195Y-76581001D01*
X48768000Y-76200000D02*
X48768000Y-76276196D01*
X48133000Y-76835000D02*
X48158396Y-76860396D01*
X48158396Y-76860396D02*
X48158396Y-76885800D01*
X48463195Y-76581001D02*
X48158396Y-76885800D01*
X47345600Y-76835000D02*
X48133000Y-76835000D01*
X48133000Y-74371198D02*
X48158398Y-74345800D01*
X48133000Y-75565000D02*
X48133000Y-74371198D01*
X48158400Y-72923400D02*
X48209200Y-72974200D01*
X48158400Y-71805792D02*
X48158400Y-72923400D01*
X47727348Y-71805792D02*
X48158400Y-71805792D01*
X47193192Y-71805792D02*
X47727348Y-71805792D01*
X48336204Y-71805792D02*
X48158400Y-71805792D01*
X46532800Y-71145400D02*
X47193192Y-71805792D01*
X49021996Y-71120000D02*
X48336204Y-71805792D01*
X48133000Y-70662056D02*
X48133000Y-70434200D01*
X49021996Y-71120000D02*
X48590944Y-71120000D01*
X48590944Y-71120000D02*
X48133000Y-70662056D01*
X46228001Y-70840601D02*
X46532800Y-71145400D01*
X45821600Y-70434200D02*
X46228001Y-70840601D01*
X45212000Y-70434200D02*
X45821600Y-70434200D01*
X43205402Y-66521852D02*
X43205402Y-66090800D01*
X42925254Y-66802000D02*
X43205402Y-66521852D01*
X41275000Y-66802000D02*
X42925254Y-66802000D01*
X40640000Y-67437000D02*
X41275000Y-66802000D01*
X44855652Y-67056008D02*
X44424600Y-67056008D01*
X45135804Y-67056008D02*
X44855652Y-67056008D01*
X45770796Y-67691000D02*
X45135804Y-67056008D01*
X43993548Y-67056008D02*
X44424600Y-67056008D01*
X43789592Y-67056008D02*
X43993548Y-67056008D01*
X43154600Y-67691000D02*
X43789592Y-67056008D01*
X45770796Y-67716390D02*
X45770796Y-67691000D01*
X46482006Y-68427600D02*
X45770796Y-67716390D01*
X46482006Y-68427604D02*
X46482006Y-68427600D01*
X47193202Y-69138800D02*
X46482006Y-68427604D01*
X47498001Y-68834001D02*
X47193202Y-69138800D01*
X49580800Y-68402200D02*
X47929802Y-68402200D01*
X47929802Y-68402200D02*
X47498001Y-68834001D01*
X51358800Y-68580000D02*
X49758600Y-68580000D01*
X49758600Y-68580000D02*
X49580800Y-68402200D01*
X43053000Y-68707000D02*
X43053000Y-67792600D01*
X43053000Y-67792600D02*
X43154600Y-67691000D01*
X44500800Y-69723000D02*
X44475400Y-69723000D01*
X44475400Y-69723000D02*
X43738800Y-68986400D01*
X45212000Y-70434200D02*
X44500800Y-69723000D01*
X43053000Y-71247000D02*
X43459400Y-71247000D01*
X43459400Y-71247000D02*
X43840400Y-71628000D01*
X48133000Y-75565000D02*
X47777400Y-75565000D01*
X47777400Y-75565000D02*
X47218600Y-75006200D01*
X45491400Y-75793600D02*
X44653200Y-74955400D01*
X45872400Y-76174600D02*
X45491400Y-75793600D01*
X45491400Y-75793600D02*
X45669200Y-75793600D01*
X45669200Y-75793600D02*
X45923200Y-75539600D01*
X44653200Y-74955400D02*
X43967400Y-74269600D01*
X43967400Y-74269600D02*
X43916600Y-74269600D01*
X47345600Y-76835000D02*
X46532800Y-76835000D01*
X46532800Y-76835000D02*
X45872400Y-76174600D01*
X49453048Y-71120000D02*
X49021996Y-71120000D01*
X50241202Y-71120000D02*
X49453048Y-71120000D01*
X50800000Y-70561202D02*
X50241202Y-71120000D01*
X50800000Y-69850000D02*
X50800000Y-70561202D01*
X51358800Y-68580000D02*
X50800000Y-69138800D01*
X50800000Y-69138800D02*
X50800000Y-69850000D01*
X51562008Y-68580000D02*
X51358800Y-68580000D01*
X53975000Y-68580000D02*
X51562008Y-68580000D01*
X53975000Y-68580000D02*
X53975000Y-64770000D01*
X53975000Y-71120000D02*
X53975000Y-68580000D01*
X37592000Y-64389000D02*
X37465000Y-64389000D01*
X37465000Y-64389000D02*
X37465000Y-66802000D01*
X37592000Y-64389000D02*
X40386000Y-64389000D01*
X40386000Y-64389000D02*
X40640000Y-64643000D01*
X40640000Y-64643000D02*
X40640000Y-65278000D01*
X53975000Y-64770000D02*
X53594000Y-64389000D01*
X53594000Y-64389000D02*
X37592000Y-64389000D01*
X43180000Y-72136000D02*
X43180000Y-73533000D01*
X42926000Y-71882000D02*
X43180000Y-72136000D01*
X41275000Y-71882000D02*
X42926000Y-71882000D01*
X40640000Y-72517000D02*
X41275000Y-71882000D01*
X43307000Y-70358000D02*
X43307000Y-70993000D01*
X43307000Y-70993000D02*
X43053000Y-71247000D01*
X42418000Y-69342000D02*
X42418000Y-69469000D01*
X42418000Y-69469000D02*
X43307000Y-70358000D01*
X41148000Y-69342000D02*
X42418000Y-69342000D01*
X42418000Y-69342000D02*
X43053000Y-68707000D01*
X40640000Y-69850000D02*
X41148000Y-69342000D01*
X40640000Y-69977000D02*
X40640000Y-69850000D01*
X37465000Y-71882000D02*
X40005000Y-71882000D01*
X40005000Y-71882000D02*
X40640000Y-72517000D01*
X37465000Y-69342000D02*
X40005000Y-69342000D01*
X40005000Y-69342000D02*
X40640000Y-69977000D01*
X37465000Y-66802000D02*
X40005000Y-66802000D01*
X40005000Y-66802000D02*
X40640000Y-67437000D01*
X42671999Y-95592901D02*
X42671999Y-94869001D01*
X42671999Y-94869001D02*
X43053000Y-94488000D01*
X42418000Y-87503000D02*
X42672000Y-87503000D01*
X42672000Y-87503000D02*
X43307000Y-86868000D01*
X43053000Y-88138000D02*
X42418000Y-87503000D01*
X42418000Y-87503000D02*
X41402000Y-87503000D01*
X41402000Y-87503000D02*
X40640000Y-88265000D01*
X42672000Y-90043000D02*
X43053000Y-89662000D01*
X43053000Y-89662000D02*
X43053000Y-89408000D01*
X42672000Y-90043000D02*
X43053000Y-90424000D01*
X43053000Y-90424000D02*
X43053000Y-90678000D01*
X43053000Y-91948000D02*
X42926000Y-92075000D01*
X42926000Y-92075000D02*
X42926000Y-92583000D01*
X42926000Y-92583000D02*
X42926000Y-93091000D01*
X42926000Y-93091000D02*
X43053000Y-93218000D01*
X40640000Y-90805000D02*
X41402000Y-90043000D01*
X41402000Y-90043000D02*
X42672000Y-90043000D01*
X41402000Y-92583000D02*
X42926000Y-92583000D01*
X40640000Y-93345000D02*
X41402000Y-92583000D01*
X49022000Y-76200000D02*
X48768000Y-76200000D01*
X48768000Y-76200000D02*
X48133000Y-75565000D01*
X48133000Y-99822000D02*
X48133000Y-100965000D01*
X48133000Y-97155000D02*
X48133000Y-95885000D01*
X48133000Y-98298000D02*
X48133000Y-97155000D01*
X48895000Y-99060000D02*
X48133000Y-99822000D01*
X49022000Y-99060000D02*
X48895000Y-99060000D01*
X48895000Y-99060000D02*
X48133000Y-98298000D01*
X48895000Y-93980000D02*
X48133000Y-94742000D01*
X49022000Y-93980000D02*
X48895000Y-93980000D01*
X48895000Y-93980000D02*
X48133000Y-93218000D01*
X49022000Y-99060000D02*
X50038000Y-99060000D01*
X50038000Y-99060000D02*
X50800000Y-98298000D01*
X50800000Y-98298000D02*
X50800000Y-97790000D01*
X49022000Y-93980000D02*
X50546000Y-93980000D01*
X50546000Y-93980000D02*
X50800000Y-93726000D01*
X50800000Y-93726000D02*
X50800000Y-92710000D01*
X50800000Y-75692000D02*
X50292000Y-76200000D01*
X50292000Y-76200000D02*
X49022000Y-76200000D01*
X50800000Y-74930000D02*
X50800000Y-75692000D01*
X51435000Y-73660000D02*
X50800000Y-74295000D01*
X50800000Y-74295000D02*
X50800000Y-74930000D01*
X52324000Y-73660000D02*
X51435000Y-73660000D01*
X53975000Y-73660000D02*
X52324000Y-73660000D01*
X53975000Y-71120000D02*
X52324000Y-71120000D01*
X53975000Y-76200000D02*
X52324000Y-76200000D01*
X51308001Y-103631999D02*
X50800000Y-103631999D01*
X50800000Y-103631999D02*
X50291999Y-103631999D01*
X50800000Y-104394000D02*
X50800000Y-103631999D01*
X50800000Y-106680000D02*
X53975000Y-106680000D01*
X51308000Y-91440000D02*
X50800000Y-91948000D01*
X50800000Y-91948000D02*
X50800000Y-92710000D01*
X53975000Y-91440000D02*
X51308000Y-91440000D01*
X53975000Y-101600000D02*
X53975000Y-99060000D01*
X53975000Y-104394000D02*
X53975000Y-101600000D01*
X53975000Y-96520000D02*
X52324000Y-96520000D01*
X52324000Y-96520000D02*
X51435000Y-96520000D01*
X53975000Y-93980000D02*
X52324000Y-93980000D01*
X53975000Y-99060000D02*
X52324000Y-99060000D01*
X51435000Y-96520000D02*
X50800000Y-97155000D01*
X50800000Y-97155000D02*
X50800000Y-97790000D01*
X37465000Y-97790000D02*
X37465000Y-95250000D01*
X37465000Y-95250000D02*
X37465000Y-96266000D01*
X37465000Y-92456000D02*
X37465000Y-95250000D01*
X37465000Y-89916000D02*
X37465000Y-92456000D01*
X37465000Y-87376000D02*
X37465000Y-89916000D01*
X37465000Y-84836000D02*
X37465000Y-87376000D01*
X37465000Y-79756000D02*
X37465000Y-84836000D01*
X37465000Y-77216000D02*
X37465000Y-79756000D01*
X37465000Y-74422000D02*
X37465000Y-77216000D01*
X37465000Y-71882000D02*
X37465000Y-74422000D01*
X37465000Y-69342000D02*
X37465000Y-71882000D01*
X37465000Y-66802000D02*
X37465000Y-69342000D01*
X53975000Y-73660000D02*
X53975000Y-71120000D01*
X53975000Y-76200000D02*
X53975000Y-73660000D01*
X53975000Y-78740000D02*
X53975000Y-76200000D01*
X53975000Y-81534000D02*
X53975000Y-78740000D01*
X53975000Y-84074000D02*
X53975000Y-81534000D01*
X53975000Y-93980000D02*
X53975000Y-91440000D01*
X53975000Y-96520000D02*
X53975000Y-93980000D01*
X53975000Y-99060000D02*
X53975000Y-96520000D01*
X37465000Y-96266000D02*
X37465000Y-106680000D01*
X39370000Y-96354900D02*
X37553900Y-96354900D01*
X37553900Y-96354900D02*
X37465000Y-96266000D01*
X53975000Y-104775000D02*
X53975000Y-104394000D01*
X53975000Y-106680000D02*
X53975000Y-106045000D01*
X52070000Y-102870000D02*
X53975000Y-104775000D01*
X53975000Y-104775000D02*
X53975000Y-106045000D01*
X41910000Y-96354900D02*
X42671999Y-95592901D01*
X41910000Y-75666600D02*
X41148001Y-76428599D01*
X40131999Y-76428599D02*
X39370000Y-75666600D01*
X41148001Y-76428599D02*
X40131999Y-76428599D01*
X52070000Y-80010000D02*
X51308001Y-80771999D01*
X50291999Y-80771999D02*
X49530000Y-80010000D01*
X51308001Y-80771999D02*
X50291999Y-80771999D01*
X41910000Y-96354900D02*
X41148001Y-97116899D01*
X41148001Y-97116899D02*
X40131999Y-97116899D01*
X40131999Y-97116899D02*
X39370000Y-96354900D01*
X45897800Y-99237800D02*
X44792900Y-99237800D01*
X49530000Y-102870000D02*
X45897800Y-99237800D01*
X52070000Y-102870000D02*
X51308001Y-103631999D01*
X50291999Y-103631999D02*
X49530000Y-102870000D01*
D15*
G36*
X54546500Y-60896500D02*
X46979772Y-60896500D01*
X46836692Y-60837088D01*
X46636188Y-60836913D01*
X46491975Y-60896500D01*
X45963772Y-60896500D01*
X45820692Y-60837088D01*
X45620188Y-60836913D01*
X45475975Y-60896500D01*
X44947772Y-60896500D01*
X44804692Y-60837088D01*
X44604188Y-60836913D01*
X44459975Y-60896500D01*
X36893500Y-60896500D01*
X36893500Y-59891208D01*
X48513824Y-59891208D01*
X48668175Y-60264766D01*
X48953731Y-60550821D01*
X49327018Y-60705824D01*
X49731208Y-60706176D01*
X50104766Y-60551825D01*
X50390821Y-60266269D01*
X50545824Y-59892982D01*
X50545825Y-59891208D01*
X51053824Y-59891208D01*
X51208175Y-60264766D01*
X51493731Y-60550821D01*
X51867018Y-60705824D01*
X52271208Y-60706176D01*
X52644766Y-60551825D01*
X52930821Y-60266269D01*
X53085824Y-59892982D01*
X53086176Y-59488792D01*
X52931825Y-59115234D01*
X52646269Y-58829179D01*
X52272982Y-58674176D01*
X51868792Y-58673824D01*
X51495234Y-58828175D01*
X51209179Y-59113731D01*
X51054176Y-59487018D01*
X51053824Y-59891208D01*
X50545825Y-59891208D01*
X50546176Y-59488792D01*
X50391825Y-59115234D01*
X50106269Y-58829179D01*
X49732982Y-58674176D01*
X49328792Y-58673824D01*
X48955234Y-58828175D01*
X48669179Y-59113731D01*
X48514176Y-59487018D01*
X48513824Y-59891208D01*
X36893500Y-59891208D01*
X36893500Y-57719508D01*
X38353824Y-57719508D01*
X38508175Y-58093066D01*
X38793731Y-58379121D01*
X39167018Y-58534124D01*
X39571208Y-58534476D01*
X39944766Y-58380125D01*
X40230821Y-58094569D01*
X40385824Y-57721282D01*
X40385825Y-57719508D01*
X40893824Y-57719508D01*
X41048175Y-58093066D01*
X41333731Y-58379121D01*
X41707018Y-58534124D01*
X42111208Y-58534476D01*
X42484766Y-58380125D01*
X42730854Y-58134466D01*
X48814942Y-58134466D01*
X48892834Y-58351082D01*
X49400970Y-58503489D01*
X49928750Y-58449838D01*
X50167166Y-58351082D01*
X50245058Y-58134466D01*
X51354942Y-58134466D01*
X51432834Y-58351082D01*
X51940970Y-58503489D01*
X52468750Y-58449838D01*
X52707166Y-58351082D01*
X52785058Y-58134466D01*
X52070000Y-57419408D01*
X51354942Y-58134466D01*
X50245058Y-58134466D01*
X49530000Y-57419408D01*
X48814942Y-58134466D01*
X42730854Y-58134466D01*
X42770821Y-58094569D01*
X42925824Y-57721282D01*
X42926176Y-57317092D01*
X42803821Y-57020970D01*
X48176511Y-57020970D01*
X48230162Y-57548750D01*
X48328918Y-57787166D01*
X48545534Y-57865058D01*
X49260592Y-57150000D01*
X49799408Y-57150000D01*
X50514466Y-57865058D01*
X50731082Y-57787166D01*
X50788971Y-57594159D01*
X50868918Y-57787166D01*
X51085534Y-57865058D01*
X51800592Y-57150000D01*
X52339408Y-57150000D01*
X53054466Y-57865058D01*
X53271082Y-57787166D01*
X53423489Y-57279030D01*
X53369838Y-56751250D01*
X53271082Y-56512834D01*
X53054466Y-56434942D01*
X52339408Y-57150000D01*
X51800592Y-57150000D01*
X51085534Y-56434942D01*
X50868918Y-56512834D01*
X50811029Y-56705841D01*
X50731082Y-56512834D01*
X50514466Y-56434942D01*
X49799408Y-57150000D01*
X49260592Y-57150000D01*
X48545534Y-56434942D01*
X48328918Y-56512834D01*
X48176511Y-57020970D01*
X42803821Y-57020970D01*
X42771825Y-56943534D01*
X42486269Y-56657479D01*
X42112982Y-56502476D01*
X41708792Y-56502124D01*
X41335234Y-56656475D01*
X41049179Y-56942031D01*
X40894176Y-57315318D01*
X40893824Y-57719508D01*
X40385825Y-57719508D01*
X40386176Y-57317092D01*
X40231825Y-56943534D01*
X39946269Y-56657479D01*
X39572982Y-56502476D01*
X39168792Y-56502124D01*
X38795234Y-56656475D01*
X38509179Y-56942031D01*
X38354176Y-57315318D01*
X38353824Y-57719508D01*
X36893500Y-57719508D01*
X36893500Y-55962766D01*
X38654942Y-55962766D01*
X38732834Y-56179382D01*
X39240970Y-56331789D01*
X39768750Y-56278138D01*
X40007166Y-56179382D01*
X40085058Y-55962766D01*
X41194942Y-55962766D01*
X41272834Y-56179382D01*
X41780970Y-56331789D01*
X42308750Y-56278138D01*
X42547166Y-56179382D01*
X42552145Y-56165534D01*
X48814942Y-56165534D01*
X49530000Y-56880592D01*
X50245058Y-56165534D01*
X51354942Y-56165534D01*
X52070000Y-56880592D01*
X52785058Y-56165534D01*
X52707166Y-55948918D01*
X52199030Y-55796511D01*
X51671250Y-55850162D01*
X51432834Y-55948918D01*
X51354942Y-56165534D01*
X50245058Y-56165534D01*
X50167166Y-55948918D01*
X49659030Y-55796511D01*
X49131250Y-55850162D01*
X48892834Y-55948918D01*
X48814942Y-56165534D01*
X42552145Y-56165534D01*
X42625058Y-55962766D01*
X41910000Y-55247708D01*
X41194942Y-55962766D01*
X40085058Y-55962766D01*
X39370000Y-55247708D01*
X38654942Y-55962766D01*
X36893500Y-55962766D01*
X36893500Y-54849270D01*
X38016511Y-54849270D01*
X38070162Y-55377050D01*
X38168918Y-55615466D01*
X38385534Y-55693358D01*
X39100592Y-54978300D01*
X39639408Y-54978300D01*
X40354466Y-55693358D01*
X40571082Y-55615466D01*
X40628971Y-55422459D01*
X40708918Y-55615466D01*
X40925534Y-55693358D01*
X41640592Y-54978300D01*
X42179408Y-54978300D01*
X42894466Y-55693358D01*
X43111082Y-55615466D01*
X43263489Y-55107330D01*
X43233387Y-54811208D01*
X48513824Y-54811208D01*
X48668175Y-55184766D01*
X48953731Y-55470821D01*
X49327018Y-55625824D01*
X49731208Y-55626176D01*
X50104766Y-55471825D01*
X50390821Y-55186269D01*
X50545824Y-54812982D01*
X50545825Y-54811208D01*
X51053824Y-54811208D01*
X51208175Y-55184766D01*
X51493731Y-55470821D01*
X51867018Y-55625824D01*
X52271208Y-55626176D01*
X52644766Y-55471825D01*
X52930821Y-55186269D01*
X53085824Y-54812982D01*
X53086176Y-54408792D01*
X52931825Y-54035234D01*
X52646269Y-53749179D01*
X52272982Y-53594176D01*
X51868792Y-53593824D01*
X51495234Y-53748175D01*
X51209179Y-54033731D01*
X51054176Y-54407018D01*
X51053824Y-54811208D01*
X50545825Y-54811208D01*
X50546176Y-54408792D01*
X50391825Y-54035234D01*
X50106269Y-53749179D01*
X49732982Y-53594176D01*
X49328792Y-53593824D01*
X48955234Y-53748175D01*
X48669179Y-54033731D01*
X48514176Y-54407018D01*
X48513824Y-54811208D01*
X43233387Y-54811208D01*
X43209838Y-54579550D01*
X43111082Y-54341134D01*
X42894466Y-54263242D01*
X42179408Y-54978300D01*
X41640592Y-54978300D01*
X40925534Y-54263242D01*
X40708918Y-54341134D01*
X40651029Y-54534141D01*
X40571082Y-54341134D01*
X40354466Y-54263242D01*
X39639408Y-54978300D01*
X39100592Y-54978300D01*
X38385534Y-54263242D01*
X38168918Y-54341134D01*
X38016511Y-54849270D01*
X36893500Y-54849270D01*
X36893500Y-53993834D01*
X38654942Y-53993834D01*
X39370000Y-54708892D01*
X40085058Y-53993834D01*
X41194942Y-53993834D01*
X41910000Y-54708892D01*
X42625058Y-53993834D01*
X42547166Y-53777218D01*
X42039030Y-53624811D01*
X41511250Y-53678462D01*
X41272834Y-53777218D01*
X41194942Y-53993834D01*
X40085058Y-53993834D01*
X40007166Y-53777218D01*
X39499030Y-53624811D01*
X38971250Y-53678462D01*
X38732834Y-53777218D01*
X38654942Y-53993834D01*
X36893500Y-53993834D01*
X36893500Y-52639508D01*
X38353824Y-52639508D01*
X38508175Y-53013066D01*
X38793731Y-53299121D01*
X39167018Y-53454124D01*
X39571208Y-53454476D01*
X39944766Y-53300125D01*
X40230821Y-53014569D01*
X40385824Y-52641282D01*
X40385825Y-52639508D01*
X40893824Y-52639508D01*
X41048175Y-53013066D01*
X41333731Y-53299121D01*
X41707018Y-53454124D01*
X42111208Y-53454476D01*
X42484766Y-53300125D01*
X42770821Y-53014569D01*
X42925824Y-52641282D01*
X42926146Y-52271208D01*
X48513824Y-52271208D01*
X48668175Y-52644766D01*
X48953731Y-52930821D01*
X49327018Y-53085824D01*
X49731208Y-53086176D01*
X50104766Y-52931825D01*
X50390821Y-52646269D01*
X50545824Y-52272982D01*
X50545825Y-52271208D01*
X51053824Y-52271208D01*
X51208175Y-52644766D01*
X51493731Y-52930821D01*
X51867018Y-53085824D01*
X52271208Y-53086176D01*
X52644766Y-52931825D01*
X52930821Y-52646269D01*
X53085824Y-52272982D01*
X53086176Y-51868792D01*
X52931825Y-51495234D01*
X52646269Y-51209179D01*
X52272982Y-51054176D01*
X51868792Y-51053824D01*
X51495234Y-51208175D01*
X51209179Y-51493731D01*
X51054176Y-51867018D01*
X51053824Y-52271208D01*
X50545825Y-52271208D01*
X50546176Y-51868792D01*
X50391825Y-51495234D01*
X50106269Y-51209179D01*
X49732982Y-51054176D01*
X49328792Y-51053824D01*
X48955234Y-51208175D01*
X48669179Y-51493731D01*
X48514176Y-51867018D01*
X48513824Y-52271208D01*
X42926146Y-52271208D01*
X42926176Y-52237092D01*
X42771825Y-51863534D01*
X42486269Y-51577479D01*
X42112982Y-51422476D01*
X41708792Y-51422124D01*
X41335234Y-51576475D01*
X41049179Y-51862031D01*
X40894176Y-52235318D01*
X40893824Y-52639508D01*
X40385825Y-52639508D01*
X40386176Y-52237092D01*
X40231825Y-51863534D01*
X39946269Y-51577479D01*
X39572982Y-51422476D01*
X39168792Y-51422124D01*
X38795234Y-51576475D01*
X38509179Y-51862031D01*
X38354176Y-52235318D01*
X38353824Y-52639508D01*
X36893500Y-52639508D01*
X36893500Y-50099508D01*
X38353824Y-50099508D01*
X38508175Y-50473066D01*
X38793731Y-50759121D01*
X39167018Y-50914124D01*
X39571208Y-50914476D01*
X39944766Y-50760125D01*
X40230821Y-50474569D01*
X40385824Y-50101282D01*
X40385825Y-50099508D01*
X40893824Y-50099508D01*
X41048175Y-50473066D01*
X41333731Y-50759121D01*
X41707018Y-50914124D01*
X42111208Y-50914476D01*
X42484766Y-50760125D01*
X42770821Y-50474569D01*
X42925824Y-50101282D01*
X42926146Y-49731208D01*
X48513824Y-49731208D01*
X48668175Y-50104766D01*
X48953731Y-50390821D01*
X49327018Y-50545824D01*
X49731208Y-50546176D01*
X50104766Y-50391825D01*
X50390821Y-50106269D01*
X50545824Y-49732982D01*
X50545825Y-49731208D01*
X51053824Y-49731208D01*
X51208175Y-50104766D01*
X51493731Y-50390821D01*
X51867018Y-50545824D01*
X52271208Y-50546176D01*
X52644766Y-50391825D01*
X52930821Y-50106269D01*
X53085824Y-49732982D01*
X53086176Y-49328792D01*
X52931825Y-48955234D01*
X52646269Y-48669179D01*
X52272982Y-48514176D01*
X51868792Y-48513824D01*
X51495234Y-48668175D01*
X51209179Y-48953731D01*
X51054176Y-49327018D01*
X51053824Y-49731208D01*
X50545825Y-49731208D01*
X50546176Y-49328792D01*
X50391825Y-48955234D01*
X50106269Y-48669179D01*
X49732982Y-48514176D01*
X49328792Y-48513824D01*
X48955234Y-48668175D01*
X48669179Y-48953731D01*
X48514176Y-49327018D01*
X48513824Y-49731208D01*
X42926146Y-49731208D01*
X42926176Y-49697092D01*
X42771825Y-49323534D01*
X42486269Y-49037479D01*
X42112982Y-48882476D01*
X41708792Y-48882124D01*
X41335234Y-49036475D01*
X41049179Y-49322031D01*
X40894176Y-49695318D01*
X40893824Y-50099508D01*
X40385825Y-50099508D01*
X40386176Y-49697092D01*
X40231825Y-49323534D01*
X39946269Y-49037479D01*
X39572982Y-48882476D01*
X39168792Y-48882124D01*
X38795234Y-49036475D01*
X38509179Y-49322031D01*
X38354176Y-49695318D01*
X38353824Y-50099508D01*
X36893500Y-50099508D01*
X36893500Y-47559508D01*
X38353824Y-47559508D01*
X38508175Y-47933066D01*
X38793731Y-48219121D01*
X39167018Y-48374124D01*
X39571208Y-48374476D01*
X39944766Y-48220125D01*
X40230821Y-47934569D01*
X40385824Y-47561282D01*
X40385825Y-47559508D01*
X40893824Y-47559508D01*
X41048175Y-47933066D01*
X41333731Y-48219121D01*
X41707018Y-48374124D01*
X42111208Y-48374476D01*
X42484766Y-48220125D01*
X42770821Y-47934569D01*
X42925824Y-47561282D01*
X42926176Y-47157092D01*
X42771825Y-46783534D01*
X42486269Y-46497479D01*
X42112982Y-46342476D01*
X41708792Y-46342124D01*
X41335234Y-46496475D01*
X41049179Y-46782031D01*
X40894176Y-47155318D01*
X40893824Y-47559508D01*
X40385825Y-47559508D01*
X40386176Y-47157092D01*
X40231825Y-46783534D01*
X39946269Y-46497479D01*
X39572982Y-46342476D01*
X39168792Y-46342124D01*
X38795234Y-46496475D01*
X38509179Y-46782031D01*
X38354176Y-47155318D01*
X38353824Y-47559508D01*
X36893500Y-47559508D01*
X36893500Y-46228000D01*
X48509024Y-46228000D01*
X48509024Y-47752000D01*
X48526735Y-47846127D01*
X48582364Y-47932576D01*
X48667244Y-47990572D01*
X48768000Y-48010976D01*
X50292000Y-48010976D01*
X50386127Y-47993265D01*
X50472576Y-47937636D01*
X50530572Y-47852756D01*
X50550976Y-47752000D01*
X50550976Y-47191208D01*
X51053824Y-47191208D01*
X51208175Y-47564766D01*
X51493731Y-47850821D01*
X51867018Y-48005824D01*
X52271208Y-48006176D01*
X52644766Y-47851825D01*
X52930821Y-47566269D01*
X53085824Y-47192982D01*
X53086176Y-46788792D01*
X52931825Y-46415234D01*
X52646269Y-46129179D01*
X52272982Y-45974176D01*
X51868792Y-45973824D01*
X51495234Y-46128175D01*
X51209179Y-46413731D01*
X51054176Y-46787018D01*
X51053824Y-47191208D01*
X50550976Y-47191208D01*
X50550976Y-46228000D01*
X50533265Y-46133873D01*
X50477636Y-46047424D01*
X50392756Y-45989428D01*
X50292000Y-45969024D01*
X48768000Y-45969024D01*
X48673873Y-45986735D01*
X48587424Y-46042364D01*
X48529428Y-46127244D01*
X48509024Y-46228000D01*
X36893500Y-46228000D01*
X36893500Y-45019508D01*
X38353824Y-45019508D01*
X38508175Y-45393066D01*
X38793731Y-45679121D01*
X39167018Y-45834124D01*
X39571208Y-45834476D01*
X39944766Y-45680125D01*
X40230821Y-45394569D01*
X40385824Y-45021282D01*
X40386176Y-44617092D01*
X40231825Y-44243534D01*
X40044918Y-44056300D01*
X40889024Y-44056300D01*
X40889024Y-45580300D01*
X40906735Y-45674427D01*
X40962364Y-45760876D01*
X41047244Y-45818872D01*
X41148000Y-45839276D01*
X42672000Y-45839276D01*
X42766127Y-45821565D01*
X42852576Y-45765936D01*
X42910572Y-45681056D01*
X42930976Y-45580300D01*
X42930976Y-44056300D01*
X42913265Y-43962173D01*
X42857636Y-43875724D01*
X42772756Y-43817728D01*
X42672000Y-43797324D01*
X41148000Y-43797324D01*
X41053873Y-43815035D01*
X40967424Y-43870664D01*
X40909428Y-43955544D01*
X40889024Y-44056300D01*
X40044918Y-44056300D01*
X39946269Y-43957479D01*
X39572982Y-43802476D01*
X39168792Y-43802124D01*
X38795234Y-43956475D01*
X38509179Y-44242031D01*
X38354176Y-44615318D01*
X38353824Y-45019508D01*
X36893500Y-45019508D01*
X36893500Y-42608500D01*
X54546500Y-42608500D01*
X54546500Y-60896500D01*
X54546500Y-60896500D01*
G37*
X54546500Y-60896500D02*
X46979772Y-60896500D01*
X46836692Y-60837088D01*
X46636188Y-60836913D01*
X46491975Y-60896500D01*
X45963772Y-60896500D01*
X45820692Y-60837088D01*
X45620188Y-60836913D01*
X45475975Y-60896500D01*
X44947772Y-60896500D01*
X44804692Y-60837088D01*
X44604188Y-60836913D01*
X44459975Y-60896500D01*
X36893500Y-60896500D01*
X36893500Y-59891208D01*
X48513824Y-59891208D01*
X48668175Y-60264766D01*
X48953731Y-60550821D01*
X49327018Y-60705824D01*
X49731208Y-60706176D01*
X50104766Y-60551825D01*
X50390821Y-60266269D01*
X50545824Y-59892982D01*
X50545825Y-59891208D01*
X51053824Y-59891208D01*
X51208175Y-60264766D01*
X51493731Y-60550821D01*
X51867018Y-60705824D01*
X52271208Y-60706176D01*
X52644766Y-60551825D01*
X52930821Y-60266269D01*
X53085824Y-59892982D01*
X53086176Y-59488792D01*
X52931825Y-59115234D01*
X52646269Y-58829179D01*
X52272982Y-58674176D01*
X51868792Y-58673824D01*
X51495234Y-58828175D01*
X51209179Y-59113731D01*
X51054176Y-59487018D01*
X51053824Y-59891208D01*
X50545825Y-59891208D01*
X50546176Y-59488792D01*
X50391825Y-59115234D01*
X50106269Y-58829179D01*
X49732982Y-58674176D01*
X49328792Y-58673824D01*
X48955234Y-58828175D01*
X48669179Y-59113731D01*
X48514176Y-59487018D01*
X48513824Y-59891208D01*
X36893500Y-59891208D01*
X36893500Y-57719508D01*
X38353824Y-57719508D01*
X38508175Y-58093066D01*
X38793731Y-58379121D01*
X39167018Y-58534124D01*
X39571208Y-58534476D01*
X39944766Y-58380125D01*
X40230821Y-58094569D01*
X40385824Y-57721282D01*
X40385825Y-57719508D01*
X40893824Y-57719508D01*
X41048175Y-58093066D01*
X41333731Y-58379121D01*
X41707018Y-58534124D01*
X42111208Y-58534476D01*
X42484766Y-58380125D01*
X42730854Y-58134466D01*
X48814942Y-58134466D01*
X48892834Y-58351082D01*
X49400970Y-58503489D01*
X49928750Y-58449838D01*
X50167166Y-58351082D01*
X50245058Y-58134466D01*
X51354942Y-58134466D01*
X51432834Y-58351082D01*
X51940970Y-58503489D01*
X52468750Y-58449838D01*
X52707166Y-58351082D01*
X52785058Y-58134466D01*
X52070000Y-57419408D01*
X51354942Y-58134466D01*
X50245058Y-58134466D01*
X49530000Y-57419408D01*
X48814942Y-58134466D01*
X42730854Y-58134466D01*
X42770821Y-58094569D01*
X42925824Y-57721282D01*
X42926176Y-57317092D01*
X42803821Y-57020970D01*
X48176511Y-57020970D01*
X48230162Y-57548750D01*
X48328918Y-57787166D01*
X48545534Y-57865058D01*
X49260592Y-57150000D01*
X49799408Y-57150000D01*
X50514466Y-57865058D01*
X50731082Y-57787166D01*
X50788971Y-57594159D01*
X50868918Y-57787166D01*
X51085534Y-57865058D01*
X51800592Y-57150000D01*
X52339408Y-57150000D01*
X53054466Y-57865058D01*
X53271082Y-57787166D01*
X53423489Y-57279030D01*
X53369838Y-56751250D01*
X53271082Y-56512834D01*
X53054466Y-56434942D01*
X52339408Y-57150000D01*
X51800592Y-57150000D01*
X51085534Y-56434942D01*
X50868918Y-56512834D01*
X50811029Y-56705841D01*
X50731082Y-56512834D01*
X50514466Y-56434942D01*
X49799408Y-57150000D01*
X49260592Y-57150000D01*
X48545534Y-56434942D01*
X48328918Y-56512834D01*
X48176511Y-57020970D01*
X42803821Y-57020970D01*
X42771825Y-56943534D01*
X42486269Y-56657479D01*
X42112982Y-56502476D01*
X41708792Y-56502124D01*
X41335234Y-56656475D01*
X41049179Y-56942031D01*
X40894176Y-57315318D01*
X40893824Y-57719508D01*
X40385825Y-57719508D01*
X40386176Y-57317092D01*
X40231825Y-56943534D01*
X39946269Y-56657479D01*
X39572982Y-56502476D01*
X39168792Y-56502124D01*
X38795234Y-56656475D01*
X38509179Y-56942031D01*
X38354176Y-57315318D01*
X38353824Y-57719508D01*
X36893500Y-57719508D01*
X36893500Y-55962766D01*
X38654942Y-55962766D01*
X38732834Y-56179382D01*
X39240970Y-56331789D01*
X39768750Y-56278138D01*
X40007166Y-56179382D01*
X40085058Y-55962766D01*
X41194942Y-55962766D01*
X41272834Y-56179382D01*
X41780970Y-56331789D01*
X42308750Y-56278138D01*
X42547166Y-56179382D01*
X42552145Y-56165534D01*
X48814942Y-56165534D01*
X49530000Y-56880592D01*
X50245058Y-56165534D01*
X51354942Y-56165534D01*
X52070000Y-56880592D01*
X52785058Y-56165534D01*
X52707166Y-55948918D01*
X52199030Y-55796511D01*
X51671250Y-55850162D01*
X51432834Y-55948918D01*
X51354942Y-56165534D01*
X50245058Y-56165534D01*
X50167166Y-55948918D01*
X49659030Y-55796511D01*
X49131250Y-55850162D01*
X48892834Y-55948918D01*
X48814942Y-56165534D01*
X42552145Y-56165534D01*
X42625058Y-55962766D01*
X41910000Y-55247708D01*
X41194942Y-55962766D01*
X40085058Y-55962766D01*
X39370000Y-55247708D01*
X38654942Y-55962766D01*
X36893500Y-55962766D01*
X36893500Y-54849270D01*
X38016511Y-54849270D01*
X38070162Y-55377050D01*
X38168918Y-55615466D01*
X38385534Y-55693358D01*
X39100592Y-54978300D01*
X39639408Y-54978300D01*
X40354466Y-55693358D01*
X40571082Y-55615466D01*
X40628971Y-55422459D01*
X40708918Y-55615466D01*
X40925534Y-55693358D01*
X41640592Y-54978300D01*
X42179408Y-54978300D01*
X42894466Y-55693358D01*
X43111082Y-55615466D01*
X43263489Y-55107330D01*
X43233387Y-54811208D01*
X48513824Y-54811208D01*
X48668175Y-55184766D01*
X48953731Y-55470821D01*
X49327018Y-55625824D01*
X49731208Y-55626176D01*
X50104766Y-55471825D01*
X50390821Y-55186269D01*
X50545824Y-54812982D01*
X50545825Y-54811208D01*
X51053824Y-54811208D01*
X51208175Y-55184766D01*
X51493731Y-55470821D01*
X51867018Y-55625824D01*
X52271208Y-55626176D01*
X52644766Y-55471825D01*
X52930821Y-55186269D01*
X53085824Y-54812982D01*
X53086176Y-54408792D01*
X52931825Y-54035234D01*
X52646269Y-53749179D01*
X52272982Y-53594176D01*
X51868792Y-53593824D01*
X51495234Y-53748175D01*
X51209179Y-54033731D01*
X51054176Y-54407018D01*
X51053824Y-54811208D01*
X50545825Y-54811208D01*
X50546176Y-54408792D01*
X50391825Y-54035234D01*
X50106269Y-53749179D01*
X49732982Y-53594176D01*
X49328792Y-53593824D01*
X48955234Y-53748175D01*
X48669179Y-54033731D01*
X48514176Y-54407018D01*
X48513824Y-54811208D01*
X43233387Y-54811208D01*
X43209838Y-54579550D01*
X43111082Y-54341134D01*
X42894466Y-54263242D01*
X42179408Y-54978300D01*
X41640592Y-54978300D01*
X40925534Y-54263242D01*
X40708918Y-54341134D01*
X40651029Y-54534141D01*
X40571082Y-54341134D01*
X40354466Y-54263242D01*
X39639408Y-54978300D01*
X39100592Y-54978300D01*
X38385534Y-54263242D01*
X38168918Y-54341134D01*
X38016511Y-54849270D01*
X36893500Y-54849270D01*
X36893500Y-53993834D01*
X38654942Y-53993834D01*
X39370000Y-54708892D01*
X40085058Y-53993834D01*
X41194942Y-53993834D01*
X41910000Y-54708892D01*
X42625058Y-53993834D01*
X42547166Y-53777218D01*
X42039030Y-53624811D01*
X41511250Y-53678462D01*
X41272834Y-53777218D01*
X41194942Y-53993834D01*
X40085058Y-53993834D01*
X40007166Y-53777218D01*
X39499030Y-53624811D01*
X38971250Y-53678462D01*
X38732834Y-53777218D01*
X38654942Y-53993834D01*
X36893500Y-53993834D01*
X36893500Y-52639508D01*
X38353824Y-52639508D01*
X38508175Y-53013066D01*
X38793731Y-53299121D01*
X39167018Y-53454124D01*
X39571208Y-53454476D01*
X39944766Y-53300125D01*
X40230821Y-53014569D01*
X40385824Y-52641282D01*
X40385825Y-52639508D01*
X40893824Y-52639508D01*
X41048175Y-53013066D01*
X41333731Y-53299121D01*
X41707018Y-53454124D01*
X42111208Y-53454476D01*
X42484766Y-53300125D01*
X42770821Y-53014569D01*
X42925824Y-52641282D01*
X42926146Y-52271208D01*
X48513824Y-52271208D01*
X48668175Y-52644766D01*
X48953731Y-52930821D01*
X49327018Y-53085824D01*
X49731208Y-53086176D01*
X50104766Y-52931825D01*
X50390821Y-52646269D01*
X50545824Y-52272982D01*
X50545825Y-52271208D01*
X51053824Y-52271208D01*
X51208175Y-52644766D01*
X51493731Y-52930821D01*
X51867018Y-53085824D01*
X52271208Y-53086176D01*
X52644766Y-52931825D01*
X52930821Y-52646269D01*
X53085824Y-52272982D01*
X53086176Y-51868792D01*
X52931825Y-51495234D01*
X52646269Y-51209179D01*
X52272982Y-51054176D01*
X51868792Y-51053824D01*
X51495234Y-51208175D01*
X51209179Y-51493731D01*
X51054176Y-51867018D01*
X51053824Y-52271208D01*
X50545825Y-52271208D01*
X50546176Y-51868792D01*
X50391825Y-51495234D01*
X50106269Y-51209179D01*
X49732982Y-51054176D01*
X49328792Y-51053824D01*
X48955234Y-51208175D01*
X48669179Y-51493731D01*
X48514176Y-51867018D01*
X48513824Y-52271208D01*
X42926146Y-52271208D01*
X42926176Y-52237092D01*
X42771825Y-51863534D01*
X42486269Y-51577479D01*
X42112982Y-51422476D01*
X41708792Y-51422124D01*
X41335234Y-51576475D01*
X41049179Y-51862031D01*
X40894176Y-52235318D01*
X40893824Y-52639508D01*
X40385825Y-52639508D01*
X40386176Y-52237092D01*
X40231825Y-51863534D01*
X39946269Y-51577479D01*
X39572982Y-51422476D01*
X39168792Y-51422124D01*
X38795234Y-51576475D01*
X38509179Y-51862031D01*
X38354176Y-52235318D01*
X38353824Y-52639508D01*
X36893500Y-52639508D01*
X36893500Y-50099508D01*
X38353824Y-50099508D01*
X38508175Y-50473066D01*
X38793731Y-50759121D01*
X39167018Y-50914124D01*
X39571208Y-50914476D01*
X39944766Y-50760125D01*
X40230821Y-50474569D01*
X40385824Y-50101282D01*
X40385825Y-50099508D01*
X40893824Y-50099508D01*
X41048175Y-50473066D01*
X41333731Y-50759121D01*
X41707018Y-50914124D01*
X42111208Y-50914476D01*
X42484766Y-50760125D01*
X42770821Y-50474569D01*
X42925824Y-50101282D01*
X42926146Y-49731208D01*
X48513824Y-49731208D01*
X48668175Y-50104766D01*
X48953731Y-50390821D01*
X49327018Y-50545824D01*
X49731208Y-50546176D01*
X50104766Y-50391825D01*
X50390821Y-50106269D01*
X50545824Y-49732982D01*
X50545825Y-49731208D01*
X51053824Y-49731208D01*
X51208175Y-50104766D01*
X51493731Y-50390821D01*
X51867018Y-50545824D01*
X52271208Y-50546176D01*
X52644766Y-50391825D01*
X52930821Y-50106269D01*
X53085824Y-49732982D01*
X53086176Y-49328792D01*
X52931825Y-48955234D01*
X52646269Y-48669179D01*
X52272982Y-48514176D01*
X51868792Y-48513824D01*
X51495234Y-48668175D01*
X51209179Y-48953731D01*
X51054176Y-49327018D01*
X51053824Y-49731208D01*
X50545825Y-49731208D01*
X50546176Y-49328792D01*
X50391825Y-48955234D01*
X50106269Y-48669179D01*
X49732982Y-48514176D01*
X49328792Y-48513824D01*
X48955234Y-48668175D01*
X48669179Y-48953731D01*
X48514176Y-49327018D01*
X48513824Y-49731208D01*
X42926146Y-49731208D01*
X42926176Y-49697092D01*
X42771825Y-49323534D01*
X42486269Y-49037479D01*
X42112982Y-48882476D01*
X41708792Y-48882124D01*
X41335234Y-49036475D01*
X41049179Y-49322031D01*
X40894176Y-49695318D01*
X40893824Y-50099508D01*
X40385825Y-50099508D01*
X40386176Y-49697092D01*
X40231825Y-49323534D01*
X39946269Y-49037479D01*
X39572982Y-48882476D01*
X39168792Y-48882124D01*
X38795234Y-49036475D01*
X38509179Y-49322031D01*
X38354176Y-49695318D01*
X38353824Y-50099508D01*
X36893500Y-50099508D01*
X36893500Y-47559508D01*
X38353824Y-47559508D01*
X38508175Y-47933066D01*
X38793731Y-48219121D01*
X39167018Y-48374124D01*
X39571208Y-48374476D01*
X39944766Y-48220125D01*
X40230821Y-47934569D01*
X40385824Y-47561282D01*
X40385825Y-47559508D01*
X40893824Y-47559508D01*
X41048175Y-47933066D01*
X41333731Y-48219121D01*
X41707018Y-48374124D01*
X42111208Y-48374476D01*
X42484766Y-48220125D01*
X42770821Y-47934569D01*
X42925824Y-47561282D01*
X42926176Y-47157092D01*
X42771825Y-46783534D01*
X42486269Y-46497479D01*
X42112982Y-46342476D01*
X41708792Y-46342124D01*
X41335234Y-46496475D01*
X41049179Y-46782031D01*
X40894176Y-47155318D01*
X40893824Y-47559508D01*
X40385825Y-47559508D01*
X40386176Y-47157092D01*
X40231825Y-46783534D01*
X39946269Y-46497479D01*
X39572982Y-46342476D01*
X39168792Y-46342124D01*
X38795234Y-46496475D01*
X38509179Y-46782031D01*
X38354176Y-47155318D01*
X38353824Y-47559508D01*
X36893500Y-47559508D01*
X36893500Y-46228000D01*
X48509024Y-46228000D01*
X48509024Y-47752000D01*
X48526735Y-47846127D01*
X48582364Y-47932576D01*
X48667244Y-47990572D01*
X48768000Y-48010976D01*
X50292000Y-48010976D01*
X50386127Y-47993265D01*
X50472576Y-47937636D01*
X50530572Y-47852756D01*
X50550976Y-47752000D01*
X50550976Y-47191208D01*
X51053824Y-47191208D01*
X51208175Y-47564766D01*
X51493731Y-47850821D01*
X51867018Y-48005824D01*
X52271208Y-48006176D01*
X52644766Y-47851825D01*
X52930821Y-47566269D01*
X53085824Y-47192982D01*
X53086176Y-46788792D01*
X52931825Y-46415234D01*
X52646269Y-46129179D01*
X52272982Y-45974176D01*
X51868792Y-45973824D01*
X51495234Y-46128175D01*
X51209179Y-46413731D01*
X51054176Y-46787018D01*
X51053824Y-47191208D01*
X50550976Y-47191208D01*
X50550976Y-46228000D01*
X50533265Y-46133873D01*
X50477636Y-46047424D01*
X50392756Y-45989428D01*
X50292000Y-45969024D01*
X48768000Y-45969024D01*
X48673873Y-45986735D01*
X48587424Y-46042364D01*
X48529428Y-46127244D01*
X48509024Y-46228000D01*
X36893500Y-46228000D01*
X36893500Y-45019508D01*
X38353824Y-45019508D01*
X38508175Y-45393066D01*
X38793731Y-45679121D01*
X39167018Y-45834124D01*
X39571208Y-45834476D01*
X39944766Y-45680125D01*
X40230821Y-45394569D01*
X40385824Y-45021282D01*
X40386176Y-44617092D01*
X40231825Y-44243534D01*
X40044918Y-44056300D01*
X40889024Y-44056300D01*
X40889024Y-45580300D01*
X40906735Y-45674427D01*
X40962364Y-45760876D01*
X41047244Y-45818872D01*
X41148000Y-45839276D01*
X42672000Y-45839276D01*
X42766127Y-45821565D01*
X42852576Y-45765936D01*
X42910572Y-45681056D01*
X42930976Y-45580300D01*
X42930976Y-44056300D01*
X42913265Y-43962173D01*
X42857636Y-43875724D01*
X42772756Y-43817728D01*
X42672000Y-43797324D01*
X41148000Y-43797324D01*
X41053873Y-43815035D01*
X40967424Y-43870664D01*
X40909428Y-43955544D01*
X40889024Y-44056300D01*
X40044918Y-44056300D01*
X39946269Y-43957479D01*
X39572982Y-43802476D01*
X39168792Y-43802124D01*
X38795234Y-43956475D01*
X38509179Y-44242031D01*
X38354176Y-44615318D01*
X38353824Y-45019508D01*
X36893500Y-45019508D01*
X36893500Y-42608500D01*
X54546500Y-42608500D01*
X54546500Y-60896500D01*
G36*
X44603308Y-64384912D02*
X44803812Y-64385087D01*
X44948025Y-64325500D01*
X45476228Y-64325500D01*
X45619308Y-64384912D01*
X45819812Y-64385087D01*
X45964025Y-64325500D01*
X46492228Y-64325500D01*
X46635308Y-64384912D01*
X46835812Y-64385087D01*
X46980025Y-64325500D01*
X54546500Y-64325500D01*
X54546500Y-107251500D01*
X36893500Y-107251500D01*
X36893500Y-105611208D01*
X48513824Y-105611208D01*
X48668175Y-105984766D01*
X48953731Y-106270821D01*
X49327018Y-106425824D01*
X49731208Y-106426176D01*
X50104766Y-106271825D01*
X50390821Y-105986269D01*
X50545824Y-105612982D01*
X50545825Y-105611208D01*
X51053824Y-105611208D01*
X51208175Y-105984766D01*
X51493731Y-106270821D01*
X51867018Y-106425824D01*
X52271208Y-106426176D01*
X52644766Y-106271825D01*
X52930821Y-105986269D01*
X53085824Y-105612982D01*
X53086176Y-105208792D01*
X52931825Y-104835234D01*
X52646269Y-104549179D01*
X52272982Y-104394176D01*
X51868792Y-104393824D01*
X51495234Y-104548175D01*
X51209179Y-104833731D01*
X51054176Y-105207018D01*
X51053824Y-105611208D01*
X50545825Y-105611208D01*
X50546176Y-105208792D01*
X50391825Y-104835234D01*
X50106269Y-104549179D01*
X49732982Y-104394176D01*
X49328792Y-104393824D01*
X48955234Y-104548175D01*
X48669179Y-104833731D01*
X48514176Y-105207018D01*
X48513824Y-105611208D01*
X36893500Y-105611208D01*
X36893500Y-103854466D01*
X48814942Y-103854466D01*
X48892834Y-104071082D01*
X49400970Y-104223489D01*
X49928750Y-104169838D01*
X50167166Y-104071082D01*
X50245058Y-103854466D01*
X51354942Y-103854466D01*
X51432834Y-104071082D01*
X51940970Y-104223489D01*
X52468750Y-104169838D01*
X52707166Y-104071082D01*
X52785058Y-103854466D01*
X52070000Y-103139408D01*
X51354942Y-103854466D01*
X50245058Y-103854466D01*
X49530000Y-103139408D01*
X48814942Y-103854466D01*
X36893500Y-103854466D01*
X36893500Y-102740970D01*
X48176511Y-102740970D01*
X48230162Y-103268750D01*
X48328918Y-103507166D01*
X48545534Y-103585058D01*
X49260592Y-102870000D01*
X49799408Y-102870000D01*
X50514466Y-103585058D01*
X50731082Y-103507166D01*
X50788971Y-103314159D01*
X50868918Y-103507166D01*
X51085534Y-103585058D01*
X51800592Y-102870000D01*
X52339408Y-102870000D01*
X53054466Y-103585058D01*
X53271082Y-103507166D01*
X53423489Y-102999030D01*
X53369838Y-102471250D01*
X53271082Y-102232834D01*
X53054466Y-102154942D01*
X52339408Y-102870000D01*
X51800592Y-102870000D01*
X51085534Y-102154942D01*
X50868918Y-102232834D01*
X50811029Y-102425841D01*
X50731082Y-102232834D01*
X50514466Y-102154942D01*
X49799408Y-102870000D01*
X49260592Y-102870000D01*
X48545534Y-102154942D01*
X48328918Y-102232834D01*
X48176511Y-102740970D01*
X36893500Y-102740970D01*
X36893500Y-101885534D01*
X48814942Y-101885534D01*
X49530000Y-102600592D01*
X50245058Y-101885534D01*
X51354942Y-101885534D01*
X52070000Y-102600592D01*
X52785058Y-101885534D01*
X52707166Y-101668918D01*
X52199030Y-101516511D01*
X51671250Y-101570162D01*
X51432834Y-101668918D01*
X51354942Y-101885534D01*
X50245058Y-101885534D01*
X50167166Y-101668918D01*
X49659030Y-101516511D01*
X49131250Y-101570162D01*
X48892834Y-101668918D01*
X48814942Y-101885534D01*
X36893500Y-101885534D01*
X36893500Y-100531208D01*
X48513824Y-100531208D01*
X48668175Y-100904766D01*
X48953731Y-101190821D01*
X49327018Y-101345824D01*
X49731208Y-101346176D01*
X50104766Y-101191825D01*
X50390821Y-100906269D01*
X50545824Y-100532982D01*
X50545825Y-100531208D01*
X51053824Y-100531208D01*
X51208175Y-100904766D01*
X51493731Y-101190821D01*
X51867018Y-101345824D01*
X52271208Y-101346176D01*
X52644766Y-101191825D01*
X52930821Y-100906269D01*
X53085824Y-100532982D01*
X53086176Y-100128792D01*
X52931825Y-99755234D01*
X52646269Y-99469179D01*
X52272982Y-99314176D01*
X51868792Y-99313824D01*
X51495234Y-99468175D01*
X51209179Y-99753731D01*
X51054176Y-100127018D01*
X51053824Y-100531208D01*
X50545825Y-100531208D01*
X50546176Y-100128792D01*
X50391825Y-99755234D01*
X50106269Y-99469179D01*
X49732982Y-99314176D01*
X49328792Y-99313824D01*
X48955234Y-99468175D01*
X48669179Y-99753731D01*
X48514176Y-100127018D01*
X48513824Y-100531208D01*
X36893500Y-100531208D01*
X36893500Y-99096108D01*
X38353824Y-99096108D01*
X38508175Y-99469666D01*
X38793731Y-99755721D01*
X39167018Y-99910724D01*
X39571208Y-99911076D01*
X39944766Y-99756725D01*
X40230821Y-99471169D01*
X40385824Y-99097882D01*
X40385825Y-99096108D01*
X40893824Y-99096108D01*
X41048175Y-99469666D01*
X41333731Y-99755721D01*
X41707018Y-99910724D01*
X42111208Y-99911076D01*
X42484766Y-99756725D01*
X42770821Y-99471169D01*
X42925824Y-99097882D01*
X42926176Y-98693692D01*
X42771825Y-98320134D01*
X42486269Y-98034079D01*
X42383025Y-97991208D01*
X48513824Y-97991208D01*
X48668175Y-98364766D01*
X48953731Y-98650821D01*
X49327018Y-98805824D01*
X49731208Y-98806176D01*
X50104766Y-98651825D01*
X50390821Y-98366269D01*
X50545824Y-97992982D01*
X50545825Y-97991208D01*
X51053824Y-97991208D01*
X51208175Y-98364766D01*
X51493731Y-98650821D01*
X51867018Y-98805824D01*
X52271208Y-98806176D01*
X52644766Y-98651825D01*
X52930821Y-98366269D01*
X53085824Y-97992982D01*
X53086176Y-97588792D01*
X52931825Y-97215234D01*
X52646269Y-96929179D01*
X52272982Y-96774176D01*
X51868792Y-96773824D01*
X51495234Y-96928175D01*
X51209179Y-97213731D01*
X51054176Y-97587018D01*
X51053824Y-97991208D01*
X50545825Y-97991208D01*
X50546176Y-97588792D01*
X50391825Y-97215234D01*
X50106269Y-96929179D01*
X49732982Y-96774176D01*
X49328792Y-96773824D01*
X48955234Y-96928175D01*
X48669179Y-97213731D01*
X48514176Y-97587018D01*
X48513824Y-97991208D01*
X42383025Y-97991208D01*
X42112982Y-97879076D01*
X41708792Y-97878724D01*
X41335234Y-98033075D01*
X41049179Y-98318631D01*
X40894176Y-98691918D01*
X40893824Y-99096108D01*
X40385825Y-99096108D01*
X40386176Y-98693692D01*
X40231825Y-98320134D01*
X39946269Y-98034079D01*
X39572982Y-97879076D01*
X39168792Y-97878724D01*
X38795234Y-98033075D01*
X38509179Y-98318631D01*
X38354176Y-98691918D01*
X38353824Y-99096108D01*
X36893500Y-99096108D01*
X36893500Y-97339366D01*
X38654942Y-97339366D01*
X38732834Y-97555982D01*
X39240970Y-97708389D01*
X39768750Y-97654738D01*
X40007166Y-97555982D01*
X40085058Y-97339366D01*
X41194942Y-97339366D01*
X41272834Y-97555982D01*
X41780970Y-97708389D01*
X42308750Y-97654738D01*
X42547166Y-97555982D01*
X42625058Y-97339366D01*
X41910000Y-96624308D01*
X41194942Y-97339366D01*
X40085058Y-97339366D01*
X39370000Y-96624308D01*
X38654942Y-97339366D01*
X36893500Y-97339366D01*
X36893500Y-96225870D01*
X38016511Y-96225870D01*
X38070162Y-96753650D01*
X38168918Y-96992066D01*
X38385534Y-97069958D01*
X39100592Y-96354900D01*
X39639408Y-96354900D01*
X40354466Y-97069958D01*
X40571082Y-96992066D01*
X40628971Y-96799059D01*
X40708918Y-96992066D01*
X40925534Y-97069958D01*
X41640592Y-96354900D01*
X42179408Y-96354900D01*
X42894466Y-97069958D01*
X43111082Y-96992066D01*
X43263489Y-96483930D01*
X43209838Y-95956150D01*
X43111082Y-95717734D01*
X42894466Y-95639842D01*
X42179408Y-96354900D01*
X41640592Y-96354900D01*
X40925534Y-95639842D01*
X40708918Y-95717734D01*
X40651029Y-95910741D01*
X40571082Y-95717734D01*
X40354466Y-95639842D01*
X39639408Y-96354900D01*
X39100592Y-96354900D01*
X38385534Y-95639842D01*
X38168918Y-95717734D01*
X38016511Y-96225870D01*
X36893500Y-96225870D01*
X36893500Y-95370434D01*
X38654942Y-95370434D01*
X39370000Y-96085492D01*
X40085058Y-95370434D01*
X41194942Y-95370434D01*
X41910000Y-96085492D01*
X42544284Y-95451208D01*
X48513824Y-95451208D01*
X48668175Y-95824766D01*
X48953731Y-96110821D01*
X49327018Y-96265824D01*
X49731208Y-96266176D01*
X50104766Y-96111825D01*
X50390821Y-95826269D01*
X50545824Y-95452982D01*
X50545825Y-95451208D01*
X51053824Y-95451208D01*
X51208175Y-95824766D01*
X51493731Y-96110821D01*
X51867018Y-96265824D01*
X52271208Y-96266176D01*
X52644766Y-96111825D01*
X52930821Y-95826269D01*
X53085824Y-95452982D01*
X53086176Y-95048792D01*
X52931825Y-94675234D01*
X52646269Y-94389179D01*
X52272982Y-94234176D01*
X51868792Y-94233824D01*
X51495234Y-94388175D01*
X51209179Y-94673731D01*
X51054176Y-95047018D01*
X51053824Y-95451208D01*
X50545825Y-95451208D01*
X50546176Y-95048792D01*
X50391825Y-94675234D01*
X50106269Y-94389179D01*
X49732982Y-94234176D01*
X49328792Y-94233824D01*
X48955234Y-94388175D01*
X48669179Y-94673731D01*
X48514176Y-95047018D01*
X48513824Y-95451208D01*
X42544284Y-95451208D01*
X42625058Y-95370434D01*
X42547166Y-95153818D01*
X42039030Y-95001411D01*
X41511250Y-95055062D01*
X41272834Y-95153818D01*
X41194942Y-95370434D01*
X40085058Y-95370434D01*
X40007166Y-95153818D01*
X39499030Y-95001411D01*
X38971250Y-95055062D01*
X38732834Y-95153818D01*
X38654942Y-95370434D01*
X36893500Y-95370434D01*
X36893500Y-94016108D01*
X38353824Y-94016108D01*
X38508175Y-94389666D01*
X38793731Y-94675721D01*
X39167018Y-94830724D01*
X39571208Y-94831076D01*
X39944766Y-94676725D01*
X40230821Y-94391169D01*
X40385824Y-94017882D01*
X40385825Y-94016108D01*
X40893824Y-94016108D01*
X41048175Y-94389666D01*
X41333731Y-94675721D01*
X41707018Y-94830724D01*
X42111208Y-94831076D01*
X42484766Y-94676725D01*
X42770821Y-94391169D01*
X42925824Y-94017882D01*
X42926176Y-93613692D01*
X42771825Y-93240134D01*
X42486269Y-92954079D01*
X42112982Y-92799076D01*
X41708792Y-92798724D01*
X41335234Y-92953075D01*
X41049179Y-93238631D01*
X40894176Y-93611918D01*
X40893824Y-94016108D01*
X40385825Y-94016108D01*
X40386176Y-93613692D01*
X40231825Y-93240134D01*
X39946269Y-92954079D01*
X39572982Y-92799076D01*
X39168792Y-92798724D01*
X38795234Y-92953075D01*
X38509179Y-93238631D01*
X38354176Y-93611918D01*
X38353824Y-94016108D01*
X36893500Y-94016108D01*
X36893500Y-91476108D01*
X38353824Y-91476108D01*
X38508175Y-91849666D01*
X38793731Y-92135721D01*
X39167018Y-92290724D01*
X39571208Y-92291076D01*
X39944766Y-92136725D01*
X40230821Y-91851169D01*
X40385824Y-91477882D01*
X40385825Y-91476108D01*
X40893824Y-91476108D01*
X41048175Y-91849666D01*
X41333731Y-92135721D01*
X41707018Y-92290724D01*
X42111208Y-92291076D01*
X42484766Y-92136725D01*
X42673820Y-91948000D01*
X48509024Y-91948000D01*
X48509024Y-93472000D01*
X48526735Y-93566127D01*
X48582364Y-93652576D01*
X48667244Y-93710572D01*
X48768000Y-93730976D01*
X50292000Y-93730976D01*
X50386127Y-93713265D01*
X50472576Y-93657636D01*
X50530572Y-93572756D01*
X50550976Y-93472000D01*
X50550976Y-92911208D01*
X51053824Y-92911208D01*
X51208175Y-93284766D01*
X51493731Y-93570821D01*
X51867018Y-93725824D01*
X52271208Y-93726176D01*
X52644766Y-93571825D01*
X52930821Y-93286269D01*
X53085824Y-92912982D01*
X53086176Y-92508792D01*
X52931825Y-92135234D01*
X52646269Y-91849179D01*
X52272982Y-91694176D01*
X51868792Y-91693824D01*
X51495234Y-91848175D01*
X51209179Y-92133731D01*
X51054176Y-92507018D01*
X51053824Y-92911208D01*
X50550976Y-92911208D01*
X50550976Y-91948000D01*
X50533265Y-91853873D01*
X50477636Y-91767424D01*
X50392756Y-91709428D01*
X50292000Y-91689024D01*
X48768000Y-91689024D01*
X48673873Y-91706735D01*
X48587424Y-91762364D01*
X48529428Y-91847244D01*
X48509024Y-91948000D01*
X42673820Y-91948000D01*
X42770821Y-91851169D01*
X42925824Y-91477882D01*
X42926176Y-91073692D01*
X42771825Y-90700134D01*
X42486269Y-90414079D01*
X42112982Y-90259076D01*
X41708792Y-90258724D01*
X41335234Y-90413075D01*
X41049179Y-90698631D01*
X40894176Y-91071918D01*
X40893824Y-91476108D01*
X40385825Y-91476108D01*
X40386176Y-91073692D01*
X40231825Y-90700134D01*
X39946269Y-90414079D01*
X39572982Y-90259076D01*
X39168792Y-90258724D01*
X38795234Y-90413075D01*
X38509179Y-90698631D01*
X38354176Y-91071918D01*
X38353824Y-91476108D01*
X36893500Y-91476108D01*
X36893500Y-88936108D01*
X38353824Y-88936108D01*
X38508175Y-89309666D01*
X38793731Y-89595721D01*
X39167018Y-89750724D01*
X39571208Y-89751076D01*
X39944766Y-89596725D01*
X40230821Y-89311169D01*
X40385824Y-88937882D01*
X40385825Y-88936108D01*
X40893824Y-88936108D01*
X41048175Y-89309666D01*
X41333731Y-89595721D01*
X41707018Y-89750724D01*
X42111208Y-89751076D01*
X42484766Y-89596725D01*
X42770821Y-89311169D01*
X42925824Y-88937882D01*
X42926176Y-88533692D01*
X42771825Y-88160134D01*
X42486269Y-87874079D01*
X42112982Y-87719076D01*
X41708792Y-87718724D01*
X41335234Y-87873075D01*
X41049179Y-88158631D01*
X40894176Y-88531918D01*
X40893824Y-88936108D01*
X40385825Y-88936108D01*
X40386176Y-88533692D01*
X40231825Y-88160134D01*
X39946269Y-87874079D01*
X39572982Y-87719076D01*
X39168792Y-87718724D01*
X38795234Y-87873075D01*
X38509179Y-88158631D01*
X38354176Y-88531918D01*
X38353824Y-88936108D01*
X36893500Y-88936108D01*
X36893500Y-86396108D01*
X38353824Y-86396108D01*
X38508175Y-86769666D01*
X38793731Y-87055721D01*
X39167018Y-87210724D01*
X39571208Y-87211076D01*
X39944766Y-87056725D01*
X40230821Y-86771169D01*
X40385824Y-86397882D01*
X40386176Y-85993692D01*
X40231825Y-85620134D01*
X40044918Y-85432900D01*
X40889024Y-85432900D01*
X40889024Y-86956900D01*
X40906735Y-87051027D01*
X40962364Y-87137476D01*
X41047244Y-87195472D01*
X41148000Y-87215876D01*
X42672000Y-87215876D01*
X42766127Y-87198165D01*
X42852576Y-87142536D01*
X42910572Y-87057656D01*
X42930976Y-86956900D01*
X42930976Y-85432900D01*
X42913265Y-85338773D01*
X42857636Y-85252324D01*
X42772756Y-85194328D01*
X42672000Y-85173924D01*
X41148000Y-85173924D01*
X41053873Y-85191635D01*
X40967424Y-85247264D01*
X40909428Y-85332144D01*
X40889024Y-85432900D01*
X40044918Y-85432900D01*
X39946269Y-85334079D01*
X39572982Y-85179076D01*
X39168792Y-85178724D01*
X38795234Y-85333075D01*
X38509179Y-85618631D01*
X38354176Y-85991918D01*
X38353824Y-86396108D01*
X36893500Y-86396108D01*
X36893500Y-82751208D01*
X48513824Y-82751208D01*
X48668175Y-83124766D01*
X48953731Y-83410821D01*
X49327018Y-83565824D01*
X49731208Y-83566176D01*
X50104766Y-83411825D01*
X50390821Y-83126269D01*
X50545824Y-82752982D01*
X50545825Y-82751208D01*
X51053824Y-82751208D01*
X51208175Y-83124766D01*
X51493731Y-83410821D01*
X51867018Y-83565824D01*
X52271208Y-83566176D01*
X52644766Y-83411825D01*
X52930821Y-83126269D01*
X53085824Y-82752982D01*
X53086176Y-82348792D01*
X52931825Y-81975234D01*
X52646269Y-81689179D01*
X52272982Y-81534176D01*
X51868792Y-81533824D01*
X51495234Y-81688175D01*
X51209179Y-81973731D01*
X51054176Y-82347018D01*
X51053824Y-82751208D01*
X50545825Y-82751208D01*
X50546176Y-82348792D01*
X50391825Y-81975234D01*
X50106269Y-81689179D01*
X49732982Y-81534176D01*
X49328792Y-81533824D01*
X48955234Y-81688175D01*
X48669179Y-81973731D01*
X48514176Y-82347018D01*
X48513824Y-82751208D01*
X36893500Y-82751208D01*
X36893500Y-80994466D01*
X48814942Y-80994466D01*
X48892834Y-81211082D01*
X49400970Y-81363489D01*
X49928750Y-81309838D01*
X50167166Y-81211082D01*
X50245058Y-80994466D01*
X51354942Y-80994466D01*
X51432834Y-81211082D01*
X51940970Y-81363489D01*
X52468750Y-81309838D01*
X52707166Y-81211082D01*
X52785058Y-80994466D01*
X52070000Y-80279408D01*
X51354942Y-80994466D01*
X50245058Y-80994466D01*
X49530000Y-80279408D01*
X48814942Y-80994466D01*
X36893500Y-80994466D01*
X36893500Y-79880970D01*
X48176511Y-79880970D01*
X48230162Y-80408750D01*
X48328918Y-80647166D01*
X48545534Y-80725058D01*
X49260592Y-80010000D01*
X49799408Y-80010000D01*
X50514466Y-80725058D01*
X50731082Y-80647166D01*
X50788971Y-80454159D01*
X50868918Y-80647166D01*
X51085534Y-80725058D01*
X51800592Y-80010000D01*
X52339408Y-80010000D01*
X53054466Y-80725058D01*
X53271082Y-80647166D01*
X53423489Y-80139030D01*
X53369838Y-79611250D01*
X53271082Y-79372834D01*
X53054466Y-79294942D01*
X52339408Y-80010000D01*
X51800592Y-80010000D01*
X51085534Y-79294942D01*
X50868918Y-79372834D01*
X50811029Y-79565841D01*
X50731082Y-79372834D01*
X50514466Y-79294942D01*
X49799408Y-80010000D01*
X49260592Y-80010000D01*
X48545534Y-79294942D01*
X48328918Y-79372834D01*
X48176511Y-79880970D01*
X36893500Y-79880970D01*
X36893500Y-78407808D01*
X38353824Y-78407808D01*
X38508175Y-78781366D01*
X38793731Y-79067421D01*
X39167018Y-79222424D01*
X39571208Y-79222776D01*
X39944766Y-79068425D01*
X40230821Y-78782869D01*
X40385824Y-78409582D01*
X40385825Y-78407808D01*
X40893824Y-78407808D01*
X41048175Y-78781366D01*
X41333731Y-79067421D01*
X41707018Y-79222424D01*
X42111208Y-79222776D01*
X42484766Y-79068425D01*
X42527731Y-79025534D01*
X48814942Y-79025534D01*
X49530000Y-79740592D01*
X50245058Y-79025534D01*
X51354942Y-79025534D01*
X52070000Y-79740592D01*
X52785058Y-79025534D01*
X52707166Y-78808918D01*
X52199030Y-78656511D01*
X51671250Y-78710162D01*
X51432834Y-78808918D01*
X51354942Y-79025534D01*
X50245058Y-79025534D01*
X50167166Y-78808918D01*
X49659030Y-78656511D01*
X49131250Y-78710162D01*
X48892834Y-78808918D01*
X48814942Y-79025534D01*
X42527731Y-79025534D01*
X42770821Y-78782869D01*
X42925824Y-78409582D01*
X42926176Y-78005392D01*
X42788095Y-77671208D01*
X48513824Y-77671208D01*
X48668175Y-78044766D01*
X48953731Y-78330821D01*
X49327018Y-78485824D01*
X49731208Y-78486176D01*
X50104766Y-78331825D01*
X50390821Y-78046269D01*
X50545824Y-77672982D01*
X50545825Y-77671208D01*
X51053824Y-77671208D01*
X51208175Y-78044766D01*
X51493731Y-78330821D01*
X51867018Y-78485824D01*
X52271208Y-78486176D01*
X52644766Y-78331825D01*
X52930821Y-78046269D01*
X53085824Y-77672982D01*
X53086176Y-77268792D01*
X52931825Y-76895234D01*
X52646269Y-76609179D01*
X52272982Y-76454176D01*
X51868792Y-76453824D01*
X51495234Y-76608175D01*
X51209179Y-76893731D01*
X51054176Y-77267018D01*
X51053824Y-77671208D01*
X50545825Y-77671208D01*
X50546176Y-77268792D01*
X50391825Y-76895234D01*
X50106269Y-76609179D01*
X49732982Y-76454176D01*
X49328792Y-76453824D01*
X48955234Y-76608175D01*
X48669179Y-76893731D01*
X48514176Y-77267018D01*
X48513824Y-77671208D01*
X42788095Y-77671208D01*
X42771825Y-77631834D01*
X42486269Y-77345779D01*
X42112982Y-77190776D01*
X41708792Y-77190424D01*
X41335234Y-77344775D01*
X41049179Y-77630331D01*
X40894176Y-78003618D01*
X40893824Y-78407808D01*
X40385825Y-78407808D01*
X40386176Y-78005392D01*
X40231825Y-77631834D01*
X39946269Y-77345779D01*
X39572982Y-77190776D01*
X39168792Y-77190424D01*
X38795234Y-77344775D01*
X38509179Y-77630331D01*
X38354176Y-78003618D01*
X38353824Y-78407808D01*
X36893500Y-78407808D01*
X36893500Y-76651066D01*
X38654942Y-76651066D01*
X38732834Y-76867682D01*
X39240970Y-77020089D01*
X39768750Y-76966438D01*
X40007166Y-76867682D01*
X40085058Y-76651066D01*
X41194942Y-76651066D01*
X41272834Y-76867682D01*
X41780970Y-77020089D01*
X42308750Y-76966438D01*
X42547166Y-76867682D01*
X42625058Y-76651066D01*
X41910000Y-75936008D01*
X41194942Y-76651066D01*
X40085058Y-76651066D01*
X39370000Y-75936008D01*
X38654942Y-76651066D01*
X36893500Y-76651066D01*
X36893500Y-75537570D01*
X38016511Y-75537570D01*
X38070162Y-76065350D01*
X38168918Y-76303766D01*
X38385534Y-76381658D01*
X39100592Y-75666600D01*
X39639408Y-75666600D01*
X40354466Y-76381658D01*
X40571082Y-76303766D01*
X40628971Y-76110759D01*
X40708918Y-76303766D01*
X40925534Y-76381658D01*
X41640592Y-75666600D01*
X42179408Y-75666600D01*
X42894466Y-76381658D01*
X43111082Y-76303766D01*
X43263489Y-75795630D01*
X43209838Y-75267850D01*
X43153239Y-75131208D01*
X48513824Y-75131208D01*
X48668175Y-75504766D01*
X48953731Y-75790821D01*
X49327018Y-75945824D01*
X49731208Y-75946176D01*
X50104766Y-75791825D01*
X50390821Y-75506269D01*
X50545824Y-75132982D01*
X50545825Y-75131208D01*
X51053824Y-75131208D01*
X51208175Y-75504766D01*
X51493731Y-75790821D01*
X51867018Y-75945824D01*
X52271208Y-75946176D01*
X52644766Y-75791825D01*
X52930821Y-75506269D01*
X53085824Y-75132982D01*
X53086176Y-74728792D01*
X52931825Y-74355234D01*
X52646269Y-74069179D01*
X52272982Y-73914176D01*
X51868792Y-73913824D01*
X51495234Y-74068175D01*
X51209179Y-74353731D01*
X51054176Y-74727018D01*
X51053824Y-75131208D01*
X50545825Y-75131208D01*
X50546176Y-74728792D01*
X50391825Y-74355234D01*
X50106269Y-74069179D01*
X49732982Y-73914176D01*
X49328792Y-73913824D01*
X48955234Y-74068175D01*
X48669179Y-74353731D01*
X48514176Y-74727018D01*
X48513824Y-75131208D01*
X43153239Y-75131208D01*
X43111082Y-75029434D01*
X42894466Y-74951542D01*
X42179408Y-75666600D01*
X41640592Y-75666600D01*
X40925534Y-74951542D01*
X40708918Y-75029434D01*
X40651029Y-75222441D01*
X40571082Y-75029434D01*
X40354466Y-74951542D01*
X39639408Y-75666600D01*
X39100592Y-75666600D01*
X38385534Y-74951542D01*
X38168918Y-75029434D01*
X38016511Y-75537570D01*
X36893500Y-75537570D01*
X36893500Y-74682134D01*
X38654942Y-74682134D01*
X39370000Y-75397192D01*
X40085058Y-74682134D01*
X41194942Y-74682134D01*
X41910000Y-75397192D01*
X42625058Y-74682134D01*
X42547166Y-74465518D01*
X42039030Y-74313111D01*
X41511250Y-74366762D01*
X41272834Y-74465518D01*
X41194942Y-74682134D01*
X40085058Y-74682134D01*
X40007166Y-74465518D01*
X39499030Y-74313111D01*
X38971250Y-74366762D01*
X38732834Y-74465518D01*
X38654942Y-74682134D01*
X36893500Y-74682134D01*
X36893500Y-73327808D01*
X38353824Y-73327808D01*
X38508175Y-73701366D01*
X38793731Y-73987421D01*
X39167018Y-74142424D01*
X39571208Y-74142776D01*
X39944766Y-73988425D01*
X40230821Y-73702869D01*
X40385824Y-73329582D01*
X40385825Y-73327808D01*
X40893824Y-73327808D01*
X41048175Y-73701366D01*
X41333731Y-73987421D01*
X41707018Y-74142424D01*
X42111208Y-74142776D01*
X42484766Y-73988425D01*
X42770821Y-73702869D01*
X42925824Y-73329582D01*
X42926176Y-72925392D01*
X42788095Y-72591208D01*
X48513824Y-72591208D01*
X48668175Y-72964766D01*
X48953731Y-73250821D01*
X49327018Y-73405824D01*
X49731208Y-73406176D01*
X50104766Y-73251825D01*
X50390821Y-72966269D01*
X50545824Y-72592982D01*
X50545825Y-72591208D01*
X51053824Y-72591208D01*
X51208175Y-72964766D01*
X51493731Y-73250821D01*
X51867018Y-73405824D01*
X52271208Y-73406176D01*
X52644766Y-73251825D01*
X52930821Y-72966269D01*
X53085824Y-72592982D01*
X53086176Y-72188792D01*
X52931825Y-71815234D01*
X52646269Y-71529179D01*
X52272982Y-71374176D01*
X51868792Y-71373824D01*
X51495234Y-71528175D01*
X51209179Y-71813731D01*
X51054176Y-72187018D01*
X51053824Y-72591208D01*
X50545825Y-72591208D01*
X50546176Y-72188792D01*
X50391825Y-71815234D01*
X50106269Y-71529179D01*
X49732982Y-71374176D01*
X49328792Y-71373824D01*
X48955234Y-71528175D01*
X48669179Y-71813731D01*
X48514176Y-72187018D01*
X48513824Y-72591208D01*
X42788095Y-72591208D01*
X42771825Y-72551834D01*
X42486269Y-72265779D01*
X42112982Y-72110776D01*
X41708792Y-72110424D01*
X41335234Y-72264775D01*
X41049179Y-72550331D01*
X40894176Y-72923618D01*
X40893824Y-73327808D01*
X40385825Y-73327808D01*
X40386176Y-72925392D01*
X40231825Y-72551834D01*
X39946269Y-72265779D01*
X39572982Y-72110776D01*
X39168792Y-72110424D01*
X38795234Y-72264775D01*
X38509179Y-72550331D01*
X38354176Y-72923618D01*
X38353824Y-73327808D01*
X36893500Y-73327808D01*
X36893500Y-70787808D01*
X38353824Y-70787808D01*
X38508175Y-71161366D01*
X38793731Y-71447421D01*
X39167018Y-71602424D01*
X39571208Y-71602776D01*
X39944766Y-71448425D01*
X40230821Y-71162869D01*
X40385824Y-70789582D01*
X40385825Y-70787808D01*
X40893824Y-70787808D01*
X41048175Y-71161366D01*
X41333731Y-71447421D01*
X41707018Y-71602424D01*
X42111208Y-71602776D01*
X42484766Y-71448425D01*
X42770821Y-71162869D01*
X42925824Y-70789582D01*
X42926176Y-70385392D01*
X42771825Y-70011834D01*
X42486269Y-69725779D01*
X42112982Y-69570776D01*
X41708792Y-69570424D01*
X41335234Y-69724775D01*
X41049179Y-70010331D01*
X40894176Y-70383618D01*
X40893824Y-70787808D01*
X40385825Y-70787808D01*
X40386176Y-70385392D01*
X40231825Y-70011834D01*
X39946269Y-69725779D01*
X39572982Y-69570776D01*
X39168792Y-69570424D01*
X38795234Y-69724775D01*
X38509179Y-70010331D01*
X38354176Y-70383618D01*
X38353824Y-70787808D01*
X36893500Y-70787808D01*
X36893500Y-69088000D01*
X48509024Y-69088000D01*
X48509024Y-70612000D01*
X48526735Y-70706127D01*
X48582364Y-70792576D01*
X48667244Y-70850572D01*
X48768000Y-70870976D01*
X50292000Y-70870976D01*
X50386127Y-70853265D01*
X50472576Y-70797636D01*
X50530572Y-70712756D01*
X50550976Y-70612000D01*
X50550976Y-70051208D01*
X51053824Y-70051208D01*
X51208175Y-70424766D01*
X51493731Y-70710821D01*
X51867018Y-70865824D01*
X52271208Y-70866176D01*
X52644766Y-70711825D01*
X52930821Y-70426269D01*
X53085824Y-70052982D01*
X53086176Y-69648792D01*
X52931825Y-69275234D01*
X52646269Y-68989179D01*
X52272982Y-68834176D01*
X51868792Y-68833824D01*
X51495234Y-68988175D01*
X51209179Y-69273731D01*
X51054176Y-69647018D01*
X51053824Y-70051208D01*
X50550976Y-70051208D01*
X50550976Y-69088000D01*
X50533265Y-68993873D01*
X50477636Y-68907424D01*
X50392756Y-68849428D01*
X50292000Y-68829024D01*
X48768000Y-68829024D01*
X48673873Y-68846735D01*
X48587424Y-68902364D01*
X48529428Y-68987244D01*
X48509024Y-69088000D01*
X36893500Y-69088000D01*
X36893500Y-68247808D01*
X38353824Y-68247808D01*
X38508175Y-68621366D01*
X38793731Y-68907421D01*
X39167018Y-69062424D01*
X39571208Y-69062776D01*
X39944766Y-68908425D01*
X40230821Y-68622869D01*
X40385824Y-68249582D01*
X40385825Y-68247808D01*
X40893824Y-68247808D01*
X41048175Y-68621366D01*
X41333731Y-68907421D01*
X41707018Y-69062424D01*
X42111208Y-69062776D01*
X42484766Y-68908425D01*
X42770821Y-68622869D01*
X42925824Y-68249582D01*
X42926176Y-67845392D01*
X42771825Y-67471834D01*
X42486269Y-67185779D01*
X42112982Y-67030776D01*
X41708792Y-67030424D01*
X41335234Y-67184775D01*
X41049179Y-67470331D01*
X40894176Y-67843618D01*
X40893824Y-68247808D01*
X40385825Y-68247808D01*
X40386176Y-67845392D01*
X40231825Y-67471834D01*
X39946269Y-67185779D01*
X39572982Y-67030776D01*
X39168792Y-67030424D01*
X38795234Y-67184775D01*
X38509179Y-67470331D01*
X38354176Y-67843618D01*
X38353824Y-68247808D01*
X36893500Y-68247808D01*
X36893500Y-65707808D01*
X38353824Y-65707808D01*
X38508175Y-66081366D01*
X38793731Y-66367421D01*
X39167018Y-66522424D01*
X39571208Y-66522776D01*
X39944766Y-66368425D01*
X40230821Y-66082869D01*
X40385824Y-65709582D01*
X40386176Y-65305392D01*
X40231825Y-64931834D01*
X40044918Y-64744600D01*
X40889024Y-64744600D01*
X40889024Y-66268600D01*
X40906735Y-66362727D01*
X40962364Y-66449176D01*
X41047244Y-66507172D01*
X41148000Y-66527576D01*
X42672000Y-66527576D01*
X42766127Y-66509865D01*
X42852576Y-66454236D01*
X42910572Y-66369356D01*
X42930976Y-66268600D01*
X42930976Y-64744600D01*
X42913265Y-64650473D01*
X42857636Y-64564024D01*
X42772756Y-64506028D01*
X42672000Y-64485624D01*
X41148000Y-64485624D01*
X41053873Y-64503335D01*
X40967424Y-64558964D01*
X40909428Y-64643844D01*
X40889024Y-64744600D01*
X40044918Y-64744600D01*
X39946269Y-64645779D01*
X39572982Y-64490776D01*
X39168792Y-64490424D01*
X38795234Y-64644775D01*
X38509179Y-64930331D01*
X38354176Y-65303618D01*
X38353824Y-65707808D01*
X36893500Y-65707808D01*
X36893500Y-64325500D01*
X44460228Y-64325500D01*
X44603308Y-64384912D01*
X44603308Y-64384912D01*
G37*
X44603308Y-64384912D02*
X44803812Y-64385087D01*
X44948025Y-64325500D01*
X45476228Y-64325500D01*
X45619308Y-64384912D01*
X45819812Y-64385087D01*
X45964025Y-64325500D01*
X46492228Y-64325500D01*
X46635308Y-64384912D01*
X46835812Y-64385087D01*
X46980025Y-64325500D01*
X54546500Y-64325500D01*
X54546500Y-107251500D01*
X36893500Y-107251500D01*
X36893500Y-105611208D01*
X48513824Y-105611208D01*
X48668175Y-105984766D01*
X48953731Y-106270821D01*
X49327018Y-106425824D01*
X49731208Y-106426176D01*
X50104766Y-106271825D01*
X50390821Y-105986269D01*
X50545824Y-105612982D01*
X50545825Y-105611208D01*
X51053824Y-105611208D01*
X51208175Y-105984766D01*
X51493731Y-106270821D01*
X51867018Y-106425824D01*
X52271208Y-106426176D01*
X52644766Y-106271825D01*
X52930821Y-105986269D01*
X53085824Y-105612982D01*
X53086176Y-105208792D01*
X52931825Y-104835234D01*
X52646269Y-104549179D01*
X52272982Y-104394176D01*
X51868792Y-104393824D01*
X51495234Y-104548175D01*
X51209179Y-104833731D01*
X51054176Y-105207018D01*
X51053824Y-105611208D01*
X50545825Y-105611208D01*
X50546176Y-105208792D01*
X50391825Y-104835234D01*
X50106269Y-104549179D01*
X49732982Y-104394176D01*
X49328792Y-104393824D01*
X48955234Y-104548175D01*
X48669179Y-104833731D01*
X48514176Y-105207018D01*
X48513824Y-105611208D01*
X36893500Y-105611208D01*
X36893500Y-103854466D01*
X48814942Y-103854466D01*
X48892834Y-104071082D01*
X49400970Y-104223489D01*
X49928750Y-104169838D01*
X50167166Y-104071082D01*
X50245058Y-103854466D01*
X51354942Y-103854466D01*
X51432834Y-104071082D01*
X51940970Y-104223489D01*
X52468750Y-104169838D01*
X52707166Y-104071082D01*
X52785058Y-103854466D01*
X52070000Y-103139408D01*
X51354942Y-103854466D01*
X50245058Y-103854466D01*
X49530000Y-103139408D01*
X48814942Y-103854466D01*
X36893500Y-103854466D01*
X36893500Y-102740970D01*
X48176511Y-102740970D01*
X48230162Y-103268750D01*
X48328918Y-103507166D01*
X48545534Y-103585058D01*
X49260592Y-102870000D01*
X49799408Y-102870000D01*
X50514466Y-103585058D01*
X50731082Y-103507166D01*
X50788971Y-103314159D01*
X50868918Y-103507166D01*
X51085534Y-103585058D01*
X51800592Y-102870000D01*
X52339408Y-102870000D01*
X53054466Y-103585058D01*
X53271082Y-103507166D01*
X53423489Y-102999030D01*
X53369838Y-102471250D01*
X53271082Y-102232834D01*
X53054466Y-102154942D01*
X52339408Y-102870000D01*
X51800592Y-102870000D01*
X51085534Y-102154942D01*
X50868918Y-102232834D01*
X50811029Y-102425841D01*
X50731082Y-102232834D01*
X50514466Y-102154942D01*
X49799408Y-102870000D01*
X49260592Y-102870000D01*
X48545534Y-102154942D01*
X48328918Y-102232834D01*
X48176511Y-102740970D01*
X36893500Y-102740970D01*
X36893500Y-101885534D01*
X48814942Y-101885534D01*
X49530000Y-102600592D01*
X50245058Y-101885534D01*
X51354942Y-101885534D01*
X52070000Y-102600592D01*
X52785058Y-101885534D01*
X52707166Y-101668918D01*
X52199030Y-101516511D01*
X51671250Y-101570162D01*
X51432834Y-101668918D01*
X51354942Y-101885534D01*
X50245058Y-101885534D01*
X50167166Y-101668918D01*
X49659030Y-101516511D01*
X49131250Y-101570162D01*
X48892834Y-101668918D01*
X48814942Y-101885534D01*
X36893500Y-101885534D01*
X36893500Y-100531208D01*
X48513824Y-100531208D01*
X48668175Y-100904766D01*
X48953731Y-101190821D01*
X49327018Y-101345824D01*
X49731208Y-101346176D01*
X50104766Y-101191825D01*
X50390821Y-100906269D01*
X50545824Y-100532982D01*
X50545825Y-100531208D01*
X51053824Y-100531208D01*
X51208175Y-100904766D01*
X51493731Y-101190821D01*
X51867018Y-101345824D01*
X52271208Y-101346176D01*
X52644766Y-101191825D01*
X52930821Y-100906269D01*
X53085824Y-100532982D01*
X53086176Y-100128792D01*
X52931825Y-99755234D01*
X52646269Y-99469179D01*
X52272982Y-99314176D01*
X51868792Y-99313824D01*
X51495234Y-99468175D01*
X51209179Y-99753731D01*
X51054176Y-100127018D01*
X51053824Y-100531208D01*
X50545825Y-100531208D01*
X50546176Y-100128792D01*
X50391825Y-99755234D01*
X50106269Y-99469179D01*
X49732982Y-99314176D01*
X49328792Y-99313824D01*
X48955234Y-99468175D01*
X48669179Y-99753731D01*
X48514176Y-100127018D01*
X48513824Y-100531208D01*
X36893500Y-100531208D01*
X36893500Y-99096108D01*
X38353824Y-99096108D01*
X38508175Y-99469666D01*
X38793731Y-99755721D01*
X39167018Y-99910724D01*
X39571208Y-99911076D01*
X39944766Y-99756725D01*
X40230821Y-99471169D01*
X40385824Y-99097882D01*
X40385825Y-99096108D01*
X40893824Y-99096108D01*
X41048175Y-99469666D01*
X41333731Y-99755721D01*
X41707018Y-99910724D01*
X42111208Y-99911076D01*
X42484766Y-99756725D01*
X42770821Y-99471169D01*
X42925824Y-99097882D01*
X42926176Y-98693692D01*
X42771825Y-98320134D01*
X42486269Y-98034079D01*
X42383025Y-97991208D01*
X48513824Y-97991208D01*
X48668175Y-98364766D01*
X48953731Y-98650821D01*
X49327018Y-98805824D01*
X49731208Y-98806176D01*
X50104766Y-98651825D01*
X50390821Y-98366269D01*
X50545824Y-97992982D01*
X50545825Y-97991208D01*
X51053824Y-97991208D01*
X51208175Y-98364766D01*
X51493731Y-98650821D01*
X51867018Y-98805824D01*
X52271208Y-98806176D01*
X52644766Y-98651825D01*
X52930821Y-98366269D01*
X53085824Y-97992982D01*
X53086176Y-97588792D01*
X52931825Y-97215234D01*
X52646269Y-96929179D01*
X52272982Y-96774176D01*
X51868792Y-96773824D01*
X51495234Y-96928175D01*
X51209179Y-97213731D01*
X51054176Y-97587018D01*
X51053824Y-97991208D01*
X50545825Y-97991208D01*
X50546176Y-97588792D01*
X50391825Y-97215234D01*
X50106269Y-96929179D01*
X49732982Y-96774176D01*
X49328792Y-96773824D01*
X48955234Y-96928175D01*
X48669179Y-97213731D01*
X48514176Y-97587018D01*
X48513824Y-97991208D01*
X42383025Y-97991208D01*
X42112982Y-97879076D01*
X41708792Y-97878724D01*
X41335234Y-98033075D01*
X41049179Y-98318631D01*
X40894176Y-98691918D01*
X40893824Y-99096108D01*
X40385825Y-99096108D01*
X40386176Y-98693692D01*
X40231825Y-98320134D01*
X39946269Y-98034079D01*
X39572982Y-97879076D01*
X39168792Y-97878724D01*
X38795234Y-98033075D01*
X38509179Y-98318631D01*
X38354176Y-98691918D01*
X38353824Y-99096108D01*
X36893500Y-99096108D01*
X36893500Y-97339366D01*
X38654942Y-97339366D01*
X38732834Y-97555982D01*
X39240970Y-97708389D01*
X39768750Y-97654738D01*
X40007166Y-97555982D01*
X40085058Y-97339366D01*
X41194942Y-97339366D01*
X41272834Y-97555982D01*
X41780970Y-97708389D01*
X42308750Y-97654738D01*
X42547166Y-97555982D01*
X42625058Y-97339366D01*
X41910000Y-96624308D01*
X41194942Y-97339366D01*
X40085058Y-97339366D01*
X39370000Y-96624308D01*
X38654942Y-97339366D01*
X36893500Y-97339366D01*
X36893500Y-96225870D01*
X38016511Y-96225870D01*
X38070162Y-96753650D01*
X38168918Y-96992066D01*
X38385534Y-97069958D01*
X39100592Y-96354900D01*
X39639408Y-96354900D01*
X40354466Y-97069958D01*
X40571082Y-96992066D01*
X40628971Y-96799059D01*
X40708918Y-96992066D01*
X40925534Y-97069958D01*
X41640592Y-96354900D01*
X42179408Y-96354900D01*
X42894466Y-97069958D01*
X43111082Y-96992066D01*
X43263489Y-96483930D01*
X43209838Y-95956150D01*
X43111082Y-95717734D01*
X42894466Y-95639842D01*
X42179408Y-96354900D01*
X41640592Y-96354900D01*
X40925534Y-95639842D01*
X40708918Y-95717734D01*
X40651029Y-95910741D01*
X40571082Y-95717734D01*
X40354466Y-95639842D01*
X39639408Y-96354900D01*
X39100592Y-96354900D01*
X38385534Y-95639842D01*
X38168918Y-95717734D01*
X38016511Y-96225870D01*
X36893500Y-96225870D01*
X36893500Y-95370434D01*
X38654942Y-95370434D01*
X39370000Y-96085492D01*
X40085058Y-95370434D01*
X41194942Y-95370434D01*
X41910000Y-96085492D01*
X42544284Y-95451208D01*
X48513824Y-95451208D01*
X48668175Y-95824766D01*
X48953731Y-96110821D01*
X49327018Y-96265824D01*
X49731208Y-96266176D01*
X50104766Y-96111825D01*
X50390821Y-95826269D01*
X50545824Y-95452982D01*
X50545825Y-95451208D01*
X51053824Y-95451208D01*
X51208175Y-95824766D01*
X51493731Y-96110821D01*
X51867018Y-96265824D01*
X52271208Y-96266176D01*
X52644766Y-96111825D01*
X52930821Y-95826269D01*
X53085824Y-95452982D01*
X53086176Y-95048792D01*
X52931825Y-94675234D01*
X52646269Y-94389179D01*
X52272982Y-94234176D01*
X51868792Y-94233824D01*
X51495234Y-94388175D01*
X51209179Y-94673731D01*
X51054176Y-95047018D01*
X51053824Y-95451208D01*
X50545825Y-95451208D01*
X50546176Y-95048792D01*
X50391825Y-94675234D01*
X50106269Y-94389179D01*
X49732982Y-94234176D01*
X49328792Y-94233824D01*
X48955234Y-94388175D01*
X48669179Y-94673731D01*
X48514176Y-95047018D01*
X48513824Y-95451208D01*
X42544284Y-95451208D01*
X42625058Y-95370434D01*
X42547166Y-95153818D01*
X42039030Y-95001411D01*
X41511250Y-95055062D01*
X41272834Y-95153818D01*
X41194942Y-95370434D01*
X40085058Y-95370434D01*
X40007166Y-95153818D01*
X39499030Y-95001411D01*
X38971250Y-95055062D01*
X38732834Y-95153818D01*
X38654942Y-95370434D01*
X36893500Y-95370434D01*
X36893500Y-94016108D01*
X38353824Y-94016108D01*
X38508175Y-94389666D01*
X38793731Y-94675721D01*
X39167018Y-94830724D01*
X39571208Y-94831076D01*
X39944766Y-94676725D01*
X40230821Y-94391169D01*
X40385824Y-94017882D01*
X40385825Y-94016108D01*
X40893824Y-94016108D01*
X41048175Y-94389666D01*
X41333731Y-94675721D01*
X41707018Y-94830724D01*
X42111208Y-94831076D01*
X42484766Y-94676725D01*
X42770821Y-94391169D01*
X42925824Y-94017882D01*
X42926176Y-93613692D01*
X42771825Y-93240134D01*
X42486269Y-92954079D01*
X42112982Y-92799076D01*
X41708792Y-92798724D01*
X41335234Y-92953075D01*
X41049179Y-93238631D01*
X40894176Y-93611918D01*
X40893824Y-94016108D01*
X40385825Y-94016108D01*
X40386176Y-93613692D01*
X40231825Y-93240134D01*
X39946269Y-92954079D01*
X39572982Y-92799076D01*
X39168792Y-92798724D01*
X38795234Y-92953075D01*
X38509179Y-93238631D01*
X38354176Y-93611918D01*
X38353824Y-94016108D01*
X36893500Y-94016108D01*
X36893500Y-91476108D01*
X38353824Y-91476108D01*
X38508175Y-91849666D01*
X38793731Y-92135721D01*
X39167018Y-92290724D01*
X39571208Y-92291076D01*
X39944766Y-92136725D01*
X40230821Y-91851169D01*
X40385824Y-91477882D01*
X40385825Y-91476108D01*
X40893824Y-91476108D01*
X41048175Y-91849666D01*
X41333731Y-92135721D01*
X41707018Y-92290724D01*
X42111208Y-92291076D01*
X42484766Y-92136725D01*
X42673820Y-91948000D01*
X48509024Y-91948000D01*
X48509024Y-93472000D01*
X48526735Y-93566127D01*
X48582364Y-93652576D01*
X48667244Y-93710572D01*
X48768000Y-93730976D01*
X50292000Y-93730976D01*
X50386127Y-93713265D01*
X50472576Y-93657636D01*
X50530572Y-93572756D01*
X50550976Y-93472000D01*
X50550976Y-92911208D01*
X51053824Y-92911208D01*
X51208175Y-93284766D01*
X51493731Y-93570821D01*
X51867018Y-93725824D01*
X52271208Y-93726176D01*
X52644766Y-93571825D01*
X52930821Y-93286269D01*
X53085824Y-92912982D01*
X53086176Y-92508792D01*
X52931825Y-92135234D01*
X52646269Y-91849179D01*
X52272982Y-91694176D01*
X51868792Y-91693824D01*
X51495234Y-91848175D01*
X51209179Y-92133731D01*
X51054176Y-92507018D01*
X51053824Y-92911208D01*
X50550976Y-92911208D01*
X50550976Y-91948000D01*
X50533265Y-91853873D01*
X50477636Y-91767424D01*
X50392756Y-91709428D01*
X50292000Y-91689024D01*
X48768000Y-91689024D01*
X48673873Y-91706735D01*
X48587424Y-91762364D01*
X48529428Y-91847244D01*
X48509024Y-91948000D01*
X42673820Y-91948000D01*
X42770821Y-91851169D01*
X42925824Y-91477882D01*
X42926176Y-91073692D01*
X42771825Y-90700134D01*
X42486269Y-90414079D01*
X42112982Y-90259076D01*
X41708792Y-90258724D01*
X41335234Y-90413075D01*
X41049179Y-90698631D01*
X40894176Y-91071918D01*
X40893824Y-91476108D01*
X40385825Y-91476108D01*
X40386176Y-91073692D01*
X40231825Y-90700134D01*
X39946269Y-90414079D01*
X39572982Y-90259076D01*
X39168792Y-90258724D01*
X38795234Y-90413075D01*
X38509179Y-90698631D01*
X38354176Y-91071918D01*
X38353824Y-91476108D01*
X36893500Y-91476108D01*
X36893500Y-88936108D01*
X38353824Y-88936108D01*
X38508175Y-89309666D01*
X38793731Y-89595721D01*
X39167018Y-89750724D01*
X39571208Y-89751076D01*
X39944766Y-89596725D01*
X40230821Y-89311169D01*
X40385824Y-88937882D01*
X40385825Y-88936108D01*
X40893824Y-88936108D01*
X41048175Y-89309666D01*
X41333731Y-89595721D01*
X41707018Y-89750724D01*
X42111208Y-89751076D01*
X42484766Y-89596725D01*
X42770821Y-89311169D01*
X42925824Y-88937882D01*
X42926176Y-88533692D01*
X42771825Y-88160134D01*
X42486269Y-87874079D01*
X42112982Y-87719076D01*
X41708792Y-87718724D01*
X41335234Y-87873075D01*
X41049179Y-88158631D01*
X40894176Y-88531918D01*
X40893824Y-88936108D01*
X40385825Y-88936108D01*
X40386176Y-88533692D01*
X40231825Y-88160134D01*
X39946269Y-87874079D01*
X39572982Y-87719076D01*
X39168792Y-87718724D01*
X38795234Y-87873075D01*
X38509179Y-88158631D01*
X38354176Y-88531918D01*
X38353824Y-88936108D01*
X36893500Y-88936108D01*
X36893500Y-86396108D01*
X38353824Y-86396108D01*
X38508175Y-86769666D01*
X38793731Y-87055721D01*
X39167018Y-87210724D01*
X39571208Y-87211076D01*
X39944766Y-87056725D01*
X40230821Y-86771169D01*
X40385824Y-86397882D01*
X40386176Y-85993692D01*
X40231825Y-85620134D01*
X40044918Y-85432900D01*
X40889024Y-85432900D01*
X40889024Y-86956900D01*
X40906735Y-87051027D01*
X40962364Y-87137476D01*
X41047244Y-87195472D01*
X41148000Y-87215876D01*
X42672000Y-87215876D01*
X42766127Y-87198165D01*
X42852576Y-87142536D01*
X42910572Y-87057656D01*
X42930976Y-86956900D01*
X42930976Y-85432900D01*
X42913265Y-85338773D01*
X42857636Y-85252324D01*
X42772756Y-85194328D01*
X42672000Y-85173924D01*
X41148000Y-85173924D01*
X41053873Y-85191635D01*
X40967424Y-85247264D01*
X40909428Y-85332144D01*
X40889024Y-85432900D01*
X40044918Y-85432900D01*
X39946269Y-85334079D01*
X39572982Y-85179076D01*
X39168792Y-85178724D01*
X38795234Y-85333075D01*
X38509179Y-85618631D01*
X38354176Y-85991918D01*
X38353824Y-86396108D01*
X36893500Y-86396108D01*
X36893500Y-82751208D01*
X48513824Y-82751208D01*
X48668175Y-83124766D01*
X48953731Y-83410821D01*
X49327018Y-83565824D01*
X49731208Y-83566176D01*
X50104766Y-83411825D01*
X50390821Y-83126269D01*
X50545824Y-82752982D01*
X50545825Y-82751208D01*
X51053824Y-82751208D01*
X51208175Y-83124766D01*
X51493731Y-83410821D01*
X51867018Y-83565824D01*
X52271208Y-83566176D01*
X52644766Y-83411825D01*
X52930821Y-83126269D01*
X53085824Y-82752982D01*
X53086176Y-82348792D01*
X52931825Y-81975234D01*
X52646269Y-81689179D01*
X52272982Y-81534176D01*
X51868792Y-81533824D01*
X51495234Y-81688175D01*
X51209179Y-81973731D01*
X51054176Y-82347018D01*
X51053824Y-82751208D01*
X50545825Y-82751208D01*
X50546176Y-82348792D01*
X50391825Y-81975234D01*
X50106269Y-81689179D01*
X49732982Y-81534176D01*
X49328792Y-81533824D01*
X48955234Y-81688175D01*
X48669179Y-81973731D01*
X48514176Y-82347018D01*
X48513824Y-82751208D01*
X36893500Y-82751208D01*
X36893500Y-80994466D01*
X48814942Y-80994466D01*
X48892834Y-81211082D01*
X49400970Y-81363489D01*
X49928750Y-81309838D01*
X50167166Y-81211082D01*
X50245058Y-80994466D01*
X51354942Y-80994466D01*
X51432834Y-81211082D01*
X51940970Y-81363489D01*
X52468750Y-81309838D01*
X52707166Y-81211082D01*
X52785058Y-80994466D01*
X52070000Y-80279408D01*
X51354942Y-80994466D01*
X50245058Y-80994466D01*
X49530000Y-80279408D01*
X48814942Y-80994466D01*
X36893500Y-80994466D01*
X36893500Y-79880970D01*
X48176511Y-79880970D01*
X48230162Y-80408750D01*
X48328918Y-80647166D01*
X48545534Y-80725058D01*
X49260592Y-80010000D01*
X49799408Y-80010000D01*
X50514466Y-80725058D01*
X50731082Y-80647166D01*
X50788971Y-80454159D01*
X50868918Y-80647166D01*
X51085534Y-80725058D01*
X51800592Y-80010000D01*
X52339408Y-80010000D01*
X53054466Y-80725058D01*
X53271082Y-80647166D01*
X53423489Y-80139030D01*
X53369838Y-79611250D01*
X53271082Y-79372834D01*
X53054466Y-79294942D01*
X52339408Y-80010000D01*
X51800592Y-80010000D01*
X51085534Y-79294942D01*
X50868918Y-79372834D01*
X50811029Y-79565841D01*
X50731082Y-79372834D01*
X50514466Y-79294942D01*
X49799408Y-80010000D01*
X49260592Y-80010000D01*
X48545534Y-79294942D01*
X48328918Y-79372834D01*
X48176511Y-79880970D01*
X36893500Y-79880970D01*
X36893500Y-78407808D01*
X38353824Y-78407808D01*
X38508175Y-78781366D01*
X38793731Y-79067421D01*
X39167018Y-79222424D01*
X39571208Y-79222776D01*
X39944766Y-79068425D01*
X40230821Y-78782869D01*
X40385824Y-78409582D01*
X40385825Y-78407808D01*
X40893824Y-78407808D01*
X41048175Y-78781366D01*
X41333731Y-79067421D01*
X41707018Y-79222424D01*
X42111208Y-79222776D01*
X42484766Y-79068425D01*
X42527731Y-79025534D01*
X48814942Y-79025534D01*
X49530000Y-79740592D01*
X50245058Y-79025534D01*
X51354942Y-79025534D01*
X52070000Y-79740592D01*
X52785058Y-79025534D01*
X52707166Y-78808918D01*
X52199030Y-78656511D01*
X51671250Y-78710162D01*
X51432834Y-78808918D01*
X51354942Y-79025534D01*
X50245058Y-79025534D01*
X50167166Y-78808918D01*
X49659030Y-78656511D01*
X49131250Y-78710162D01*
X48892834Y-78808918D01*
X48814942Y-79025534D01*
X42527731Y-79025534D01*
X42770821Y-78782869D01*
X42925824Y-78409582D01*
X42926176Y-78005392D01*
X42788095Y-77671208D01*
X48513824Y-77671208D01*
X48668175Y-78044766D01*
X48953731Y-78330821D01*
X49327018Y-78485824D01*
X49731208Y-78486176D01*
X50104766Y-78331825D01*
X50390821Y-78046269D01*
X50545824Y-77672982D01*
X50545825Y-77671208D01*
X51053824Y-77671208D01*
X51208175Y-78044766D01*
X51493731Y-78330821D01*
X51867018Y-78485824D01*
X52271208Y-78486176D01*
X52644766Y-78331825D01*
X52930821Y-78046269D01*
X53085824Y-77672982D01*
X53086176Y-77268792D01*
X52931825Y-76895234D01*
X52646269Y-76609179D01*
X52272982Y-76454176D01*
X51868792Y-76453824D01*
X51495234Y-76608175D01*
X51209179Y-76893731D01*
X51054176Y-77267018D01*
X51053824Y-77671208D01*
X50545825Y-77671208D01*
X50546176Y-77268792D01*
X50391825Y-76895234D01*
X50106269Y-76609179D01*
X49732982Y-76454176D01*
X49328792Y-76453824D01*
X48955234Y-76608175D01*
X48669179Y-76893731D01*
X48514176Y-77267018D01*
X48513824Y-77671208D01*
X42788095Y-77671208D01*
X42771825Y-77631834D01*
X42486269Y-77345779D01*
X42112982Y-77190776D01*
X41708792Y-77190424D01*
X41335234Y-77344775D01*
X41049179Y-77630331D01*
X40894176Y-78003618D01*
X40893824Y-78407808D01*
X40385825Y-78407808D01*
X40386176Y-78005392D01*
X40231825Y-77631834D01*
X39946269Y-77345779D01*
X39572982Y-77190776D01*
X39168792Y-77190424D01*
X38795234Y-77344775D01*
X38509179Y-77630331D01*
X38354176Y-78003618D01*
X38353824Y-78407808D01*
X36893500Y-78407808D01*
X36893500Y-76651066D01*
X38654942Y-76651066D01*
X38732834Y-76867682D01*
X39240970Y-77020089D01*
X39768750Y-76966438D01*
X40007166Y-76867682D01*
X40085058Y-76651066D01*
X41194942Y-76651066D01*
X41272834Y-76867682D01*
X41780970Y-77020089D01*
X42308750Y-76966438D01*
X42547166Y-76867682D01*
X42625058Y-76651066D01*
X41910000Y-75936008D01*
X41194942Y-76651066D01*
X40085058Y-76651066D01*
X39370000Y-75936008D01*
X38654942Y-76651066D01*
X36893500Y-76651066D01*
X36893500Y-75537570D01*
X38016511Y-75537570D01*
X38070162Y-76065350D01*
X38168918Y-76303766D01*
X38385534Y-76381658D01*
X39100592Y-75666600D01*
X39639408Y-75666600D01*
X40354466Y-76381658D01*
X40571082Y-76303766D01*
X40628971Y-76110759D01*
X40708918Y-76303766D01*
X40925534Y-76381658D01*
X41640592Y-75666600D01*
X42179408Y-75666600D01*
X42894466Y-76381658D01*
X43111082Y-76303766D01*
X43263489Y-75795630D01*
X43209838Y-75267850D01*
X43153239Y-75131208D01*
X48513824Y-75131208D01*
X48668175Y-75504766D01*
X48953731Y-75790821D01*
X49327018Y-75945824D01*
X49731208Y-75946176D01*
X50104766Y-75791825D01*
X50390821Y-75506269D01*
X50545824Y-75132982D01*
X50545825Y-75131208D01*
X51053824Y-75131208D01*
X51208175Y-75504766D01*
X51493731Y-75790821D01*
X51867018Y-75945824D01*
X52271208Y-75946176D01*
X52644766Y-75791825D01*
X52930821Y-75506269D01*
X53085824Y-75132982D01*
X53086176Y-74728792D01*
X52931825Y-74355234D01*
X52646269Y-74069179D01*
X52272982Y-73914176D01*
X51868792Y-73913824D01*
X51495234Y-74068175D01*
X51209179Y-74353731D01*
X51054176Y-74727018D01*
X51053824Y-75131208D01*
X50545825Y-75131208D01*
X50546176Y-74728792D01*
X50391825Y-74355234D01*
X50106269Y-74069179D01*
X49732982Y-73914176D01*
X49328792Y-73913824D01*
X48955234Y-74068175D01*
X48669179Y-74353731D01*
X48514176Y-74727018D01*
X48513824Y-75131208D01*
X43153239Y-75131208D01*
X43111082Y-75029434D01*
X42894466Y-74951542D01*
X42179408Y-75666600D01*
X41640592Y-75666600D01*
X40925534Y-74951542D01*
X40708918Y-75029434D01*
X40651029Y-75222441D01*
X40571082Y-75029434D01*
X40354466Y-74951542D01*
X39639408Y-75666600D01*
X39100592Y-75666600D01*
X38385534Y-74951542D01*
X38168918Y-75029434D01*
X38016511Y-75537570D01*
X36893500Y-75537570D01*
X36893500Y-74682134D01*
X38654942Y-74682134D01*
X39370000Y-75397192D01*
X40085058Y-74682134D01*
X41194942Y-74682134D01*
X41910000Y-75397192D01*
X42625058Y-74682134D01*
X42547166Y-74465518D01*
X42039030Y-74313111D01*
X41511250Y-74366762D01*
X41272834Y-74465518D01*
X41194942Y-74682134D01*
X40085058Y-74682134D01*
X40007166Y-74465518D01*
X39499030Y-74313111D01*
X38971250Y-74366762D01*
X38732834Y-74465518D01*
X38654942Y-74682134D01*
X36893500Y-74682134D01*
X36893500Y-73327808D01*
X38353824Y-73327808D01*
X38508175Y-73701366D01*
X38793731Y-73987421D01*
X39167018Y-74142424D01*
X39571208Y-74142776D01*
X39944766Y-73988425D01*
X40230821Y-73702869D01*
X40385824Y-73329582D01*
X40385825Y-73327808D01*
X40893824Y-73327808D01*
X41048175Y-73701366D01*
X41333731Y-73987421D01*
X41707018Y-74142424D01*
X42111208Y-74142776D01*
X42484766Y-73988425D01*
X42770821Y-73702869D01*
X42925824Y-73329582D01*
X42926176Y-72925392D01*
X42788095Y-72591208D01*
X48513824Y-72591208D01*
X48668175Y-72964766D01*
X48953731Y-73250821D01*
X49327018Y-73405824D01*
X49731208Y-73406176D01*
X50104766Y-73251825D01*
X50390821Y-72966269D01*
X50545824Y-72592982D01*
X50545825Y-72591208D01*
X51053824Y-72591208D01*
X51208175Y-72964766D01*
X51493731Y-73250821D01*
X51867018Y-73405824D01*
X52271208Y-73406176D01*
X52644766Y-73251825D01*
X52930821Y-72966269D01*
X53085824Y-72592982D01*
X53086176Y-72188792D01*
X52931825Y-71815234D01*
X52646269Y-71529179D01*
X52272982Y-71374176D01*
X51868792Y-71373824D01*
X51495234Y-71528175D01*
X51209179Y-71813731D01*
X51054176Y-72187018D01*
X51053824Y-72591208D01*
X50545825Y-72591208D01*
X50546176Y-72188792D01*
X50391825Y-71815234D01*
X50106269Y-71529179D01*
X49732982Y-71374176D01*
X49328792Y-71373824D01*
X48955234Y-71528175D01*
X48669179Y-71813731D01*
X48514176Y-72187018D01*
X48513824Y-72591208D01*
X42788095Y-72591208D01*
X42771825Y-72551834D01*
X42486269Y-72265779D01*
X42112982Y-72110776D01*
X41708792Y-72110424D01*
X41335234Y-72264775D01*
X41049179Y-72550331D01*
X40894176Y-72923618D01*
X40893824Y-73327808D01*
X40385825Y-73327808D01*
X40386176Y-72925392D01*
X40231825Y-72551834D01*
X39946269Y-72265779D01*
X39572982Y-72110776D01*
X39168792Y-72110424D01*
X38795234Y-72264775D01*
X38509179Y-72550331D01*
X38354176Y-72923618D01*
X38353824Y-73327808D01*
X36893500Y-73327808D01*
X36893500Y-70787808D01*
X38353824Y-70787808D01*
X38508175Y-71161366D01*
X38793731Y-71447421D01*
X39167018Y-71602424D01*
X39571208Y-71602776D01*
X39944766Y-71448425D01*
X40230821Y-71162869D01*
X40385824Y-70789582D01*
X40385825Y-70787808D01*
X40893824Y-70787808D01*
X41048175Y-71161366D01*
X41333731Y-71447421D01*
X41707018Y-71602424D01*
X42111208Y-71602776D01*
X42484766Y-71448425D01*
X42770821Y-71162869D01*
X42925824Y-70789582D01*
X42926176Y-70385392D01*
X42771825Y-70011834D01*
X42486269Y-69725779D01*
X42112982Y-69570776D01*
X41708792Y-69570424D01*
X41335234Y-69724775D01*
X41049179Y-70010331D01*
X40894176Y-70383618D01*
X40893824Y-70787808D01*
X40385825Y-70787808D01*
X40386176Y-70385392D01*
X40231825Y-70011834D01*
X39946269Y-69725779D01*
X39572982Y-69570776D01*
X39168792Y-69570424D01*
X38795234Y-69724775D01*
X38509179Y-70010331D01*
X38354176Y-70383618D01*
X38353824Y-70787808D01*
X36893500Y-70787808D01*
X36893500Y-69088000D01*
X48509024Y-69088000D01*
X48509024Y-70612000D01*
X48526735Y-70706127D01*
X48582364Y-70792576D01*
X48667244Y-70850572D01*
X48768000Y-70870976D01*
X50292000Y-70870976D01*
X50386127Y-70853265D01*
X50472576Y-70797636D01*
X50530572Y-70712756D01*
X50550976Y-70612000D01*
X50550976Y-70051208D01*
X51053824Y-70051208D01*
X51208175Y-70424766D01*
X51493731Y-70710821D01*
X51867018Y-70865824D01*
X52271208Y-70866176D01*
X52644766Y-70711825D01*
X52930821Y-70426269D01*
X53085824Y-70052982D01*
X53086176Y-69648792D01*
X52931825Y-69275234D01*
X52646269Y-68989179D01*
X52272982Y-68834176D01*
X51868792Y-68833824D01*
X51495234Y-68988175D01*
X51209179Y-69273731D01*
X51054176Y-69647018D01*
X51053824Y-70051208D01*
X50550976Y-70051208D01*
X50550976Y-69088000D01*
X50533265Y-68993873D01*
X50477636Y-68907424D01*
X50392756Y-68849428D01*
X50292000Y-68829024D01*
X48768000Y-68829024D01*
X48673873Y-68846735D01*
X48587424Y-68902364D01*
X48529428Y-68987244D01*
X48509024Y-69088000D01*
X36893500Y-69088000D01*
X36893500Y-68247808D01*
X38353824Y-68247808D01*
X38508175Y-68621366D01*
X38793731Y-68907421D01*
X39167018Y-69062424D01*
X39571208Y-69062776D01*
X39944766Y-68908425D01*
X40230821Y-68622869D01*
X40385824Y-68249582D01*
X40385825Y-68247808D01*
X40893824Y-68247808D01*
X41048175Y-68621366D01*
X41333731Y-68907421D01*
X41707018Y-69062424D01*
X42111208Y-69062776D01*
X42484766Y-68908425D01*
X42770821Y-68622869D01*
X42925824Y-68249582D01*
X42926176Y-67845392D01*
X42771825Y-67471834D01*
X42486269Y-67185779D01*
X42112982Y-67030776D01*
X41708792Y-67030424D01*
X41335234Y-67184775D01*
X41049179Y-67470331D01*
X40894176Y-67843618D01*
X40893824Y-68247808D01*
X40385825Y-68247808D01*
X40386176Y-67845392D01*
X40231825Y-67471834D01*
X39946269Y-67185779D01*
X39572982Y-67030776D01*
X39168792Y-67030424D01*
X38795234Y-67184775D01*
X38509179Y-67470331D01*
X38354176Y-67843618D01*
X38353824Y-68247808D01*
X36893500Y-68247808D01*
X36893500Y-65707808D01*
X38353824Y-65707808D01*
X38508175Y-66081366D01*
X38793731Y-66367421D01*
X39167018Y-66522424D01*
X39571208Y-66522776D01*
X39944766Y-66368425D01*
X40230821Y-66082869D01*
X40385824Y-65709582D01*
X40386176Y-65305392D01*
X40231825Y-64931834D01*
X40044918Y-64744600D01*
X40889024Y-64744600D01*
X40889024Y-66268600D01*
X40906735Y-66362727D01*
X40962364Y-66449176D01*
X41047244Y-66507172D01*
X41148000Y-66527576D01*
X42672000Y-66527576D01*
X42766127Y-66509865D01*
X42852576Y-66454236D01*
X42910572Y-66369356D01*
X42930976Y-66268600D01*
X42930976Y-64744600D01*
X42913265Y-64650473D01*
X42857636Y-64564024D01*
X42772756Y-64506028D01*
X42672000Y-64485624D01*
X41148000Y-64485624D01*
X41053873Y-64503335D01*
X40967424Y-64558964D01*
X40909428Y-64643844D01*
X40889024Y-64744600D01*
X40044918Y-64744600D01*
X39946269Y-64645779D01*
X39572982Y-64490776D01*
X39168792Y-64490424D01*
X38795234Y-64644775D01*
X38509179Y-64930331D01*
X38354176Y-65303618D01*
X38353824Y-65707808D01*
X36893500Y-65707808D01*
X36893500Y-64325500D01*
X44460228Y-64325500D01*
X44603308Y-64384912D01*
G36*
X54546500Y-38671500D02*
X46979772Y-38671500D01*
X46836692Y-38612088D01*
X46636188Y-38611913D01*
X46491975Y-38671500D01*
X45963772Y-38671500D01*
X45820692Y-38612088D01*
X45620188Y-38611913D01*
X45475975Y-38671500D01*
X44947772Y-38671500D01*
X44804692Y-38612088D01*
X44604188Y-38611913D01*
X44459975Y-38671500D01*
X36893500Y-38671500D01*
X36893500Y-37031208D01*
X38353824Y-37031208D01*
X38508175Y-37404766D01*
X38793731Y-37690821D01*
X39167018Y-37845824D01*
X39571208Y-37846176D01*
X39944766Y-37691825D01*
X40230821Y-37406269D01*
X40385824Y-37032982D01*
X40385825Y-37031208D01*
X40893824Y-37031208D01*
X41048175Y-37404766D01*
X41333731Y-37690821D01*
X41707018Y-37845824D01*
X42111208Y-37846176D01*
X42484766Y-37691825D01*
X42770821Y-37406269D01*
X42925824Y-37032982D01*
X42925825Y-37031208D01*
X48513824Y-37031208D01*
X48668175Y-37404766D01*
X48953731Y-37690821D01*
X49327018Y-37845824D01*
X49731208Y-37846176D01*
X50104766Y-37691825D01*
X50390821Y-37406269D01*
X50545824Y-37032982D01*
X50545825Y-37031208D01*
X51053824Y-37031208D01*
X51208175Y-37404766D01*
X51493731Y-37690821D01*
X51867018Y-37845824D01*
X52271208Y-37846176D01*
X52644766Y-37691825D01*
X52930821Y-37406269D01*
X53085824Y-37032982D01*
X53086176Y-36628792D01*
X52931825Y-36255234D01*
X52646269Y-35969179D01*
X52272982Y-35814176D01*
X51868792Y-35813824D01*
X51495234Y-35968175D01*
X51209179Y-36253731D01*
X51054176Y-36627018D01*
X51053824Y-37031208D01*
X50545825Y-37031208D01*
X50546176Y-36628792D01*
X50391825Y-36255234D01*
X50106269Y-35969179D01*
X49732982Y-35814176D01*
X49328792Y-35813824D01*
X48955234Y-35968175D01*
X48669179Y-36253731D01*
X48514176Y-36627018D01*
X48513824Y-37031208D01*
X42925825Y-37031208D01*
X42926176Y-36628792D01*
X42771825Y-36255234D01*
X42486269Y-35969179D01*
X42112982Y-35814176D01*
X41708792Y-35813824D01*
X41335234Y-35968175D01*
X41049179Y-36253731D01*
X40894176Y-36627018D01*
X40893824Y-37031208D01*
X40385825Y-37031208D01*
X40386176Y-36628792D01*
X40231825Y-36255234D01*
X39946269Y-35969179D01*
X39572982Y-35814176D01*
X39168792Y-35813824D01*
X38795234Y-35968175D01*
X38509179Y-36253731D01*
X38354176Y-36627018D01*
X38353824Y-37031208D01*
X36893500Y-37031208D01*
X36893500Y-35274466D01*
X38654942Y-35274466D01*
X38732834Y-35491082D01*
X39240970Y-35643489D01*
X39768750Y-35589838D01*
X40007166Y-35491082D01*
X40085058Y-35274466D01*
X41194942Y-35274466D01*
X41272834Y-35491082D01*
X41780970Y-35643489D01*
X42308750Y-35589838D01*
X42547166Y-35491082D01*
X42625058Y-35274466D01*
X48814942Y-35274466D01*
X48892834Y-35491082D01*
X49400970Y-35643489D01*
X49928750Y-35589838D01*
X50167166Y-35491082D01*
X50245058Y-35274466D01*
X51354942Y-35274466D01*
X51432834Y-35491082D01*
X51940970Y-35643489D01*
X52468750Y-35589838D01*
X52707166Y-35491082D01*
X52785058Y-35274466D01*
X52070000Y-34559408D01*
X51354942Y-35274466D01*
X50245058Y-35274466D01*
X49530000Y-34559408D01*
X48814942Y-35274466D01*
X42625058Y-35274466D01*
X41910000Y-34559408D01*
X41194942Y-35274466D01*
X40085058Y-35274466D01*
X39370000Y-34559408D01*
X38654942Y-35274466D01*
X36893500Y-35274466D01*
X36893500Y-34160970D01*
X38016511Y-34160970D01*
X38070162Y-34688750D01*
X38168918Y-34927166D01*
X38385534Y-35005058D01*
X39100592Y-34290000D01*
X39639408Y-34290000D01*
X40354466Y-35005058D01*
X40571082Y-34927166D01*
X40628971Y-34734159D01*
X40708918Y-34927166D01*
X40925534Y-35005058D01*
X41640592Y-34290000D01*
X42179408Y-34290000D01*
X42894466Y-35005058D01*
X43111082Y-34927166D01*
X43263489Y-34419030D01*
X43237257Y-34160970D01*
X48176511Y-34160970D01*
X48230162Y-34688750D01*
X48328918Y-34927166D01*
X48545534Y-35005058D01*
X49260592Y-34290000D01*
X49799408Y-34290000D01*
X50514466Y-35005058D01*
X50731082Y-34927166D01*
X50788971Y-34734159D01*
X50868918Y-34927166D01*
X51085534Y-35005058D01*
X51800592Y-34290000D01*
X52339408Y-34290000D01*
X53054466Y-35005058D01*
X53271082Y-34927166D01*
X53423489Y-34419030D01*
X53369838Y-33891250D01*
X53271082Y-33652834D01*
X53054466Y-33574942D01*
X52339408Y-34290000D01*
X51800592Y-34290000D01*
X51085534Y-33574942D01*
X50868918Y-33652834D01*
X50811029Y-33845841D01*
X50731082Y-33652834D01*
X50514466Y-33574942D01*
X49799408Y-34290000D01*
X49260592Y-34290000D01*
X48545534Y-33574942D01*
X48328918Y-33652834D01*
X48176511Y-34160970D01*
X43237257Y-34160970D01*
X43209838Y-33891250D01*
X43111082Y-33652834D01*
X42894466Y-33574942D01*
X42179408Y-34290000D01*
X41640592Y-34290000D01*
X40925534Y-33574942D01*
X40708918Y-33652834D01*
X40651029Y-33845841D01*
X40571082Y-33652834D01*
X40354466Y-33574942D01*
X39639408Y-34290000D01*
X39100592Y-34290000D01*
X38385534Y-33574942D01*
X38168918Y-33652834D01*
X38016511Y-34160970D01*
X36893500Y-34160970D01*
X36893500Y-33305534D01*
X38654942Y-33305534D01*
X39370000Y-34020592D01*
X40085058Y-33305534D01*
X41194942Y-33305534D01*
X41910000Y-34020592D01*
X42625058Y-33305534D01*
X48814942Y-33305534D01*
X49530000Y-34020592D01*
X50245058Y-33305534D01*
X51354942Y-33305534D01*
X52070000Y-34020592D01*
X52785058Y-33305534D01*
X52707166Y-33088918D01*
X52199030Y-32936511D01*
X51671250Y-32990162D01*
X51432834Y-33088918D01*
X51354942Y-33305534D01*
X50245058Y-33305534D01*
X50167166Y-33088918D01*
X49659030Y-32936511D01*
X49131250Y-32990162D01*
X48892834Y-33088918D01*
X48814942Y-33305534D01*
X42625058Y-33305534D01*
X42547166Y-33088918D01*
X42039030Y-32936511D01*
X41511250Y-32990162D01*
X41272834Y-33088918D01*
X41194942Y-33305534D01*
X40085058Y-33305534D01*
X40007166Y-33088918D01*
X39499030Y-32936511D01*
X38971250Y-32990162D01*
X38732834Y-33088918D01*
X38654942Y-33305534D01*
X36893500Y-33305534D01*
X36893500Y-31951208D01*
X38353824Y-31951208D01*
X38508175Y-32324766D01*
X38793731Y-32610821D01*
X39167018Y-32765824D01*
X39571208Y-32766176D01*
X39944766Y-32611825D01*
X40230821Y-32326269D01*
X40385824Y-31952982D01*
X40385825Y-31951208D01*
X40893824Y-31951208D01*
X41048175Y-32324766D01*
X41333731Y-32610821D01*
X41707018Y-32765824D01*
X42111208Y-32766176D01*
X42484766Y-32611825D01*
X42770821Y-32326269D01*
X42925824Y-31952982D01*
X42925825Y-31951208D01*
X48513824Y-31951208D01*
X48668175Y-32324766D01*
X48953731Y-32610821D01*
X49327018Y-32765824D01*
X49731208Y-32766176D01*
X50104766Y-32611825D01*
X50390821Y-32326269D01*
X50545824Y-31952982D01*
X50545825Y-31951208D01*
X51053824Y-31951208D01*
X51208175Y-32324766D01*
X51493731Y-32610821D01*
X51867018Y-32765824D01*
X52271208Y-32766176D01*
X52644766Y-32611825D01*
X52930821Y-32326269D01*
X53085824Y-31952982D01*
X53086176Y-31548792D01*
X52931825Y-31175234D01*
X52646269Y-30889179D01*
X52272982Y-30734176D01*
X51868792Y-30733824D01*
X51495234Y-30888175D01*
X51209179Y-31173731D01*
X51054176Y-31547018D01*
X51053824Y-31951208D01*
X50545825Y-31951208D01*
X50546176Y-31548792D01*
X50391825Y-31175234D01*
X50106269Y-30889179D01*
X49732982Y-30734176D01*
X49328792Y-30733824D01*
X48955234Y-30888175D01*
X48669179Y-31173731D01*
X48514176Y-31547018D01*
X48513824Y-31951208D01*
X42925825Y-31951208D01*
X42926176Y-31548792D01*
X42771825Y-31175234D01*
X42486269Y-30889179D01*
X42112982Y-30734176D01*
X41708792Y-30733824D01*
X41335234Y-30888175D01*
X41049179Y-31173731D01*
X40894176Y-31547018D01*
X40893824Y-31951208D01*
X40385825Y-31951208D01*
X40386176Y-31548792D01*
X40231825Y-31175234D01*
X39946269Y-30889179D01*
X39572982Y-30734176D01*
X39168792Y-30733824D01*
X38795234Y-30888175D01*
X38509179Y-31173731D01*
X38354176Y-31547018D01*
X38353824Y-31951208D01*
X36893500Y-31951208D01*
X36893500Y-29411208D01*
X38353824Y-29411208D01*
X38508175Y-29784766D01*
X38793731Y-30070821D01*
X39167018Y-30225824D01*
X39571208Y-30226176D01*
X39944766Y-30071825D01*
X40230821Y-29786269D01*
X40385824Y-29412982D01*
X40385825Y-29411208D01*
X40893824Y-29411208D01*
X41048175Y-29784766D01*
X41333731Y-30070821D01*
X41707018Y-30225824D01*
X42111208Y-30226176D01*
X42484766Y-30071825D01*
X42770821Y-29786269D01*
X42925824Y-29412982D01*
X42925825Y-29411208D01*
X48513824Y-29411208D01*
X48668175Y-29784766D01*
X48953731Y-30070821D01*
X49327018Y-30225824D01*
X49731208Y-30226176D01*
X50104766Y-30071825D01*
X50390821Y-29786269D01*
X50545824Y-29412982D01*
X50545825Y-29411208D01*
X51053824Y-29411208D01*
X51208175Y-29784766D01*
X51493731Y-30070821D01*
X51867018Y-30225824D01*
X52271208Y-30226176D01*
X52644766Y-30071825D01*
X52930821Y-29786269D01*
X53085824Y-29412982D01*
X53086176Y-29008792D01*
X52931825Y-28635234D01*
X52646269Y-28349179D01*
X52272982Y-28194176D01*
X51868792Y-28193824D01*
X51495234Y-28348175D01*
X51209179Y-28633731D01*
X51054176Y-29007018D01*
X51053824Y-29411208D01*
X50545825Y-29411208D01*
X50546176Y-29008792D01*
X50391825Y-28635234D01*
X50106269Y-28349179D01*
X49732982Y-28194176D01*
X49328792Y-28193824D01*
X48955234Y-28348175D01*
X48669179Y-28633731D01*
X48514176Y-29007018D01*
X48513824Y-29411208D01*
X42925825Y-29411208D01*
X42926176Y-29008792D01*
X42771825Y-28635234D01*
X42486269Y-28349179D01*
X42112982Y-28194176D01*
X41708792Y-28193824D01*
X41335234Y-28348175D01*
X41049179Y-28633731D01*
X40894176Y-29007018D01*
X40893824Y-29411208D01*
X40385825Y-29411208D01*
X40386176Y-29008792D01*
X40231825Y-28635234D01*
X39946269Y-28349179D01*
X39572982Y-28194176D01*
X39168792Y-28193824D01*
X38795234Y-28348175D01*
X38509179Y-28633731D01*
X38354176Y-29007018D01*
X38353824Y-29411208D01*
X36893500Y-29411208D01*
X36893500Y-26871208D01*
X38353824Y-26871208D01*
X38508175Y-27244766D01*
X38793731Y-27530821D01*
X39167018Y-27685824D01*
X39571208Y-27686176D01*
X39944766Y-27531825D01*
X40230821Y-27246269D01*
X40385824Y-26872982D01*
X40385825Y-26871208D01*
X40893824Y-26871208D01*
X41048175Y-27244766D01*
X41333731Y-27530821D01*
X41707018Y-27685824D01*
X42111208Y-27686176D01*
X42484766Y-27531825D01*
X42770821Y-27246269D01*
X42925824Y-26872982D01*
X42925825Y-26871208D01*
X48513824Y-26871208D01*
X48668175Y-27244766D01*
X48953731Y-27530821D01*
X49327018Y-27685824D01*
X49731208Y-27686176D01*
X50104766Y-27531825D01*
X50390821Y-27246269D01*
X50545824Y-26872982D01*
X50545825Y-26871208D01*
X51053824Y-26871208D01*
X51208175Y-27244766D01*
X51493731Y-27530821D01*
X51867018Y-27685824D01*
X52271208Y-27686176D01*
X52644766Y-27531825D01*
X52930821Y-27246269D01*
X53085824Y-26872982D01*
X53086176Y-26468792D01*
X52931825Y-26095234D01*
X52646269Y-25809179D01*
X52272982Y-25654176D01*
X51868792Y-25653824D01*
X51495234Y-25808175D01*
X51209179Y-26093731D01*
X51054176Y-26467018D01*
X51053824Y-26871208D01*
X50545825Y-26871208D01*
X50546176Y-26468792D01*
X50391825Y-26095234D01*
X50106269Y-25809179D01*
X49732982Y-25654176D01*
X49328792Y-25653824D01*
X48955234Y-25808175D01*
X48669179Y-26093731D01*
X48514176Y-26467018D01*
X48513824Y-26871208D01*
X42925825Y-26871208D01*
X42926176Y-26468792D01*
X42771825Y-26095234D01*
X42486269Y-25809179D01*
X42112982Y-25654176D01*
X41708792Y-25653824D01*
X41335234Y-25808175D01*
X41049179Y-26093731D01*
X40894176Y-26467018D01*
X40893824Y-26871208D01*
X40385825Y-26871208D01*
X40386176Y-26468792D01*
X40231825Y-26095234D01*
X39946269Y-25809179D01*
X39572982Y-25654176D01*
X39168792Y-25653824D01*
X38795234Y-25808175D01*
X38509179Y-26093731D01*
X38354176Y-26467018D01*
X38353824Y-26871208D01*
X36893500Y-26871208D01*
X36893500Y-24331208D01*
X38353824Y-24331208D01*
X38508175Y-24704766D01*
X38793731Y-24990821D01*
X39167018Y-25145824D01*
X39571208Y-25146176D01*
X39944766Y-24991825D01*
X40230821Y-24706269D01*
X40385824Y-24332982D01*
X40386176Y-23928792D01*
X40231825Y-23555234D01*
X40044918Y-23368000D01*
X40889024Y-23368000D01*
X40889024Y-24892000D01*
X40906735Y-24986127D01*
X40962364Y-25072576D01*
X41047244Y-25130572D01*
X41148000Y-25150976D01*
X42672000Y-25150976D01*
X42766127Y-25133265D01*
X42852576Y-25077636D01*
X42910572Y-24992756D01*
X42930976Y-24892000D01*
X42930976Y-23368000D01*
X48509024Y-23368000D01*
X48509024Y-24892000D01*
X48526735Y-24986127D01*
X48582364Y-25072576D01*
X48667244Y-25130572D01*
X48768000Y-25150976D01*
X50292000Y-25150976D01*
X50386127Y-25133265D01*
X50472576Y-25077636D01*
X50530572Y-24992756D01*
X50550976Y-24892000D01*
X50550976Y-24331208D01*
X51053824Y-24331208D01*
X51208175Y-24704766D01*
X51493731Y-24990821D01*
X51867018Y-25145824D01*
X52271208Y-25146176D01*
X52644766Y-24991825D01*
X52930821Y-24706269D01*
X53085824Y-24332982D01*
X53086176Y-23928792D01*
X52931825Y-23555234D01*
X52646269Y-23269179D01*
X52272982Y-23114176D01*
X51868792Y-23113824D01*
X51495234Y-23268175D01*
X51209179Y-23553731D01*
X51054176Y-23927018D01*
X51053824Y-24331208D01*
X50550976Y-24331208D01*
X50550976Y-23368000D01*
X50533265Y-23273873D01*
X50477636Y-23187424D01*
X50392756Y-23129428D01*
X50292000Y-23109024D01*
X48768000Y-23109024D01*
X48673873Y-23126735D01*
X48587424Y-23182364D01*
X48529428Y-23267244D01*
X48509024Y-23368000D01*
X42930976Y-23368000D01*
X42913265Y-23273873D01*
X42857636Y-23187424D01*
X42772756Y-23129428D01*
X42672000Y-23109024D01*
X41148000Y-23109024D01*
X41053873Y-23126735D01*
X40967424Y-23182364D01*
X40909428Y-23267244D01*
X40889024Y-23368000D01*
X40044918Y-23368000D01*
X39946269Y-23269179D01*
X39572982Y-23114176D01*
X39168792Y-23113824D01*
X38795234Y-23268175D01*
X38509179Y-23553731D01*
X38354176Y-23927018D01*
X38353824Y-24331208D01*
X36893500Y-24331208D01*
X36893500Y-22288500D01*
X54546500Y-22288500D01*
X54546500Y-38671500D01*
X54546500Y-38671500D01*
G37*
X54546500Y-38671500D02*
X46979772Y-38671500D01*
X46836692Y-38612088D01*
X46636188Y-38611913D01*
X46491975Y-38671500D01*
X45963772Y-38671500D01*
X45820692Y-38612088D01*
X45620188Y-38611913D01*
X45475975Y-38671500D01*
X44947772Y-38671500D01*
X44804692Y-38612088D01*
X44604188Y-38611913D01*
X44459975Y-38671500D01*
X36893500Y-38671500D01*
X36893500Y-37031208D01*
X38353824Y-37031208D01*
X38508175Y-37404766D01*
X38793731Y-37690821D01*
X39167018Y-37845824D01*
X39571208Y-37846176D01*
X39944766Y-37691825D01*
X40230821Y-37406269D01*
X40385824Y-37032982D01*
X40385825Y-37031208D01*
X40893824Y-37031208D01*
X41048175Y-37404766D01*
X41333731Y-37690821D01*
X41707018Y-37845824D01*
X42111208Y-37846176D01*
X42484766Y-37691825D01*
X42770821Y-37406269D01*
X42925824Y-37032982D01*
X42925825Y-37031208D01*
X48513824Y-37031208D01*
X48668175Y-37404766D01*
X48953731Y-37690821D01*
X49327018Y-37845824D01*
X49731208Y-37846176D01*
X50104766Y-37691825D01*
X50390821Y-37406269D01*
X50545824Y-37032982D01*
X50545825Y-37031208D01*
X51053824Y-37031208D01*
X51208175Y-37404766D01*
X51493731Y-37690821D01*
X51867018Y-37845824D01*
X52271208Y-37846176D01*
X52644766Y-37691825D01*
X52930821Y-37406269D01*
X53085824Y-37032982D01*
X53086176Y-36628792D01*
X52931825Y-36255234D01*
X52646269Y-35969179D01*
X52272982Y-35814176D01*
X51868792Y-35813824D01*
X51495234Y-35968175D01*
X51209179Y-36253731D01*
X51054176Y-36627018D01*
X51053824Y-37031208D01*
X50545825Y-37031208D01*
X50546176Y-36628792D01*
X50391825Y-36255234D01*
X50106269Y-35969179D01*
X49732982Y-35814176D01*
X49328792Y-35813824D01*
X48955234Y-35968175D01*
X48669179Y-36253731D01*
X48514176Y-36627018D01*
X48513824Y-37031208D01*
X42925825Y-37031208D01*
X42926176Y-36628792D01*
X42771825Y-36255234D01*
X42486269Y-35969179D01*
X42112982Y-35814176D01*
X41708792Y-35813824D01*
X41335234Y-35968175D01*
X41049179Y-36253731D01*
X40894176Y-36627018D01*
X40893824Y-37031208D01*
X40385825Y-37031208D01*
X40386176Y-36628792D01*
X40231825Y-36255234D01*
X39946269Y-35969179D01*
X39572982Y-35814176D01*
X39168792Y-35813824D01*
X38795234Y-35968175D01*
X38509179Y-36253731D01*
X38354176Y-36627018D01*
X38353824Y-37031208D01*
X36893500Y-37031208D01*
X36893500Y-35274466D01*
X38654942Y-35274466D01*
X38732834Y-35491082D01*
X39240970Y-35643489D01*
X39768750Y-35589838D01*
X40007166Y-35491082D01*
X40085058Y-35274466D01*
X41194942Y-35274466D01*
X41272834Y-35491082D01*
X41780970Y-35643489D01*
X42308750Y-35589838D01*
X42547166Y-35491082D01*
X42625058Y-35274466D01*
X48814942Y-35274466D01*
X48892834Y-35491082D01*
X49400970Y-35643489D01*
X49928750Y-35589838D01*
X50167166Y-35491082D01*
X50245058Y-35274466D01*
X51354942Y-35274466D01*
X51432834Y-35491082D01*
X51940970Y-35643489D01*
X52468750Y-35589838D01*
X52707166Y-35491082D01*
X52785058Y-35274466D01*
X52070000Y-34559408D01*
X51354942Y-35274466D01*
X50245058Y-35274466D01*
X49530000Y-34559408D01*
X48814942Y-35274466D01*
X42625058Y-35274466D01*
X41910000Y-34559408D01*
X41194942Y-35274466D01*
X40085058Y-35274466D01*
X39370000Y-34559408D01*
X38654942Y-35274466D01*
X36893500Y-35274466D01*
X36893500Y-34160970D01*
X38016511Y-34160970D01*
X38070162Y-34688750D01*
X38168918Y-34927166D01*
X38385534Y-35005058D01*
X39100592Y-34290000D01*
X39639408Y-34290000D01*
X40354466Y-35005058D01*
X40571082Y-34927166D01*
X40628971Y-34734159D01*
X40708918Y-34927166D01*
X40925534Y-35005058D01*
X41640592Y-34290000D01*
X42179408Y-34290000D01*
X42894466Y-35005058D01*
X43111082Y-34927166D01*
X43263489Y-34419030D01*
X43237257Y-34160970D01*
X48176511Y-34160970D01*
X48230162Y-34688750D01*
X48328918Y-34927166D01*
X48545534Y-35005058D01*
X49260592Y-34290000D01*
X49799408Y-34290000D01*
X50514466Y-35005058D01*
X50731082Y-34927166D01*
X50788971Y-34734159D01*
X50868918Y-34927166D01*
X51085534Y-35005058D01*
X51800592Y-34290000D01*
X52339408Y-34290000D01*
X53054466Y-35005058D01*
X53271082Y-34927166D01*
X53423489Y-34419030D01*
X53369838Y-33891250D01*
X53271082Y-33652834D01*
X53054466Y-33574942D01*
X52339408Y-34290000D01*
X51800592Y-34290000D01*
X51085534Y-33574942D01*
X50868918Y-33652834D01*
X50811029Y-33845841D01*
X50731082Y-33652834D01*
X50514466Y-33574942D01*
X49799408Y-34290000D01*
X49260592Y-34290000D01*
X48545534Y-33574942D01*
X48328918Y-33652834D01*
X48176511Y-34160970D01*
X43237257Y-34160970D01*
X43209838Y-33891250D01*
X43111082Y-33652834D01*
X42894466Y-33574942D01*
X42179408Y-34290000D01*
X41640592Y-34290000D01*
X40925534Y-33574942D01*
X40708918Y-33652834D01*
X40651029Y-33845841D01*
X40571082Y-33652834D01*
X40354466Y-33574942D01*
X39639408Y-34290000D01*
X39100592Y-34290000D01*
X38385534Y-33574942D01*
X38168918Y-33652834D01*
X38016511Y-34160970D01*
X36893500Y-34160970D01*
X36893500Y-33305534D01*
X38654942Y-33305534D01*
X39370000Y-34020592D01*
X40085058Y-33305534D01*
X41194942Y-33305534D01*
X41910000Y-34020592D01*
X42625058Y-33305534D01*
X48814942Y-33305534D01*
X49530000Y-34020592D01*
X50245058Y-33305534D01*
X51354942Y-33305534D01*
X52070000Y-34020592D01*
X52785058Y-33305534D01*
X52707166Y-33088918D01*
X52199030Y-32936511D01*
X51671250Y-32990162D01*
X51432834Y-33088918D01*
X51354942Y-33305534D01*
X50245058Y-33305534D01*
X50167166Y-33088918D01*
X49659030Y-32936511D01*
X49131250Y-32990162D01*
X48892834Y-33088918D01*
X48814942Y-33305534D01*
X42625058Y-33305534D01*
X42547166Y-33088918D01*
X42039030Y-32936511D01*
X41511250Y-32990162D01*
X41272834Y-33088918D01*
X41194942Y-33305534D01*
X40085058Y-33305534D01*
X40007166Y-33088918D01*
X39499030Y-32936511D01*
X38971250Y-32990162D01*
X38732834Y-33088918D01*
X38654942Y-33305534D01*
X36893500Y-33305534D01*
X36893500Y-31951208D01*
X38353824Y-31951208D01*
X38508175Y-32324766D01*
X38793731Y-32610821D01*
X39167018Y-32765824D01*
X39571208Y-32766176D01*
X39944766Y-32611825D01*
X40230821Y-32326269D01*
X40385824Y-31952982D01*
X40385825Y-31951208D01*
X40893824Y-31951208D01*
X41048175Y-32324766D01*
X41333731Y-32610821D01*
X41707018Y-32765824D01*
X42111208Y-32766176D01*
X42484766Y-32611825D01*
X42770821Y-32326269D01*
X42925824Y-31952982D01*
X42925825Y-31951208D01*
X48513824Y-31951208D01*
X48668175Y-32324766D01*
X48953731Y-32610821D01*
X49327018Y-32765824D01*
X49731208Y-32766176D01*
X50104766Y-32611825D01*
X50390821Y-32326269D01*
X50545824Y-31952982D01*
X50545825Y-31951208D01*
X51053824Y-31951208D01*
X51208175Y-32324766D01*
X51493731Y-32610821D01*
X51867018Y-32765824D01*
X52271208Y-32766176D01*
X52644766Y-32611825D01*
X52930821Y-32326269D01*
X53085824Y-31952982D01*
X53086176Y-31548792D01*
X52931825Y-31175234D01*
X52646269Y-30889179D01*
X52272982Y-30734176D01*
X51868792Y-30733824D01*
X51495234Y-30888175D01*
X51209179Y-31173731D01*
X51054176Y-31547018D01*
X51053824Y-31951208D01*
X50545825Y-31951208D01*
X50546176Y-31548792D01*
X50391825Y-31175234D01*
X50106269Y-30889179D01*
X49732982Y-30734176D01*
X49328792Y-30733824D01*
X48955234Y-30888175D01*
X48669179Y-31173731D01*
X48514176Y-31547018D01*
X48513824Y-31951208D01*
X42925825Y-31951208D01*
X42926176Y-31548792D01*
X42771825Y-31175234D01*
X42486269Y-30889179D01*
X42112982Y-30734176D01*
X41708792Y-30733824D01*
X41335234Y-30888175D01*
X41049179Y-31173731D01*
X40894176Y-31547018D01*
X40893824Y-31951208D01*
X40385825Y-31951208D01*
X40386176Y-31548792D01*
X40231825Y-31175234D01*
X39946269Y-30889179D01*
X39572982Y-30734176D01*
X39168792Y-30733824D01*
X38795234Y-30888175D01*
X38509179Y-31173731D01*
X38354176Y-31547018D01*
X38353824Y-31951208D01*
X36893500Y-31951208D01*
X36893500Y-29411208D01*
X38353824Y-29411208D01*
X38508175Y-29784766D01*
X38793731Y-30070821D01*
X39167018Y-30225824D01*
X39571208Y-30226176D01*
X39944766Y-30071825D01*
X40230821Y-29786269D01*
X40385824Y-29412982D01*
X40385825Y-29411208D01*
X40893824Y-29411208D01*
X41048175Y-29784766D01*
X41333731Y-30070821D01*
X41707018Y-30225824D01*
X42111208Y-30226176D01*
X42484766Y-30071825D01*
X42770821Y-29786269D01*
X42925824Y-29412982D01*
X42925825Y-29411208D01*
X48513824Y-29411208D01*
X48668175Y-29784766D01*
X48953731Y-30070821D01*
X49327018Y-30225824D01*
X49731208Y-30226176D01*
X50104766Y-30071825D01*
X50390821Y-29786269D01*
X50545824Y-29412982D01*
X50545825Y-29411208D01*
X51053824Y-29411208D01*
X51208175Y-29784766D01*
X51493731Y-30070821D01*
X51867018Y-30225824D01*
X52271208Y-30226176D01*
X52644766Y-30071825D01*
X52930821Y-29786269D01*
X53085824Y-29412982D01*
X53086176Y-29008792D01*
X52931825Y-28635234D01*
X52646269Y-28349179D01*
X52272982Y-28194176D01*
X51868792Y-28193824D01*
X51495234Y-28348175D01*
X51209179Y-28633731D01*
X51054176Y-29007018D01*
X51053824Y-29411208D01*
X50545825Y-29411208D01*
X50546176Y-29008792D01*
X50391825Y-28635234D01*
X50106269Y-28349179D01*
X49732982Y-28194176D01*
X49328792Y-28193824D01*
X48955234Y-28348175D01*
X48669179Y-28633731D01*
X48514176Y-29007018D01*
X48513824Y-29411208D01*
X42925825Y-29411208D01*
X42926176Y-29008792D01*
X42771825Y-28635234D01*
X42486269Y-28349179D01*
X42112982Y-28194176D01*
X41708792Y-28193824D01*
X41335234Y-28348175D01*
X41049179Y-28633731D01*
X40894176Y-29007018D01*
X40893824Y-29411208D01*
X40385825Y-29411208D01*
X40386176Y-29008792D01*
X40231825Y-28635234D01*
X39946269Y-28349179D01*
X39572982Y-28194176D01*
X39168792Y-28193824D01*
X38795234Y-28348175D01*
X38509179Y-28633731D01*
X38354176Y-29007018D01*
X38353824Y-29411208D01*
X36893500Y-29411208D01*
X36893500Y-26871208D01*
X38353824Y-26871208D01*
X38508175Y-27244766D01*
X38793731Y-27530821D01*
X39167018Y-27685824D01*
X39571208Y-27686176D01*
X39944766Y-27531825D01*
X40230821Y-27246269D01*
X40385824Y-26872982D01*
X40385825Y-26871208D01*
X40893824Y-26871208D01*
X41048175Y-27244766D01*
X41333731Y-27530821D01*
X41707018Y-27685824D01*
X42111208Y-27686176D01*
X42484766Y-27531825D01*
X42770821Y-27246269D01*
X42925824Y-26872982D01*
X42925825Y-26871208D01*
X48513824Y-26871208D01*
X48668175Y-27244766D01*
X48953731Y-27530821D01*
X49327018Y-27685824D01*
X49731208Y-27686176D01*
X50104766Y-27531825D01*
X50390821Y-27246269D01*
X50545824Y-26872982D01*
X50545825Y-26871208D01*
X51053824Y-26871208D01*
X51208175Y-27244766D01*
X51493731Y-27530821D01*
X51867018Y-27685824D01*
X52271208Y-27686176D01*
X52644766Y-27531825D01*
X52930821Y-27246269D01*
X53085824Y-26872982D01*
X53086176Y-26468792D01*
X52931825Y-26095234D01*
X52646269Y-25809179D01*
X52272982Y-25654176D01*
X51868792Y-25653824D01*
X51495234Y-25808175D01*
X51209179Y-26093731D01*
X51054176Y-26467018D01*
X51053824Y-26871208D01*
X50545825Y-26871208D01*
X50546176Y-26468792D01*
X50391825Y-26095234D01*
X50106269Y-25809179D01*
X49732982Y-25654176D01*
X49328792Y-25653824D01*
X48955234Y-25808175D01*
X48669179Y-26093731D01*
X48514176Y-26467018D01*
X48513824Y-26871208D01*
X42925825Y-26871208D01*
X42926176Y-26468792D01*
X42771825Y-26095234D01*
X42486269Y-25809179D01*
X42112982Y-25654176D01*
X41708792Y-25653824D01*
X41335234Y-25808175D01*
X41049179Y-26093731D01*
X40894176Y-26467018D01*
X40893824Y-26871208D01*
X40385825Y-26871208D01*
X40386176Y-26468792D01*
X40231825Y-26095234D01*
X39946269Y-25809179D01*
X39572982Y-25654176D01*
X39168792Y-25653824D01*
X38795234Y-25808175D01*
X38509179Y-26093731D01*
X38354176Y-26467018D01*
X38353824Y-26871208D01*
X36893500Y-26871208D01*
X36893500Y-24331208D01*
X38353824Y-24331208D01*
X38508175Y-24704766D01*
X38793731Y-24990821D01*
X39167018Y-25145824D01*
X39571208Y-25146176D01*
X39944766Y-24991825D01*
X40230821Y-24706269D01*
X40385824Y-24332982D01*
X40386176Y-23928792D01*
X40231825Y-23555234D01*
X40044918Y-23368000D01*
X40889024Y-23368000D01*
X40889024Y-24892000D01*
X40906735Y-24986127D01*
X40962364Y-25072576D01*
X41047244Y-25130572D01*
X41148000Y-25150976D01*
X42672000Y-25150976D01*
X42766127Y-25133265D01*
X42852576Y-25077636D01*
X42910572Y-24992756D01*
X42930976Y-24892000D01*
X42930976Y-23368000D01*
X48509024Y-23368000D01*
X48509024Y-24892000D01*
X48526735Y-24986127D01*
X48582364Y-25072576D01*
X48667244Y-25130572D01*
X48768000Y-25150976D01*
X50292000Y-25150976D01*
X50386127Y-25133265D01*
X50472576Y-25077636D01*
X50530572Y-24992756D01*
X50550976Y-24892000D01*
X50550976Y-24331208D01*
X51053824Y-24331208D01*
X51208175Y-24704766D01*
X51493731Y-24990821D01*
X51867018Y-25145824D01*
X52271208Y-25146176D01*
X52644766Y-24991825D01*
X52930821Y-24706269D01*
X53085824Y-24332982D01*
X53086176Y-23928792D01*
X52931825Y-23555234D01*
X52646269Y-23269179D01*
X52272982Y-23114176D01*
X51868792Y-23113824D01*
X51495234Y-23268175D01*
X51209179Y-23553731D01*
X51054176Y-23927018D01*
X51053824Y-24331208D01*
X50550976Y-24331208D01*
X50550976Y-23368000D01*
X50533265Y-23273873D01*
X50477636Y-23187424D01*
X50392756Y-23129428D01*
X50292000Y-23109024D01*
X48768000Y-23109024D01*
X48673873Y-23126735D01*
X48587424Y-23182364D01*
X48529428Y-23267244D01*
X48509024Y-23368000D01*
X42930976Y-23368000D01*
X42913265Y-23273873D01*
X42857636Y-23187424D01*
X42772756Y-23129428D01*
X42672000Y-23109024D01*
X41148000Y-23109024D01*
X41053873Y-23126735D01*
X40967424Y-23182364D01*
X40909428Y-23267244D01*
X40889024Y-23368000D01*
X40044918Y-23368000D01*
X39946269Y-23269179D01*
X39572982Y-23114176D01*
X39168792Y-23113824D01*
X38795234Y-23268175D01*
X38509179Y-23553731D01*
X38354176Y-23927018D01*
X38353824Y-24331208D01*
X36893500Y-24331208D01*
X36893500Y-22288500D01*
X54546500Y-22288500D01*
X54546500Y-38671500D01*
D16*
X45389800Y-34315400D03*
X53340000Y-38100000D03*
X48260000Y-33655000D03*
X43180000Y-28562300D03*
X43180000Y-29845000D03*
X43180000Y-32385000D03*
X43815000Y-33655000D03*
X46990000Y-33655000D03*
X40640000Y-31115000D03*
X40640000Y-28575000D03*
X40640000Y-26035000D03*
X46990000Y-37465000D03*
X44450000Y-37465000D03*
X40640000Y-36195000D03*
X43180000Y-36195000D03*
X45720000Y-36195000D03*
X48260000Y-36195000D03*
X50800000Y-36195000D03*
X53340000Y-35560000D03*
X50800000Y-38100000D03*
X48260000Y-38100000D03*
X45720000Y-38100000D03*
X43180000Y-38100000D03*
X40640000Y-38100000D03*
X38100000Y-38100000D03*
X38100000Y-35560000D03*
X38100000Y-33020000D03*
X38100000Y-30480000D03*
X38100000Y-27940000D03*
X38100000Y-25400000D03*
X38100000Y-22860000D03*
X40640000Y-22860000D03*
X43180000Y-22860000D03*
X45720000Y-22860000D03*
X48260000Y-22860000D03*
X48183800Y-32321500D03*
X48158400Y-31165800D03*
X48183800Y-29768800D03*
X48183800Y-24688800D03*
X48158400Y-26085800D03*
X46888400Y-27228800D03*
X48260000Y-27228800D03*
X48260000Y-28625800D03*
X49022000Y-30480000D03*
X50800000Y-29210000D03*
X49022000Y-25400000D03*
X50800000Y-24638000D03*
X50800000Y-22885400D03*
X53340000Y-22885400D03*
X52324000Y-25400000D03*
X53340000Y-25400000D03*
X51308000Y-27940000D03*
X53340000Y-27940000D03*
X52324000Y-30480000D03*
X53340000Y-30480000D03*
X53340000Y-33020000D03*
X43180000Y-27178000D03*
X47244012Y-31750000D03*
X44196000Y-31750000D03*
X47752000Y-29210000D03*
X43688000Y-29210000D03*
X46736000Y-29210000D03*
X47244000Y-26670000D03*
X44196000Y-26670000D03*
X47752000Y-24130000D03*
X46736000Y-24130000D03*
X45720000Y-24130000D03*
X43688000Y-24130000D03*
X44704000Y-24130000D03*
X46939200Y-54508400D03*
X46939200Y-52908200D03*
X44424600Y-53009800D03*
X43586400Y-54406800D03*
X43154600Y-53035200D03*
X43180000Y-50495200D03*
X43180000Y-47955200D03*
X43916600Y-49326800D03*
X43180000Y-49326800D03*
X49530000Y-45720000D03*
X46736000Y-49276000D03*
X44196000Y-47498000D03*
X44704000Y-44704000D03*
X45720000Y-44704000D03*
X47117000Y-45466000D03*
X46609000Y-46736000D03*
X46228000Y-48006000D03*
X46863000Y-48006000D03*
X43180000Y-45466000D03*
X43815000Y-52705000D03*
X45339000Y-54991000D03*
X46228000Y-53086000D03*
X46609000Y-51816000D03*
X47498000Y-56032400D03*
X48260000Y-54864000D03*
X48260000Y-51435000D03*
X48260000Y-50038000D03*
X48260000Y-47498000D03*
X48260000Y-49022000D03*
X48260000Y-52578000D03*
X48260000Y-54102000D03*
X49022000Y-48260000D03*
X50800000Y-46990000D03*
X52070000Y-45720000D03*
X49022000Y-53340000D03*
X52324000Y-53340000D03*
X52324000Y-48260000D03*
X50800000Y-51562000D03*
X52070000Y-50800000D03*
X40640000Y-44577000D03*
X40640000Y-51943000D03*
X40640000Y-49403000D03*
X40640000Y-46863000D03*
X39878000Y-46101000D03*
X39878000Y-48641000D03*
X39878000Y-53721000D03*
X39878000Y-51181000D03*
X40640000Y-56896000D03*
X43180000Y-56896000D03*
X43180000Y-57912000D03*
X44196000Y-58928000D03*
X46736000Y-58928000D03*
X48260000Y-58928000D03*
X50800000Y-58928000D03*
X53340000Y-60452000D03*
X50800000Y-60452000D03*
X53340000Y-58420000D03*
X48260000Y-60452000D03*
X46736000Y-60452000D03*
X44704000Y-60452000D03*
X43180000Y-59944000D03*
X40640000Y-58928000D03*
X38100000Y-58928000D03*
X38100000Y-56388000D03*
X38100000Y-53848000D03*
X38100000Y-51308000D03*
X38100000Y-48768000D03*
X38100000Y-46228000D03*
X38100000Y-43180000D03*
X40640000Y-43180000D03*
X43180000Y-43180000D03*
X45720000Y-43180000D03*
X48260000Y-43180000D03*
X50800000Y-43180000D03*
X53340000Y-43180000D03*
X53340000Y-45720000D03*
X53340000Y-48260000D03*
X53340000Y-50800000D03*
X53340000Y-53340000D03*
X53340000Y-55880000D03*
X40640000Y-95694500D03*
X47548800Y-88112600D03*
X38633400Y-94894400D03*
X39370000Y-92557600D03*
X39370000Y-89992200D03*
X39370000Y-87477600D03*
X51155600Y-101955600D03*
X48031400Y-102311200D03*
X44246800Y-95529400D03*
X44348400Y-98602800D03*
X46634400Y-100888800D03*
X45161200Y-72212200D03*
X48031400Y-89662000D03*
X46964600Y-94030800D03*
X46939200Y-95681800D03*
X44805600Y-97739200D03*
X46101000Y-99060000D03*
X46075600Y-97129600D03*
X45212000Y-89662000D03*
X45974000Y-87630000D03*
X44704000Y-88265000D03*
X44577000Y-94361000D03*
X44450000Y-92456000D03*
X46736000Y-90170000D03*
X53086000Y-106299000D03*
X53086000Y-104521000D03*
X48133000Y-105918000D03*
X45593000Y-103505000D03*
X48514000Y-104648000D03*
X46355000Y-102489000D03*
X42926000Y-98044000D03*
X42291000Y-100203000D03*
X40640000Y-99568000D03*
X38100000Y-99187000D03*
X38100000Y-98171000D03*
X40640000Y-98298000D03*
X46532802Y-83312000D03*
X44196000Y-81407000D03*
X42291000Y-79502000D03*
X40640000Y-78867000D03*
X38100000Y-78486000D03*
X38100000Y-77470000D03*
X40640000Y-77597000D03*
X43180000Y-77470000D03*
X53340000Y-83312000D03*
X53340000Y-81915000D03*
X48260000Y-81915000D03*
X50800000Y-81915000D03*
X48260000Y-83312000D03*
X50800000Y-83312000D03*
X44831000Y-80137000D03*
X43180000Y-78486000D03*
X46532802Y-81915000D03*
X53975000Y-86360000D03*
X53975000Y-88900000D03*
X37465000Y-102235000D03*
X37465000Y-104775000D03*
X41275000Y-106680000D03*
X43180000Y-106680000D03*
X45085000Y-106680000D03*
X46990000Y-106680000D03*
X48895000Y-106680000D03*
X39370000Y-106680000D03*
X37465000Y-99695000D03*
X37465000Y-64770000D03*
X53975000Y-66675000D03*
X43815000Y-64770000D03*
X45720000Y-64770000D03*
X47625000Y-64770000D03*
X49530000Y-64770000D03*
X51435000Y-64770000D03*
X43510200Y-75742800D03*
X45237402Y-77444600D03*
X46532802Y-78740000D03*
X47904400Y-78028794D03*
X48158396Y-76885800D03*
X48158398Y-74345800D03*
X48209200Y-72974200D03*
X48158400Y-71805792D03*
X48133000Y-70434200D03*
X46532800Y-71145400D03*
X43205402Y-66090800D03*
X44424600Y-67056008D03*
X45770796Y-67691000D03*
X46482006Y-68427600D03*
X47193202Y-69138800D03*
X49580800Y-68402200D03*
X43154600Y-67691000D03*
X43738800Y-68986400D03*
X44500800Y-69723000D03*
X45212000Y-70434200D03*
X43840400Y-71628000D03*
X47218600Y-75006200D03*
X45923200Y-75539600D03*
X44653200Y-74955400D03*
X43916600Y-74269600D03*
X45872400Y-76174600D03*
X47345600Y-76835000D03*
X49021996Y-71120000D03*
X50800000Y-69850000D03*
X53975000Y-68580000D03*
X53975000Y-64770000D03*
X40640000Y-65278000D03*
X43180000Y-73533000D03*
X43053000Y-71247000D03*
X43307000Y-70358000D03*
X43053000Y-68707000D03*
X40640000Y-72517000D03*
X40640000Y-69977000D03*
X40640000Y-67437000D03*
X43053000Y-94488000D03*
X43307000Y-86868000D03*
X43053000Y-88138000D03*
X43053000Y-89408000D03*
X43053000Y-90678000D03*
X43053000Y-91948000D03*
X43053000Y-93218000D03*
X48133000Y-75565000D03*
X48133000Y-100965000D03*
X48133000Y-95885000D03*
X48133000Y-97155000D03*
X48133000Y-99822000D03*
X48133000Y-98298000D03*
X48133000Y-94742000D03*
X48133000Y-93218000D03*
X49022000Y-99060000D03*
X49022000Y-93980000D03*
X49022000Y-76200000D03*
X50800000Y-74930000D03*
X52324000Y-73660000D03*
X52324000Y-71120000D03*
X52324000Y-76200000D03*
X40640000Y-93345000D03*
X40640000Y-85725000D03*
X40640000Y-88265000D03*
X40640000Y-90805000D03*
X50800000Y-106680000D03*
X50800000Y-104394000D03*
X50800000Y-92710000D03*
X53975000Y-101600000D03*
X52324000Y-96520000D03*
X52324000Y-93980000D03*
X52324000Y-99060000D03*
X50800000Y-97790000D03*
X37465000Y-97790000D03*
X37465000Y-79756000D03*
X37465000Y-77216000D03*
X37465000Y-74422000D03*
X37465000Y-71882000D03*
X37465000Y-69342000D03*
X37465000Y-66802000D03*
X37465000Y-84836000D03*
X37465000Y-87376000D03*
X37465000Y-89916000D03*
X37465000Y-92456000D03*
X37465000Y-95250000D03*
X53975000Y-99060000D03*
X53975000Y-96520000D03*
X53975000Y-93980000D03*
X53975000Y-91440000D03*
X53975000Y-84074000D03*
X53975000Y-81534000D03*
X53975000Y-78740000D03*
X53975000Y-76200000D03*
X53975000Y-73660000D03*
X53975000Y-71120000D03*
X53975000Y-106680000D03*
X53975000Y-104394000D03*
X37465000Y-106680000D03*
D17*
X46736000Y-61341000D03*
X36449000Y-63881000D03*
X44704000Y-61341000D03*
X36449000Y-61341000D03*
X45720000Y-61341000D03*
X45720000Y-63881000D03*
X44704000Y-63881000D03*
X46736000Y-63881000D03*
X54991000Y-63881000D03*
X54991000Y-61341000D03*
X54991000Y-39116000D03*
X44704000Y-41656000D03*
X45720000Y-41656000D03*
X46736000Y-41656000D03*
X36449000Y-41656000D03*
X54991000Y-41656000D03*
X36449000Y-39116000D03*
X44704000Y-39116000D03*
X45720000Y-39116000D03*
X46736000Y-39116000D03*
D18*
X50800000Y-62611000D03*
X40640000Y-62611000D03*
X40640000Y-40386000D03*
X50800000Y-40386000D03*
D17*
X49530000Y-24130000D03*
X52070000Y-24130000D03*
X49530000Y-26670000D03*
X52070000Y-26670000D03*
X49530000Y-29210000D03*
X52070000Y-29210000D03*
X49530000Y-31750000D03*
X52070000Y-31750000D03*
X49530000Y-34290000D03*
X52070000Y-34290000D03*
X49530000Y-36830000D03*
X52070000Y-36830000D03*
X49530000Y-92710000D03*
X52070000Y-92710000D03*
X49530000Y-95250000D03*
X52070000Y-95250000D03*
X49530000Y-97790000D03*
X52070000Y-97790000D03*
X49530000Y-100330000D03*
X52070000Y-100330000D03*
X49530000Y-102870000D03*
X52070000Y-102870000D03*
X49530000Y-105410000D03*
X52070000Y-105410000D03*
X49530000Y-46990000D03*
X52070000Y-46990000D03*
X49530000Y-49530000D03*
X52070000Y-49530000D03*
X49530000Y-52070000D03*
X52070000Y-52070000D03*
X49530000Y-54610000D03*
X52070000Y-54610000D03*
X49530000Y-57150000D03*
X52070000Y-57150000D03*
X49530000Y-59690000D03*
X52070000Y-59690000D03*
X49530000Y-69850000D03*
X52070000Y-69850000D03*
X49530000Y-72390000D03*
X52070000Y-72390000D03*
X49530000Y-74930000D03*
X52070000Y-74930000D03*
X49530000Y-77470000D03*
X52070000Y-77470000D03*
X49530000Y-80010000D03*
X52070000Y-80010000D03*
X49530000Y-82550000D03*
X52070000Y-82550000D03*
X41910000Y-24130000D03*
X39370000Y-24130000D03*
X41910000Y-26670000D03*
X39370000Y-26670000D03*
X41910000Y-29210000D03*
X39370000Y-29210000D03*
X41910000Y-31750000D03*
X39370000Y-31750000D03*
X41910000Y-34290000D03*
X39370000Y-34290000D03*
X41910000Y-36830000D03*
X39370000Y-36830000D03*
X41910000Y-44818300D03*
X39370000Y-44818300D03*
X41910000Y-47358300D03*
X39370000Y-47358300D03*
X41910000Y-49898300D03*
X39370000Y-49898300D03*
X41910000Y-52438300D03*
X39370000Y-52438300D03*
X41910000Y-54978300D03*
X39370000Y-54978300D03*
X41910000Y-57518300D03*
X39370000Y-57518300D03*
X41910000Y-65506600D03*
X39370000Y-65506600D03*
X41910000Y-68046600D03*
X39370000Y-68046600D03*
X41910000Y-70586600D03*
X39370000Y-70586600D03*
X41910000Y-73126600D03*
X39370000Y-73126600D03*
X41910000Y-75666600D03*
X39370000Y-75666600D03*
X41910000Y-78206600D03*
X39370000Y-78206600D03*
X41910000Y-86194900D03*
X39370000Y-86194900D03*
X41910000Y-88734900D03*
X39370000Y-88734900D03*
X41910000Y-91274900D03*
X39370000Y-91274900D03*
X41910000Y-93814900D03*
X39370000Y-93814900D03*
X41910000Y-96354900D03*
X39370000Y-96354900D03*
X41910000Y-98894900D03*
X39370000Y-98894900D03*
M02*
